{
.appVersion = "3343";
.formatVersion = 3;
DisplayStrings = (
" LOGO 🦎💚🐧  /uniF8EF    
 NEG 🐧💚🦎      ",
"AaB­"
);
axes = (
{
name = Weight;
tag = wght;
}
);
classes = (
{
automatic = 1;
code = "A Aacute Abreve Abreveacute Abrevedotbelow Abrevegrave Abrevehookabove Abrevetilde Acaron Acircumflex Acircumflexacute Acircumflexdotbelow Acircumflexgrave Acircumflexhookabove Acircumflextilde Adieresis Adotbelow Agrave Ahookabove Amacron Aogonek Aring Atilde AE B C Cacute Ccaron Ccedilla Cdotaccent D Dcaron Dcroat Eth E Eacute Ecaron Ecircumflex Ecircumflexacute Ecircumflexdotbelow Ecircumflexgrave Ecircumflexhookabove Ecircumflextilde Edieresis Edotaccent Edotbelow Egrave Ehookabove Emacron Eogonek Etilde F G Gbreve Gcommaaccent Gdotaccent H Hbar I Iacute Icircumflex Idieresis Idotaccent Idotbelow Igrave Ihookabove Imacron Iogonek Itilde J K Kcommaaccent L Lacute Lcaron Lcommaaccent Lslash M N Nacute Ncaron Ncommaaccent Ntilde Eng O Oacute Ocircumflex Ocircumflexacute Ocircumflexdotbelow Ocircumflexgrave Ocircumflexhookabove Ocircumflextilde Odieresis Odotbelow Ograve Ohookabove Ohorn Ohornacute Ohorndotbelow Ohorngrave Ohornhookabove Ohorntilde Ohungarumlaut Omacron Oslash Otilde OE P Thorn Q R Racute Rcaron Rcommaaccent S Sacute Scaron Scedilla Scommaaccent Germandbls T Tbar Tcaron Tcedilla Tcommaaccent U Uacute Ubreve Ucircumflex Udieresis Udotbelow Ugrave Uhookabove Uhorn Uhornacute Uhorndotbelow Uhorngrave Uhornhookabove Uhorntilde Uhungarumlaut Umacron Uogonek Uring Utilde V W Wacute Wcircumflex Wdieresis Wgrave X Y Yacute Ycircumflex Ydieresis Ydotbelow Ygrave Yhookabove Ytilde Z Zacute Zcaron Zdotaccent";
name = Uppercase;
}
);
customParameters = (
{
name = "Instance Preview";
value = (
A,
a,
B,
b,
C,
c,
"0",
"1",
"2",
"3"
);
},
{
name = fsType;
value = (
);
},
{
name = "Family Alignment Zones";
value = (
{
pos = 700;
size = 20;
},
{
pos = 470;
size = 10;
},
{
pos = 0;
size = -10;
},
{
pos = -200;
size = -10;
}
);
},
{
name = "Use Typo Metrics";
value = 1;
},
{

glyphs = (
{
glyphname = A;
kernLeft = A;
kernRight = A;
lastChange = "2025-07-26 22:04:38 +0000";
layers = (
{
anchors = (
{
name = bottom;
pos = (241,0);
},
{
name = ogonek;
pos = (496,0);
},
{
name = top;
pos = (413,700);
}
);
background = {
shapes = (
{
closed = 1;
nodes = (
(107,0,l),
(535,675,l),
(524,675,l),
(618,0,l),
(648,0,l),
(548,700,l),
(517,700,l),
(74,0,l)
);
},
{
closed = 1;
nodes = (
(600,219,l),
(595,247,l),
(243,247,l),
(224,219,l)
);
}
);
};
layerId = "4138F7D5-0763-4B33-9A38-359ACF56B4CB";
shapes = (
{
closed = 1;
nodes = (
(11,0,l),
(415,675,l),
(404,675,l),
(474,0,l),
(503,0,l),
(428,700,l),
(398,700,l),
(-21,0,l)
);
},
{
closed = 1;
nodes = (
(464,219,l),
(460,247,l),
(139,247,l),
(121,219,l)
);
}
);
width = 600;
},
{
anchors = (
{
name = bottom;
pos = (247,0);
},
{
name = ogonek;
pos = (476,0);
},
{
name = top;
pos = (414,700);
}
);
hints = (
{
horizontal = 1;
origin = (0,7);
target = up;
type = BottomGhost;
},
{
horizontal = 1;
origin = (1,3);
target = (1,2);
type = Stem;
},
{
horizontal = 1;
origin = (0,6);
place = (700,-165);
type = Stem;
}
);
layerId = "44520DEB-933F-4740-94E3-6BE30525566A";
shapes = (
{
closed = 1;
nodes = (
(113,0,l),
(399,579,l),
(378,579,l),
(375,0,l),
(534,0,l),
(513,700,l),
(314,700,l),
(-56,0,l)
);
},
{
closed = 1;
nodes = (
(476,133,l),
(457,257,l),
(156,257,l),
(72,133,l)
);
}
);
width = 600;
}
);
unicode = 65;
},
{
glyphname = AE;
kernRight = E;
lastChange = "2025-07-26 22:03:52 +0000";
layers = (
{
layerId = "4138F7D5-0763-4B33-9A38-359ACF56B4CB";
shapes = (
{
closed = 1;
nodes = (
(14,0,l),
(396,672,l),
(424,672,l),
(284,103,ls),
(269,41,o),
(298,0,o),
(357,0,cs),
(491,0,l),
(498,28,l),
(359,28,ls),
(325,28,o),
(303,59,o),
(312,96,cs),
(456,685,l),
(438,672,l),
(656,672,l),
(663,700,l),
(381,700,l),
(-19,0,l)
);
},
{
closed = 1;
nodes = (
(329,228,l),
(336,256,l),
(150,256,l),
(129,228,l)
);
},
{
closed = 1;
nodes = (
(562,336,l),
(568,364,l),
(365,364,l),
(359,336,l)
);
}
);
width = 600;
},
{
background = {
shapes = (
{
closed = 1;
nodes = (
(86,0,l),
(340,555,l),
(359,555,l),
(251,122,ls),
(233,49,o),
(269,0,o),
(341,0,cs),
(506,0,l),
(542,145,l),
(424,145,ls),
(409,145,o),
(405,154,o),
(408,165,cs),
(522,622,l),
(449,555,l),
(644,555,l),
(680,700,l),
(281,700,l),
(-68,0,l)
);
},
{
closed = 1;
nodes = (
(337,143,l),
(371,267,l),
(139,267,l),
(68,143,l)
);
},
{
closed = 1;
nodes = (
(562,288,l),
(595,416,l),
(426,416,l),
(393,288,l)
);
}
);
};
hints = (
{
horizontal = 1;
origin = (0,15);
target = (0,17);
type = Stem;
},
{
horizontal = 1;
origin = (0,7);
target = (0,8);
type = Stem;
},
{
horizontal = 1;
origin = (1,0);
target = (1,1);
type = Stem;
},
{
horizontal = 1;
origin = (2,0);
target = (2,1);
type = Stem;
}
);
layerId = "44520DEB-933F-4740-94E3-6BE30525566A";
shapes = (
{
closed = 1;
nodes = (
(86,0,l),
(342,565,l),
(361,565,l),
(251,122,ls),
(233,49,o),
(269,0,o),
(341,0,cs),
(506,0,l),
(540,135,l),
(422,135,ls),
(407,135,o),
(403,144,o),
(406,155,cs),
(522,622,l),
(452,565,l),
(647,565,l),
(680,700,l),
(281,700,l),
(-68,0,l)
);
},
{
closed = 1;
nodes = (
(337,143,l),
(371,267,l),
(139,267,l),
(68,143,l)
);
},
{
closed = 1;
nodes = (
(562,288,l),
(595,416,l),
(426,416,l),
(393,288,l)
);
}
);
width = 600;
}
);
unicode = 198;
},
{
glyphname = B;
kernLeft = H;
lastChange = "2025-07-26 22:02:40 +0000";
layers = (
{
layerId = "4138F7D5-0763-4B33-9A38-359ACF56B4CB";
shapes = (
{
closed = 1;
nodes = (
(264,0,ls),
(409,0,o),
(505,85,o),
(505,213,cs),
(505,301,o),
(433,365,o),
(337,365,c),
(329,352,l),
(454,352,o),
(564,413,o),
(564,536,cs),
(564,634,o),
(489,700,o),
(374,700,cs),
(216,700,l),
(44,0,l)
);
},
{
closed = 1;
nodes = (
(241,685,l),
(225,673,l),
(374,673,ls),
(472,673,o),
(535,619,o),
(535,533,cs),
(535,436,o),
(444,374,o),
(332,374,cs),
(152,374,l),
(145,347,l),
(329,347,ls),
(412,347,o),
(475,289,o),
(475,213,cs),
(478,103,o),
(396,27,o),
(269,27,cs),
(67,27,l),
(77,15,l)
);
}
);
width = 600;
},
{
background = {
shapes = (
{
closed = 1;
nodes = (
(271,0,ls),
(428,0,o),
(543,72,o),
(543,225,cs),
(543,303,o),
(479,369,o),
(383,369,c),
(384,347,l),
(515,347,o),
(590,419,o),
(590,532,cs),
(590,628,o),
(527,700,o),
(386,700,cs),
(193,700,l),
(21,0,l)
);
},
{
closed = 1;
nodes = (
(331,624,l),
(255,569,l),
(361,569,ls),
(402,569,o),
(426,546,o),
(426,506,cs),
(426,455,o),
(386,420,o),
(333,420,cs),
(229,420,l),
(198,295,l),
(311,295,ls),
(355,295,o),
(381,270,o),
(381,227,cs),
(381,169,o),
(337,131,o),
(272,131,cs),
(147,131,l),
(197,76,l)
);
}
);
};
hints = (
{
horizontal = 1;
origin = (0,15);
target = (1,18);
type = Stem;
},
{
horizontal = 1;
origin = (1,11);
target = (1,9);
type = Stem;
},
{
horizontal = 1;
origin = (0,14);
target = (1,2);
type = Stem;
}
);
layerId = "44520DEB-933F-4740-94E3-6BE30525566A";
shapes = (
{
closed = 1;
nodes = (
(271,0,ls),
(428,0,o),
(543,65,o),
(543,218,cs),
(543,296,o),
(479,362,o),
(383,362,c),
(384,352,l),
(515,355,o),
(590,426,o),
(590,535,cs),
(590,631,o),
(527,700,o),
(386,700,cs),
(193,700,l),
(21,0,l)
);
},
{
closed = 1;
nodes = (
(331,624,l),
(255,579,l),
(361,579,ls),
(402,579,o),
(426,559,o),
(426,519,cs),
(426,453,o),
(386,415,o),
(333,415,cs),
(229,415,l),
(198,300,l),
(311,300,ls),
(355,300,o),
(381,275,o),
(381,227,cs),
(381,159,o),
(337,121,o),
(272,121,cs),
(147,121,l),
(197,76,l)
);
}
);
width = 600;
},
{
associatedMasterId = "4138F7D5-0763-4B33-9A38-359ACF56B4CB";
layerId = "B29274CA-8786-4717-B277-8C02937A8204";
name = "2. Mai 25, 15:18";
shapes = (
{
closed = 1;
nodes = (
(314,0,ls),
(465,0,o),
(538,76,o),
(538,190,cs),
(538,292,o),
(454,367,o),
(327,367,c),
(327,355,l),
(450,355,o),
(517,430,o),
(517,529,cs),
(517,632,o),
(441,700,o),
(312,700,cs),
(100,700,l),
(100,0,l)
);
},
{
closed = 1;
nodes = (
(129,685,l),
(116,673,l),
(311,673,ls),
(421,673,o),
(488,615,o),
(488,528,cs),
(488,439,o),
(429,374,o),
(320,374,cs),
(116,374,l),
(116,347,l),
(322,347,ls),
(433,347,o),
(508,281,o),
(508,191,cs),
(508,94,o),
(445,27,o),
(312,27,cs),
(116,27,l),
(129,15,l)
);
}
);
width = 598;
}
);
unicode = 66;
},
{
glyphname = C;
kernLeft = O;
kernRight = C;
lastChange = "2025-07-26 22:05:13 +0000";
layers = (
{
anchors = (
{
name = bottom;
pos = (247,0);
},
{
name = top;
pos = (429,700);
}
);
layerId = "4138F7D5-0763-4B33-9A38-359ACF56B4CB";
shapes = (
{
closed = 1;
nodes = (
(355,-10,o),
(418,34,o),
(481,110,c),
(461,126,l),
(405,58,o),
(345,19,o),
(268,19,cs),
(161,19,o),
(114,93,o),
(114,223,cs),
(114,401,o),
(209,681,o),
(412,681,cs),
(488,681,o),
(528,644,o),
(551,580,c),
(578,595,l),
(552,668,o),
(501,710,o),
(414,710,cs),
(184,710,o),
(84,403,o),
(84,215,cs),
(84,71,o),
(148,-10,o),
(268,-10,cs)
);
}
);
width = 600;
},
{
anchors = (
{
name = bottom;
pos = (248,0);
},
{
name = top;
pos = (419,700);
}
);
hints = (
{
horizontal = 1;
origin = (0,25);
target = (0,6);
type = Stem;
},
{
horizontal = 1;
origin = (0,12);
target = (0,19);
type = Stem;
}
);
layerId = "44520DEB-933F-4740-94E3-6BE30525566A";
shapes = (
{
closed = 1;
nodes = (
(351,-13,o),
(461,2,o),
(541,165,c),
(407,211,l),
(374,135,o),
(326,121,o),
(293,121,cs),
(240,121,o),
(208,165,o),
(208,254,cs),
(208,417,o),
(284,579,o),
(385,579,cs),
(426,579,o),
(449,555,o),
(456,503,c),
(613,544,l),
(590,654,o),
(515,714,o),
(403,714,cs),
(198,714,o),
(45,500,o),
(45,239,cs),
(45,73,o),
(137,-13,o),
(273,-13,cs)
);
}
);
width = 600;
},
{
anchors = (
{
name = bottom;
pos = (307,0);
},
{
name = top;
pos = (509,700);
}
);
associatedMasterId = "4138F7D5-0763-4B33-9A38-359ACF56B4CB";
layerId = "CEE9EAF7-2E08-4CBD-95C7-4710618F36D7";
name = "27. Juni 25, 09:13";
shapes = (
{
closed = 1;
nodes = (
(439,-9,o),
(584,219,o),
(584,487,cs),
(584,627,o),
(518,709,o),
(401,709,cs),
(208,709,o),
(73,478,o),
(73,206,cs),
(73,74,o),
(137,-9,o),
(258,-9,cs)
);
},
{
closed = 1;
nodes = (
(102,94,o),
(102,211,cs),
(102,464,o),
(223,680,o),
(400,680,cs),
(499,680,o),
(555,607,o),
(555,482,cs),
(555,233,o),
(424,20,o),
(260,20,cs),
(156,20,o)
);
}
);
width = 600;
},
{
anchors = (
{
name = bottom;
pos = (258,0);
},
{
name = top;
pos = (419,700);
}
);
associatedMasterId = "44520DEB-933F-4740-94E3-6BE30525566A";
layerId = "7AF72C4F-553E-4981-9429-E3EDEAC23370";
name = "27. Juni 25, 14:53";
shapes = (
{
closed = 1;
nodes = (
(450,-15,o),
(531,43,o),
(571,155,c),
(419,206,l),
(404,159,o),
(375,141,o),
(328,141,cs),
(248,141,o),
(221,192,o),
(221,346,cs),
(221,353,ls),
(221,508,o),
(248,559,o),
(328,559,cs),
(375,559,o),
(404,541,o),
(419,494,c),
(568,552,l),
(527,660,o),
(447,715,o),
(328,715,cs),
(149,715,o),
(57,592,o),
(57,353,cs),
(57,346,ls),
(57,108,o),
(149,-15,o),
(328,-15,cs)
);
}
);
width = 600;
},
{
anchors = (
{
name = bottom;
pos = (248,0);
},
{
name = top;
pos = (419,700);
}
);
associatedMasterId = "44520DEB-933F-4740-94E3-6BE30525566A";
background = {
shapes = (
{
closed = 1;
nodes = (
(462,-15,o),
(572,146,o),
(597,396,c),
(346,396,l),
(314,266,l),
(477,266,l),
(421,308,l),
(419,207,o),
(358,135,o),
(300,135,cs),
(233,135,o),
(199,170,o),
(199,246,cs),
(199,417,o),
(277,563,o),
(369,563,cs),
(421,563,o),
(451,535,o),
(455,482,c),
(615,522,l),
(601,650,o),
(515,715,o),
(390,715,cs),
(192,715,o),
(42,510,o),
(42,239,cs),
(42,58,o),
(155,-15,o),
(279,-15,cs)
);
}
);
};
layerId = "E3E3020F-7D23-4BB0-87AF-DD283B51A74B";
name = "30. Juni 25, 14:04";
shapes = (
{
closed = 1;
nodes = (
(450,-15,o),
(531,43,o),
(571,155,c),
(422,206,l),
(407,152,o),
(375,121,o),
(332,121,cs),
(256,121,o),
(221,185,o),
(221,346,cs),
(221,353,ls),
(221,515,o),
(256,579,o),
(332,579,cs),
(375,579,o),
(407,548,o),
(419,494,c),
(568,552,l),
(527,660,o),
(447,715,o),
(328,715,cs),
(157,715,o),
(57,581,o),
(57,353,cs),
(57,346,ls),
(57,119,o),
(157,-15,o),
(328,-15,cs)
);
}
);
visible = 1;
width = 600;
}
);
unicode = 67;
},
{
glyphname = D;
kernLeft = H;
kernRight = D;
lastChange = "2025-07-26 22:05:28 +0000";
layers = (
{
anchors = (
{
name = center;
pos = (211,360);
},
{
name = top;
pos = (393,700);
}
);
background = {
shapes = (
{
closed = 1;
nodes = (
(168,11,ls),
(336,-10,o),
(480,118,o),
(532,329,cs),
(535,342,ls),
(583,539,o),
(506,685,o),
(339,706,cs),
(199,723,l),
(29,29,l)
);
},
{
closed = 1;
nodes = (
(224,704,l),
(208,693,l),
(331,677,ls),
(483,658,o),
(551,526,o),
(506,345,cs),
(503,333,ls),
(456,138,o),
(326,21,o),
(175,40,cs),
(51,55,l),
(61,41,l)
);
}
);
};
layerId = "4138F7D5-0763-4B33-9A38-359ACF56B4CB";
shapes = (
{
closed = 1;
nodes = (
(200,0,ls),
(455,0,o),
(573,249,o),
(573,450,cs),
(573,604,o),
(492,700,o),
(352,700,cs),
(221,700,l),
(49,0,l)
);
},
{
closed = 1;
nodes = (
(246,684,l),
(230,671,l),
(346,671,ls),
(470,671,o),
(543,585,o),
(543,445,cs),
(543,259,o),
(436,29,o),
(198,29,cs),
(72,29,l),
(82,16,l)
);
}
);
width = 600;
},
{
anchors = (
{
name = center;
pos = (199,357);
},
{
name = top;
pos = (385,700);
}
);
hints = (
{
horizontal = 1;
place = (0,139);
target = (1,8);
type = Stem;
},
{
horizontal = 1;
origin = (1,2);
target = (0,6);
type = Stem;
}
);
layerId = "44520DEB-933F-4740-94E3-6BE30525566A";
shapes = (
{
closed = 1;
nodes = (
(219,0,ls),
(440,0,o),
(599,189,o),
(599,440,cs),
(599,595,o),
(508,700,o),
(341,700,cs),
(173,700,l),
(-1,0,l)
);
},
{
closed = 1;
nodes = (
(313,618,l),
(230,561,l),
(331,561,ls),
(412,561,o),
(439,507,o),
(439,435,cs),
(439,272,o),
(350,139,o),
(227,139,cs),
(130,139,l),
(179,82,l)
);
}
);
width = 600;
},
{
anchors = (
{
name = center;
pos = (156,360);
},
{
name = top;
pos = (338,700);
}
);
associatedMasterId = "4138F7D5-0763-4B33-9A38-359ACF56B4CB";
layerId = "494A8C0A-724C-4135-9DD4-78D22A773E74";
name = "2. Mai 25, 15:40";
shapes = (
{
closed = 1;
nodes = (
(312,0,ls),
(502,0,o),
(646,147,o),
(646,355,cs),
(646,368,ls),
(646,563,o),
(503,700,o),
(312,700,cs),
(100,700,l),
(100,0,l)
);
},
{
closed = 1;
nodes = (
(129,684,l),
(116,671,l),
(311,671,ls),
(485,671,o),
(617,547,o),
(617,368,cs),
(617,355,ls),
(617,164,o),
(485,29,o),
(311,29,cs),
(116,29,l),
(129,16,l)
);
}
);
width = 705;
},
{
anchors = (
{
name = center;
pos = (187,360);
},
{
name = top;
pos = (433,700);
}
);
associatedMasterId = "4138F7D5-0763-4B33-9A38-359ACF56B4CB";
background = {
shapes = (
{
closed = 1;
nodes = (
(253,0,ls),
(410,0,o),
(536,119,o),
(536,368,cs),
(536,567,o),
(424,700,o),
(253,700,cs),
(110,700,l),
(110,0,l)
);
},
{
closed = 1;
nodes = (
(139,684,l),
(126,671,l),
(252,671,ls),
(407,671,o),
(507,550,o),
(507,368,cs),
(507,140,o),
(396,29,o),
(252,29,cs),
(126,29,l),
(139,16,l)
);
}
);
};
layerId = "E570591C-7DAA-4F37-A63B-004E573C5D90";
name = "27. Juni 25, 09:15";
shapes = (
{
closed = 1;
nodes = (
(245,0,ls),
(481,0,o),
(659,183,o),
(659,426,cs),
(659,432,ls),
(659,593,o),
(542,700,o),
(367,700,cs),
(216,700,l),
(44,0,l)
);
},
{
closed = 1;
nodes = (
(241,684,l),
(225,671,l),
(366,671,ls),
(525,671,o),
(629,574,o),
(629,429,cs),
(629,423,ls),
(629,201,o),
(466,29,o),
(251,29,cs),
(67,29,l),
(77,16,l)
);
}
);
width = 600;
}
);
unicode = 68;
},
{
glyphname = E;
kernLeft = E;
kernRight = E;
lastChange = "2025-07-26 22:05:36 +0000";
layers = (
{
anchors = (
{
name = bottom;
pos = (266,0);
},
{
name = ogonek;
pos = (453,0);
},
{
name = top;
pos = (431,700);
}
);
background = {
shapes = (
{
closed = 1;
nodes = (
(455,0,l),
(462,28,l),
(171,28,ls),
(126,28,o),
(101,62,o),
(112,106,cs),
(232,594,ls),
(243,638,o),
(284,672,o),
(329,672,cs),
(620,672,l),
(627,700,l),
(332,700,ls),
(272,700,o),
(218,656,o),
(204,597,cs),
(82,103,ls),
(68,44,o),
(100,0,o),
(160,0,cs)
);
},
{
closed = 1;
nodes = (
(517,336,l),
(523,364,l),
(164,364,l),
(158,336,l)
);
}
);
};
layerId = "4138F7D5-0763-4B33-9A38-359ACF56B4CB";
shapes = (
{
closed = 1;
nodes = (
(453,0,l),
(460,28,l),
(171,28,ls),
(124,28,o),
(100,59,o),
(112,106,cs),
(231,590,ls),
(243,638,o),
(284,672,o),
(333,672,cs),
(618,672,l),
(625,700,l),
(332,700,ls),
(272,700,o),
(218,656,o),
(204,597,cs),
(85,112,ls),
(68,44,o),
(102,0,o),
(170,0,cs)
);
},
{
closed = 1;
nodes = (
(515,336,l),
(521,364,l),
(164,364,l),
(158,336,l)
);
}
);
width = 600;
},
{
anchors = (
{
name = bottom;
pos = (274,0);
},
{
name = ogonek;
pos = (474,0);
},
{
name = top;
pos = (440,700);
}
);
background = {
shapes = (
{
closed = 1;
nodes = (
(474,0,l),
(510,145,l),
(227,145,ls),
(216,145,o),
(209,154,o),
(212,165,cs),
(304,535,ls),
(307,546,o),
(318,555,o),
(329,555,cs),
(612,555,l),
(648,700,l),
(309,700,ls),
(233,700,o),
(177,655,o),
(157,578,cs),
(47,141,ls),
(26,56,o),
(69,0,o),
(155,0,cs)
);
},
{
closed = 1;
nodes = (
(523,283,l),
(558,421,l),
(194,421,l),
(159,283,l)
);
}
);
};
hints = (
{
horizontal = 1;
origin = (0,11);
target = (0,10);
type = Stem;
},
{
horizontal = 1;
origin = (1,0);
target = (1,1);
type = Stem;
},
{
horizontal = 1;
origin = (0,0);
target = (0,1);
type = Stem;
}
);
layerId = "44520DEB-933F-4740-94E3-6BE30525566A";
shapes = (
{
closed = 1;
nodes = (
(474,0,l),
(507,135,l),
(224,135,ls),
(213,135,o),
(206,144,o),
(209,155,cs),
(307,545,ls),
(310,556,o),
(321,565,o),
(332,565,cs),
(615,565,l),
(648,700,l),
(309,700,ls),
(233,700,o),
(177,655,o),
(157,578,cs),
(47,141,ls),
(26,56,o),
(69,0,o),
(155,0,cs)
);
},
{
closed = 1;
nodes = (
(524,288,l),
(557,416,l),
(194,416,l),
(159,288,l)
);
}
);
width = 600;
},
{
anchors = (
{
name = bottom;
pos = (315,0);
},
{
name = ogonek;
pos = (492,0);
},
{
name = top;
pos = (308,700);
}
);
associatedMasterId = "4138F7D5-0763-4B33-9A38-359ACF56B4CB";
layerId = "4460708E-6130-4FD2-B621-B96370FFA091";
name = "3. Mai 25, 06:48";
shapes = (
{
closed = 1;
nodes = (
(492,0,l),
(492,28,l),
(201,28,ls),
(156,28,o),
(123,62,o),
(123,106,cs),
(123,594,ls),
(123,638,o),
(156,672,o),
(201,672,cs),
(492,672,l),
(492,700,l),
(197,700,ls),
(137,700,o),
(94,656,o),
(94,597,cs),
(94,103,ls),
(94,44,o),
(137,0,o),
(197,0,cs)
);
},
{
closed = 1;
nodes = (
(471,336,l),
(471,364,l),
(112,364,l),
(112,336,l)
);
}
);
width = 547;
}
);
unicode = 69;
},
{
glyphname = F;
lastChange = "2025-07-26 22:05:40 +0000";
layers = (
{
background = {
shapes = (
{
closed = 1;
nodes = (
(79,0,l),
(225,594,ls),
(236,638,o),
(278,672,o),
(322,672,cs),
(621,672,l),
(628,700,l),
(325,700,ls),
(265,700,o),
(211,656,o),
(197,597,cs),
(50,0,l)
);
},
{
closed = 1;
nodes = (
(515,320,l),
(522,348,l),
(152,348,l),
(145,320,l)
);
}
);
};
layerId = "4138F7D5-0763-4B33-9A38-359ACF56B4CB";
shapes = (
{
closed = 1;
nodes = (
(80,0,l),
(225,589,ls),
(237,638,o),
(279,672,o),
(328,672,cs),
(622,672,l),
(629,700,l),
(326,700,ls),
(266,700,o),
(212,656,o),
(198,597,cs),
(51,0,l)
);
},
{
closed = 1;
nodes = (
(516,320,l),
(523,348,l),
(153,348,l),
(146,320,l)
);
}
);
width = 600;
},
{
background = {
shapes = (
{
closed = 1;
nodes = (
(179,0,l),
(310,535,ls),
(313,546,o),
(324,555,o),
(335,555,cs),
(617,555,l),
(653,700,l),
(313,700,ls),
(239,700,o),
(179,651,o),
(161,578,cs),
(19,0,l)
);
},
{
closed = 1;
nodes = (
(518,251,l),
(553,394,l),
(198,394,l),
(163,251,l)
);
}
);
};
hints = (
{
horizontal = 1;
origin = (0,11);
target = up;
type = BottomGhost;
},
{
horizontal = 1;
origin = (1,3);
target = (1,2);
type = Stem;
},
{
horizontal = 1;
origin = (0,7);
target = (0,5);
type = Stem;
}
);
layerId = "44520DEB-933F-4740-94E3-6BE30525566A";
shapes = (
{
closed = 1;
nodes = (
(179,0,l),
(313,545,ls),
(316,556,o),
(327,565,o),
(338,565,cs),
(620,565,l),
(653,700,l),
(313,700,ls),
(239,700,o),
(179,651,o),
(161,578,cs),
(19,0,l)
);
},
{
closed = 1;
nodes = (
(519,256,l),
(552,389,l),
(197,389,l),
(164,256,l)
);
}
);
width = 600;
}
);
unicode = 70;
},
{
glyphname = G;
kernLeft = O;
kernRight = G;
lastChange = "2025-07-26 22:05:47 +0000";
layers = (
{
anchors = (
{
name = bottom;
pos = (264,0);
},
{
name = top;
pos = (428,700);
}
);
background = {
shapes = (
{
closed = 1;
nodes = (
(390,-30,o),
(484,71,o),
(552,321,c),
(384,342,l),
(378,315,l),
(529,296,l),
(519,312,l),
(461,93,o),
(379,1,o),
(256,16,cs),
(123,33,o),
(95,171,o),
(144,374,cs),
(197,587,o),
(301,698,o),
(428,682,cs),
(492,674,o),
(540,635,o),
(558,577,c),
(586,590,l),
(566,657,o),
(510,701,o),
(435,711,cs),
(289,729,o),
(172,609,o),
(115,377,cs),
(60,153,o),
(99,6,o),
(247,-13,cs)
);
}
);
};
layerId = "4138F7D5-0763-4B33-9A38-359ACF56B4CB";
shapes = (
{
closed = 1;
nodes = (
(400,-15,o),
(489,98,o),
(557,348,c),
(386,348,l),
(379,321,l),
(534,321,l),
(523,335,l),
(463,114,o),
(384,14,o),
(264,14,cs),
(171,14,o),
(120,84,o),
(120,205,cs),
(120,370,o),
(218,686,o),
(424,686,cs),
(483,686,o),
(533,654,o),
(551,599,c),
(580,615,l),
(559,678,o),
(495,715,o),
(425,715,cs),
(192,715,o),
(91,379,o),
(91,203,cs),
(91,64,o),
(153,-15,o),
(260,-15,cs)
);
}
);
width = 600;
},
{
anchors = (
{
name = bottom;
pos = (277,0);
},
{
name = top;
pos = (391,700);
}
);
background = {
shapes = (
{
closed = 1;
nodes = (
(458,-15,o),
(572,146,o),
(597,396,c),
(346,396,l),
(314,266,l),
(477,266,l),
(422,309,l),
(420,211,o),
(361,141,o),
(295,141,cs),
(240,141,o),
(207,175,o),
(207,249,cs),
(207,415,o),
(284,557,o),
(375,557,cs),
(422,557,o),
(450,531,o),
(455,482,c),
(615,522,l),
(601,650,o),
(515,715,o),
(390,715,cs),
(192,715,o),
(42,510,o),
(42,239,cs),
(42,58,o),
(151,-15,o),
(272,-15,cs)
);
}
);
};
hints = (
{
horizontal = 1;
place = (-15,130);
target = (0,9);
type = Stem;
},
{
horizontal = 1;
origin = (0,4);
target = (0,3);
type = Stem;
},
{
horizontal = 1;
origin = (0,15);
target = (0,22);
type = Stem;
}
);
layerId = "44520DEB-933F-4740-94E3-6BE30525566A";
shapes = (
{
closed = 1;
nodes = (
(451,-15,o),
(572,146,o),
(597,396,c),
(346,396,l),
(316,276,l),
(479,276,l),
(427,310,l),
(420,205,o),
(353,115,o),
(287,115,cs),
(232,115,o),
(207,160,o),
(207,249,cs),
(207,415,o),
(284,583,o),
(387,583,cs),
(428,583,o),
(454,556,o),
(462,504,c),
(613,541,l),
(592,657,o),
(508,715,o),
(390,715,cs),
(192,715,o),
(42,510,o),
(42,239,cs),
(42,58,o),
(144,-15,o),
(265,-15,cs)
);
}
);
width = 600;
},
{
anchors = (
{
name = bottom;
pos = (393,0);
},
{
name = top;
pos = (393,700);
}
);
associatedMasterId = "4138F7D5-0763-4B33-9A38-359ACF56B4CB";
background = {
shapes = (
{
closed = 1;
nodes = (
(500,-38,o),
(654,113,o),
(686,310,c),
(452,339,l),
(446,313,l),
(664,286,l),
(654,301,l),
(623,130,o),
(483,-6,o),
(315,15,cs),
(138,37,o),
(46,186,o),
(92,375,cs),
(97,396,ls),
(144,587,o),
(305,704,o),
(486,681,cs),
(547,673,o),
(603,648,o),
(643,604,c),
(666,625,l),
(622,672,o),
(561,701,o),
(494,710,cs),
(294,735,o),
(119,607,o),
(68,400,cs),
(63,379,ls),
(12,172,o),
(113,10,o),
(308,-14,cs)
);
}
);
};
layerId = "6CE18C31-4772-4964-8805-CE09CF722D69";
name = "3. Mai 25, 06:51";
shapes = (
{
closed = 1;
nodes = (
(593,-15,o),
(710,151,o),
(693,348,c),
(454,348,l),
(454,321,l),
(677,321,l),
(664,335,l),
(675,164,o),
(569,14,o),
(397,14,cs),
(216,14,o),
(88,148,o),
(88,339,cs),
(88,360,ls),
(88,552,o),
(219,686,o),
(404,686,cs),
(467,686,o),
(529,668,o),
(579,630,c),
(597,653,l),
(542,694,o),
(474,715,o),
(405,715,cs),
(201,715,o),
(58,569,o),
(58,360,cs),
(58,339,ls),
(58,131,o),
(198,-15,o),
(397,-15,cs)
);
}
);
width = 732;
},
{
anchors = (
{
name = bottom;
pos = (277,0);
},
{
name = top;
pos = (391,700);
}
);
associatedMasterId = "44520DEB-933F-4740-94E3-6BE30525566A";
background = {
shapes = (
{
closed = 1;
nodes = (
(458,-15,o),
(572,146,o),
(597,396,c),
(346,396,l),
(314,266,l),
(477,266,l),
(422,309,l),
(420,211,o),
(361,141,o),
(295,141,cs),
(240,141,o),
(207,175,o),
(207,249,cs),
(207,415,o),
(284,557,o),
(375,557,cs),
(422,557,o),
(450,531,o),
(455,482,c),
(615,522,l),
(601,650,o),
(515,715,o),
(390,715,cs),
(192,715,o),
(42,510,o),
(42,239,cs),
(42,58,o),
(151,-15,o),
(272,-15,cs)
);
}
);
};
layerId = "504239EE-E90F-4A5C-97C5-81D9BFE24071";
name = "30. Juni 25, 14:03";
shapes = (
{
closed = 1;
nodes = (
(512,-15,o),
(622,146,o),
(586,396,c),
(335,396,l),
(335,276,l),
(498,276,l),
(441,308,l),
(454,187,o),
(401,115,o),
(342,115,cs),
(253,115,o),
(213,180,o),
(213,346,cs),
(213,353,ls),
(213,518,o),
(248,583,o),
(329,583,cs),
(374,583,o),
(406,550,o),
(419,494,c),
(568,552,l),
(527,660,o),
(455,715,o),
(336,715,cs),
(155,715,o),
(53,581,o),
(53,353,cs),
(53,346,ls),
(53,119,o),
(159,-15,o),
(339,-15,cs)
);
}
);
visible = 1;
width = 600;
}
);
unicode = 71;
},
{
glyphname = H;
kernLeft = H;
kernRight = H;
lastChange = "2025-07-26 22:05:53 +0000";
layers = (
{
layerId = "4138F7D5-0763-4B33-9A38-359ACF56B4CB";
shapes = (
{
closed = 1;
nodes = (
(449,0,l),
(623,700,l),
(594,700,l),
(420,0,l)
);
},
{
closed = 1;
nodes = (
(63,0,l),
(237,700,l),
(208,700,l),
(34,0,l)
);
},
{
closed = 1;
nodes = (
(518,346,l),
(525,374,l),
(144,374,l),
(137,346,l)
);
}
);
width = 600;
},
{
associatedMasterId = "44520DEB-933F-4740-94E3-6BE30525566A";
hints = (
{
horizontal = 1;
origin = (1,3);
target = up;
type = BottomGhost;
},
{
horizontal = 1;
origin = (2,3);
target = (2,2);
type = Stem;
},
{
horizontal = 1;
origin = (1,2);
target = down;
type = TopGhost;
},
{
origin = (1,3);
target = (1,1);
type = Stem;
},
{
origin = (0,3);
target = (0,1);
type = Stem;
}
);
layerId = "48003CAD-B2DE-4552-88D2-6F923D0F991B";
name = "4. Mai 25, 22:21";
shapes = (
{
closed = 1;
nodes = (
(614,0,l),
(786,700,l),
(610,700,l),
(438,0,l)
);
},
{
closed = 1;
nodes = (
(178,0,l),
(351,700,l),
(175,700,l),
(2,0,l)
);
},
{
closed = 1;
nodes = (
(575,278,l),
(614,436,l),
(199,436,l),
(160,278,l)
);
}
);
width = 738;
},
{
hints = (
{
horizontal = 1;
place = (0,21);
target = up;
type = BottomGhost;
},
{
horizontal = 1;
place = (700,-20);
target = down;
type = TopGhost;
},
{
horizontal = 1;
origin = (2,3);
target = (2,2);
type = Stem;
}
);
layerId = "44520DEB-933F-4740-94E3-6BE30525566A";
name = "ExtraBold Italic";
shapes = (
{
closed = 1;
nodes = (
(480,0,l),
(654,700,l),
(493,700,l),
(319,0,l)
);
},
{
closed = 1;
nodes = (
(159,0,l),
(333,700,l),
(172,700,l),
(-2,0,l)
);
},
{
closed = 1;
nodes = (
(453,294,l),
(489,429,l),
(188,429,l),
(152,294,l)
);
}
);
width = 600;
}
);
unicode = 72;
},
{
glyphname = Hbar;
kernLeft = H;
kernRight = H;
lastChange = "2025-07-26 22:07:45 +0000";
layers = (
{
layerId = "4138F7D5-0763-4B33-9A38-359ACF56B4CB";
shapes = (
{
closed = 1;
nodes = (
(660,512,l),
(666,536,l),
(84,536,l),
(78,512,l)
);
},
{
closed = 1;
nodes = (
(449,0,l),
(621,700,l),
(592,700,l),
(420,0,l)
);
},
{
closed = 1;
nodes = (
(63,0,l),
(235,700,l),
(206,700,l),
(34,0,l)
);
},
{
closed = 1;
nodes = (
(517,346,l),
(524,374,l),
(143,374,l),
(136,346,l)
);
}
);
width = 600;
},
{
hints = (
{
horizontal = 1;
origin = (0,0);
target = (0,1);
type = Stem;
},
{
horizontal = 1;
origin = (3,0);
target = (3,1);
type = Stem;
}
);
layerId = "44520DEB-933F-4740-94E3-6BE30525566A";
shapes = (
{
closed = 1;
nodes = (
(652,480,l),
(679,589,l),
(91,589,l),
(64,480,l)
);
},
{
closed = 1;
nodes = (
(479,0,l),
(654,700,l),
(493,700,l),
(318,0,l)
);
},
{
closed = 1;
nodes = (
(158,0,l),
(333,700,l),
(172,700,l),
(-3,0,l)
);
},
{
closed = 1;
nodes = (
(442,254,l),
(478,389,l),
(177,389,l),
(141,254,l)
);
}
);
width = 600;
}
);
unicode = 294;
},
{
glyphname = I;
kernLeft = I;
kernRight = I;
lastChange = "2025-07-26 22:07:52 +0000";
layers = (
{
anchors = (
{
name = bottom;
pos = (242,0);
},
{
name = ogonek;
pos = (254,0);
},
{
name = top;
pos = (415,700);
}
);
layerId = "4138F7D5-0763-4B33-9A38-359ACF56B4CB";
shapes = (
{
closed = 1;
nodes = (
(260,10,l),
(426,690,l),
(396,690,l),
(230,10,l)
);
},
{
closed = 1;
nodes = (
(617,672,l),
(624,700,l),
(206,700,l),
(199,672,l)
);
},
{
closed = 1;
nodes = (
(452,0,l),
(459,28,l),
(41,28,l),
(34,0,l)
);
}
);
width = 600;
},
{
anchors = (
{
name = bottom;
pos = (241,0);
},
{
name = ogonek;
pos = (311,0);
},
{
name = top;
pos = (412,700);
}
);
background = {
shapes = (
{
closed = 1;
nodes = (
(332,50,l),
(480,650,l),
(319,650,l),
(171,50,l)
);
},
{
closed = 1;
nodes = (
(599,555,l),
(635,700,l),
(188,700,l),
(152,555,l)
);
},
{
closed = 1;
nodes = (
(463,0,l),
(499,145,l),
(52,145,l),
(16,0,l)
);
}
);
};
hints = (
{
horizontal = 1;
origin = (1,1);
target = (1,0);
type = Stem;
},
{
horizontal = 1;
origin = (2,0);
target = (2,1);
type = Stem;
}
);
layerId = "44520DEB-933F-4740-94E3-6BE30525566A";
shapes = (
{
closed = 1;
nodes = (
(332,50,l),
(480,650,l),
(319,650,l),
(171,50,l)
);
},
{
closed = 1;
nodes = (
(604,575,l),
(635,700,l),
(188,700,l),
(157,575,l)
);
},
{
closed = 1;
nodes = (
(463,0,l),
(494,125,l),
(47,125,l),
(16,0,l)
);
}
);
width = 600;
}
);
unicode = 73;
},
{
glyphname = J;
lastChange = "2025-07-26 22:08:03 +0000";
layers = (
{
anchors = (
{
name = top;
pos = (469,700);
}
);
layerId = "4138F7D5-0763-4B33-9A38-359ACF56B4CB";
shapes = (
{
closed = 1;
nodes = (
(293,0,ls),
(358,0,o),
(414,45,o),
(430,109,cs),
(575,700,l),
(271,700,l),
(264,672,l),
(551,672,l),
(542,685,l),
(403,118,ls),
(389,62,o),
(346,28,o),
(291,28,cs),
(49,28,l),
(42,0,l)
);
}
);
width = 600;
},
{
anchors = (
{
name = top;
pos = (474,700);
}
);
background = {
shapes = (
{
closed = 1;
nodes = (
(245,0,ls),
(401,0,o),
(465,57,o),
(499,194,cs),
(626,700,l),
(224,700,l),
(188,555,l),
(496,555,l),
(446,622,l),
(340,196,ls),
(332,167,o),
(305,145,o),
(276,145,cs),
(56,145,l),
(20,0,l)
);
}
);
};
hints = (
{
horizontal = 1;
origin = (0,5);
target = (0,6);
type = Stem;
},
{
horizontal = 1;
origin = (0,14);
target = (0,13);
type = Stem;
}
);
layerId = "44520DEB-933F-4740-94E3-6BE30525566A";
shapes = (
{
closed = 1;
nodes = (
(245,0,ls),
(401,0,o),
(465,57,o),
(499,194,cs),
(626,700,l),
(224,700,l),
(193,575,l),
(501,575,l),
(446,622,l),
(337,186,ls),
(330,157,o),
(302,135,o),
(273,135,cs),
(53,135,l),
(20,0,l)
);
}
);
width = 600;
}
);
unicode = 74;
},
{
glyphname = K;
kernLeft = H;
kernRight = K;
lastChange = "2025-07-26 22:08:10 +0000";
layers = (
{
anchors = (
{
name = bottom;
pos = (264,0);
},
{
name = top;
pos = (406,700);
}
);
layerId = "4138F7D5-0763-4B33-9A38-359ACF56B4CB";
shapes = (
{
closed = 1;
nodes = (
(646,700,l),
(606,700,l),
(126,256,l),
(116,211,l)
);
},
{
closed = 1;
nodes = (
(73,0,l),
(245,700,l),
(216,700,l),
(44,0,l)
);
},
{
closed = 1;
nodes = (
(497,0,l),
(302,402,l),
(280,381,l),
(464,0,l)
);
}
);
width = 600;
},
{
anchors = (
{
name = bottom;
pos = (247,0);
},
{
name = top;
pos = (427,700);
}
);
hints = (
{
horizontal = 1;
place = (0,21);
target = up;
type = BottomGhost;
},
{
horizontal = 1;
place = (700,-20);
target = down;
type = TopGhost;
}
);
layerId = "44520DEB-933F-4740-94E3-6BE30525566A";
shapes = (
{
closed = 1;
nodes = (
(696,700,l),
(526,700,l),
(148,303,l),
(106,87,l)
);
},
{
closed = 1;
nodes = (
(159,0,l),
(333,700,l),
(173,700,l),
(-1,0,l)
);
},
{
closed = 1;
nodes = (
(532,0,l),
(391,479,l),
(257,361,l),
(350,0,l)
);
}
);
width = 600;
},
{
anchors = (
{
name = bottom;
pos = (309,0);
},
{
name = top;
pos = (309,700);
}
);
associatedMasterId = "4138F7D5-0763-4B33-9A38-359ACF56B4CB";
layerId = "043D1448-2D4D-49F6-B558-F1ACFD85B896";
name = "3. Mai 25, 07:29";
shapes = (
{
closed = 1;
nodes = (
(549,700,l),
(513,700,l),
(115,224,l),
(117,184,l)
);
},
{
closed = 1;
nodes = (
(129,0,l),
(129,700,l),
(100,700,l),
(100,0,l)
);
},
{
closed = 1;
nodes = (
(576,0,l),
(282,402,l),
(261,381,l),
(539,0,l)
);
}
);
width = 584;
}
);
unicode = 75;
},
{
glyphname = L;
kernLeft = L;
kernRight = L;
lastChange = "2025-07-26 22:08:16 +0000";
layers = (
{
anchors = (
{
name = bottom;
pos = (278,0);
},
{
name = center;
pos = (210,351);
},
{
name = top;
pos = (268,700);
},
{
name = topright;
pos = (458,700);
}
);
background = {
shapes = (
{
closed = 1;
nodes = (
(464,0,l),
(471,29,l),
(195,29,ls),
(151,29,o),
(125,62,o),
(136,107,cs),
(282,700,l),
(253,700,l),
(106,103,ls),
(92,44,o),
(124,0,o),
(184,0,cs)
);
}
);
};
layerId = "4138F7D5-0763-4B33-9A38-359ACF56B4CB";
shapes = (
{
closed = 1;
nodes = (
(461,0,l),
(468,29,l),
(195,29,ls),
(148,29,o),
(124,64,o),
(137,117,cs),
(282,700,l),
(253,700,l),
(111,122,ls),
(93,48,o),
(130,0,o),
(194,0,cs)
);
}
);
width = 600;
},
{
anchors = (
{
name = bottom;
pos = (261,0);
},
{
name = center;
pos = (223,360);
},
{
name = top;
pos = (283,700);
},
{
name = topright;
pos = (452,700);
}
);
background = {
shapes = (
{
closed = 1;
nodes = (
(481,0,l),
(518,150,l),
(244,150,ls),
(233,150,o),
(226,159,o),
(229,170,cs),
(361,700,l),
(201,700,l),
(61,141,ls),
(42,65,o),
(92,0,o),
(169,0,cs)
);
}
);
};
hints = (
{
horizontal = 1;
place = (700,-20);
target = down;
type = TopGhost;
},
{
horizontal = 1;
origin = (0,0);
target = (0,1);
type = Stem;
}
);
layerId = "44520DEB-933F-4740-94E3-6BE30525566A";
shapes = (
{
closed = 1;
nodes = (
(481,0,l),
(514,135,l),
(240,135,ls),
(229,135,o),
(222,144,o),
(225,155,cs),
(361,700,l),
(201,700,l),
(61,141,ls),
(42,65,o),
(92,0,o),
(169,0,cs)
);
}
);
width = 600;
}
);
unicode = 76;
},
{
glyphname = M;
kernLeft = H;
kernRight = H;
lastChange = "2025-07-26 22:08:22 +0000";
layers = (
{
layerId = "4138F7D5-0763-4B33-9A38-359ACF56B4CB";
shapes = (
{
closed = 1;
nodes = (
(56,0,l),
(220,668,l),
(214,667,l),
(282,225,l),
(312,225,l),
(598,667,l),
(592,668,l),
(428,0,l),
(457,0,l),
(629,700,l),
(588,700,l),
(295,249,l),
(307,249,l),
(235,700,l),
(199,700,l),
(27,0,l)
);
}
);
width = 600;
},
{
hints = (
{
horizontal = 1;
place = (0,21);
target = up;
type = BottomGhost;
},
{
horizontal = 1;
place = (700,-20);
target = down;
type = TopGhost;
}
);
layerId = "44520DEB-933F-4740-94E3-6BE30525566A";
shapes = (
{
closed = 1;
nodes = (
(118,0,l),
(275,627,l),
(247,627,l),
(248,230,l),
(345,230,l),
(544,627,l),
(516,627,l),
(359,0,l),
(495,0,l),
(670,700,l),
(468,700,l),
(307,369,l),
(342,369,l),
(345,700,l),
(157,700,l),
(-18,0,l)
);
}
);
width = 600;
}
);
unicode = 77;
},
{
glyphname = N;
kernLeft = H;
kernRight = H;
lastChange = "2025-07-26 22:08:24 +0000";
layers = (
{
anchors = (
{
name = bottom;
pos = (244,0);
},
{
name = top;
pos = (415,700);
}
);
layerId = "4138F7D5-0763-4B33-9A38-359ACF56B4CB";
shapes = (
{
closed = 1;
nodes = (
(64,0,l),
(226,663,l),
(218,661,l),
(421,0,l),
(451,0,l),
(622,700,l),
(593,700,l),
(430,36,l),
(438,39,l),
(235,700,l),
(206,700,l),
(35,0,l)
);
}
);
width = 600;
},
{
anchors = (
{
name = bottom;
pos = (239,0);
},
{
name = top;
pos = (413,700);
}
);
hints = (
{
horizontal = 1;
place = (0,21);
target = up;
type = BottomGhost;
},
{
horizontal = 1;
place = (700,-20);
target = down;
type = TopGhost;
}
);
layerId = "44520DEB-933F-4740-94E3-6BE30525566A";
shapes = (
{
closed = 1;
nodes = (
(144,0,l),
(274,521,l),
(218,510,l),
(355,0,l),
(484,0,l),
(658,700,l),
(508,700,l),
(377,172,l),
(438,183,l),
(301,700,l),
(168,700,l),
(-6,0,l)
);
}
);
width = 600;
},
{
anchors = (
{
name = bottom;
pos = (296,0);
},
{
name = top;
pos = (468,700);
}
);
associatedMasterId = "44520DEB-933F-4740-94E3-6BE30525566A";
hints = (
{
horizontal = 1;
origin = (0,11);
target = up;
type = BottomGhost;
},
{
horizontal = 1;
origin = (0,10);
target = down;
type = TopGhost;
},
{
origin = (0,11);
target = (0,1);
type = Stem;
},
{
origin = (0,5);
target = (0,7);
type = Stem;
}
);
layerId = "FD5DE8B0-2059-48BA-84F9-8EED9B7E5A7A";
name = "27. Juni 25, 15:03";
shapes = (
{
closed = 1;
nodes = (
(171,0,l),
(299,521,l),
(248,510,l),
(442,0,l),
(581,0,l),
(753,700,l),
(593,700,l),
(463,172,l),
(520,183,l),
(326,700,l),
(183,700,l),
(11,0,l)
);
}
);
width = 600;
}
);
unicode = 78;
},
{
glyphname = Eng;
kernLeft = H;
kernRight = H;
lastChange = "2025-07-26 22:08:32 +0000";
layers = (
{
layerId = "4138F7D5-0763-4B33-9A38-359ACF56B4CB";
shapes = (
{
closed = 1;
nodes = (
(446,45,l),
(236,700,l),
(206,700,l),
(34,0,l),
(63,0,l),
(227,669,l),
(219,666,l),
(435,-6,l)
);
},
{
closed = 1;
nodes = (
(295,-200,ls),
(359,-200,o),
(411,-159,o),
(426,-97,cs),
(622,700,l),
(593,700,l),
(398,-92,ls),
(387,-138,o),
(344,-172,o),
(298,-172,cs),
(221,-172,l),
(214,-200,l)
);
}
);
width = 600;
},
{
background = {
shapes = (
{
closed = 1;
nodes = (
(428,219,l),
(300,700,l),
(168,700,l),
(-6,0,l),
(144,0,l),
(270,508,l),
(222,497,l),
(364,-34,l)
);
},
{
closed = 1;
nodes = (
(233,-200,ls),
(371,-200,o),
(450,-134,o),
(487,12,cs),
(658,700,l),
(507,700,l),
(332,-4,ls),
(324,-36,o),
(303,-55,o),
(275,-55,cs),
(185,-55,l),
(149,-200,l)
);
}
);
};
hints = (
{
horizontal = 1;
place = (-200,130);
target = (1,10);
type = Stem;
},
{
horizontal = 1;
place = (0,21);
target = up;
type = BottomGhost;
},
{
horizontal = 1;
place = (700,-20);
target = down;
type = TopGhost;
}
);
layerId = "44520DEB-933F-4740-94E3-6BE30525566A";
shapes = (
{
closed = 1;
nodes = (
(428,219,l),
(300,700,l),
(168,700,l),
(-6,0,l),
(144,0,l),
(270,508,l),
(222,497,l),
(364,-34,l)
);
},
{
closed = 1;
nodes = (
(233,-200,ls),
(371,-200,o),
(450,-134,o),
(487,12,cs),
(658,700,l),
(507,700,l),
(328,-19,ls),
(320,-51,o),
(299,-70,o),
(271,-70,cs),
(181,-70,l),
(149,-200,l)
);
}
);
width = 600;
}
);
unicode = 330;
},
{
glyphname = O;
kernLeft = O;
kernRight = O;
lastChange = "2025-07-26 22:08:38 +0000";
layers = (
{
anchors = (
{
name = bottom;
pos = (236,0);
},
{
name = center;
pos = (326,350);
},
{
name = tail.Q;
pos = (230,0);
},
{
name = top;
pos = (412,700);
},
{
name = topright;
pos = (473,700);
}
);
hints = (
{
horizontal = 1;
place = (-14,136);
target = (1,11);
type = Stem;
},
{
horizontal = 1;
origin = (1,5);
target = (0,5);
type = Stem;
}
);
layerId = "44520DEB-933F-4740-94E3-6BE30525566A";
shapes = (
{
closed = 1;
nodes = (
(454,-13,o),
(609,199,o),
(609,480,cs),
(609,627,o),
(538,714,o),
(411,714,cs),
(203,714,o),
(45,481,o),
(45,227,cs),
(45,76,o),
(120,-13,o),
(246,-13,cs)
);
},
{
closed = 1;
nodes = (
(228,122,o),
(204,150,o),
(204,212,cs),
(204,380,o),
(290,578,o),
(384,578,cs),
(425,578,o),
(450,550,o),
(450,489,cs),
(450,321,o),
(364,122,o),
(270,122,cs)
);
}
);
width = 600;
},
{
anchors = (
{
name = center;
pos = (387,350);
},
{
name = tail.Q;
pos = (387,0);
},
{
name = top;
pos = (387,700);
},
{
name = topright;
pos = (449,700);
}
);
associatedMasterId = "4138F7D5-0763-4B33-9A38-359ACF56B4CB";
layerId = "9B04D9C4-91C1-4868-9E47-6341CC50BB24";
name = "30. Apr. 25, 13:52";
shapes = (
{
closed = 1;
nodes = (
(580,-10,o),
(716,138,o),
(716,350,cs),
(716,360,ls),
(716,566,o),
(580,710,o),
(387,710,cs),
(194,710,o),
(58,566,o),
(58,360,cs),
(58,350,ls),
(58,138,o),
(194,-10,o),
(387,-10,cs)
);
},
{
closed = 1;
nodes = (
(212,19,o),
(88,154,o),
(88,350,cs),
(88,360,ls),
(88,549,o),
(212,681,o),
(387,681,cs),
(562,681,o),
(686,549,o),
(686,360,cs),
(686,350,ls),
(686,154,o),
(562,19,o),
(387,19,cs)
);
}
);
width = 600;
},
{
anchors = (
{
name = center;
pos = (387,350);
},
{
name = tail.Q;
pos = (301,0);
},
{
name = top;
pos = (473,700);
},
{
name = topright;
pos = (535,700);
}
);
associatedMasterId = "4138F7D5-0763-4B33-9A38-359ACF56B4CB";
layerId = "34DA7124-3140-46DB-B7B7-285B7CB335F7";
name = "30. Apr. 25, 13:56";
shapes = (
{
closed = 1;
nodes = (
(169,-10,o),
(341,-10,cs),
(576,-10,o),
(724,216,o),
(724,419,cs),
(724,596,o),
(608,710,o),
(439,710,cs),
(228,710,o),
(53,522,o),
(53,295,cs),
(53,105,o)
);
},
{
closed = 1;
nodes = (
(82,133,o),
(82,295,cs),
(82,503,o),
(242,681,o),
(439,681,cs),
(593,681,o),
(694,579,o),
(694,419,cs),
(694,226,o),
(552,19,o),
(342,19,cs),
(179,19,o)
);
}
);
width = 600;
},
{
anchors = (
{
name = center;
pos = (387,350);
},
{
name = tail.Q;
pos = (387,0);
},
{
name = top;
pos = (387,700);
},
{
name = topright;
pos = (449,700);
}
);
associatedMasterId = "44520DEB-933F-4740-94E3-6BE30525566A";
hints = (
{
horizontal = 1;
origin = (0,13);
target = (1,13);
type = Stem;
},
{
horizontal = 1;
origin = (0,6);
target = (1,6);
type = Stem;
},
{
origin = (0,10);
target = (1,3);
type = Stem;
},
{
origin = (1,10);
target = (0,3);
type = Stem;
}
);
layerId = "F5487A77-6ED0-4C74-9006-3A7DE6FC516C";
name = "4. Mai 25, 22:20";
shapes = (
{
closed = 1;
nodes = (
(587,-15,o),
(737,130,o),
(737,346,cs),
(737,353,ls),
(737,570,o),
(587,715,o),
(387,715,cs),
(187,715,o),
(36,570,o),
(36,353,cs),
(36,346,ls),
(36,130,o),
(187,-15,o),
(387,-15,cs)
);
},
{
closed = 1;
nodes = (
(278,141,o),
(200,216,o),
(200,346,cs),
(200,353,ls),
(200,483,o),
(278,559,o),
(387,559,cs),
(495,559,o),
(573,483,o),
(573,353,cs),
(573,346,ls),
(573,216,o),
(495,141,o),
(387,141,cs)
);
}
);
width = 600;
},
{
anchors = (
{
name = center;
pos = (329,350);
},
{
name = tail.Q;
pos = (244,0);
},
{
name = top;
pos = (415,700);
},
{
name = topright;
pos = (475,700);
}
);
associatedMasterId = "4138F7D5-0763-4B33-9A38-359ACF56B4CB";
layerId = "38136416-DCC4-4453-8960-19666C9C5E78";
name = "27. Juni 25, 09:13";
shapes = (
{
closed = 1;
nodes = (
(439,-9,o),
(584,219,o),
(584,487,cs),
(584,627,o),
(518,709,o),
(401,709,cs),
(208,709,o),
(73,478,o),
(73,206,cs),
(73,74,o),
(137,-9,o),
(258,-9,cs)
);
},
{
closed = 1;
nodes = (
(102,94,o),
(102,211,cs),
(102,464,o),
(223,680,o),
(400,680,cs),
(499,680,o),
(555,607,o),
(555,482,cs),
(555,233,o),
(424,20,o),
(260,20,cs),
(156,20,o)
);
}
);
width = 600;
},
{
anchors = (
{
name = bottom;
pos = (247,0);
},
{
name = center;
pos = (329,350);
},
{
name = tail.Q;
pos = (244,0);
},
{
name = top;
pos = (415,700);
},
{
name = topright;
pos = (475,700);
}
);
layerId = "4138F7D5-0763-4B33-9A38-359ACF56B4CB";
name = "Thin Italic";
shapes = (
{
closed = 1;
nodes = (
(429,-9,o),
(574,219,o),
(574,487,cs),
(574,627,o),
(510,709,o),
(403,709,cs),
(220,709,o),
(83,478,o),
(83,206,cs),
(83,74,o),
(147,-9,o),
(256,-9,cs)
);
},
{
closed = 1;
nodes = (
(164,20,o),
(112,94,o),
(112,211,cs),
(112,464,o),
(233,680,o),
(400,680,cs),
(489,680,o),
(545,607,o),
(545,482,cs),
(545,233,o),
(412,20,o),
(258,20,cs)
);
}
);
width = 600;
},
{
anchors = (
{
name = bottom;
pos = (236,0);
},
{
name = center;
pos = (326,350);
},
{
name = tail.Q;
pos = (240,0);
},
{
name = top;
pos = (412,700);
},
{
name = topright;
pos = (473,700);
}
);
associatedMasterId = "44520DEB-933F-4740-94E3-6BE30525566A";
layerId = "DCCEC658-4A0E-4167-918D-839FDE5CECE9";
name = "30. Juni 25, 12:18";
shapes = (
{
closed = 1;
nodes = (
(459,-13,o),
(609,199,o),
(609,480,cs),
(609,628,o),
(529,714,o),
(392,714,cs),
(194,714,o),
(45,501,o),
(45,227,cs),
(45,72,o),
(125,-13,o),
(261,-13,cs)
);
},
{
closed = 1;
nodes = (
(234,142,o),
(208,173,o),
(208,243,cs),
(208,409,o),
(284,558,o),
(373,558,cs),
(420,558,o),
(446,527,o),
(446,458,cs),
(446,292,o),
(370,142,o),
(280,142,cs)
);
}
);
width = 600;
}
);
unicode = 79;
},
{
color = 8;
glyphname = Ohorn;
kernLeft = O;
kernRight = Ohorn;
lastChange = "2025-07-26 22:18:58 +0000";
layers = (
{
anchors = (
{
name = bottom;
pos = (231,0);
},
{
name = top;
pos = (422,700);
}
);
layerId = "4138F7D5-0763-4B33-9A38-359ACF56B4CB";
shapes = (
{
closed = 1;
nodes = (
(429,-9,o),
(574,219,o),
(574,487,cs),
(574,563,o),
(553,620,o),
(517,659,c),
(505,657,l),
(511,655,o),
(520,653,o),
(527,653,cs),
(588,653,o),
(627,708,o),
(638,788,c),
(609,788,l),
(599,719,o),
(575,680,o),
(529,680,cs),
(490,680,o),
(467,709,o),
(401,709,cs),
(218,709,o),
(83,478,o),
(83,206,cs),
(83,74,o),
(147,-9,o),
(258,-9,cs)
);
},
{
closed = 1;
nodes = (
(164,20,o),
(112,94,o),
(112,211,cs),
(112,464,o),
(233,680,o),
(400,680,cs),
(489,680,o),
(545,607,o),
(545,482,cs),
(545,233,o),
(412,20,o),
(258,20,cs)
);
}
);
width = 600;
},
{
associatedMasterId = "4138F7D5-0763-4B33-9A38-359ACF56B4CB";
layerId = "BDC0B26C-C59F-4FA2-A588-B4FED1DD5336";
name = "16. Apr. 25, 12:19";
shapes = (
{
ref = O;
},
{
pos = (175,0);
ref = horncomb.case;
}
);
width = 600;
},
{
anchors = (
{
name = bottom;
pos = (245,0);
},
{
name = top;
pos = (385,700);
}
);
background = {
shapes = (
{
closed = 1;
nodes = (
(459,-13,o),
(609,199,o),
(609,480,cs),
(609,627,o),
(529,714,o),
(402,714,cs),
(194,714,o),
(45,481,o),
(45,227,cs),
(45,76,o),
(125,-13,o),
(251,-13,cs)
);
},
{
closed = 1;
nodes = (
(228,122,o),
(204,150,o),
(204,212,cs),
(204,380,o),
(290,578,o),
(384,578,cs),
(425,578,o),
(450,550,o),
(450,489,cs),
(450,321,o),
(364,122,o),
(270,122,cs)
);
}
);
};
hints = (
{
horizontal = 1;
place = (-14,136);
target = (1,11);
type = Stem;
},
{
horizontal = 1;
origin = (1,5);
target = (0,19);
type = Stem;
}
);
layerId = "44520DEB-933F-4740-94E3-6BE30525566A";
shapes = (
{
closed = 1;
nodes = (
(463,-13,o),
(608,198,o),
(608,481,cs),
(608,538,o),
(592,583,o),
(551,617,c),
(534,579,l),
(547,575,o),
(560,573,o),
(567,573,cs),
(656,573,o),
(719,660,o),
(721,788,c),
(596,788,l),
(596,732,o),
(590,680,o),
(546,680,cs),
(502,680,o),
(490,715,o),
(393,715,cs),
(196,715,o),
(45,502,o),
(45,220,cs),
(45,56,o),
(140,-13,o),
(252,-13,cs)
);
},
{
closed = 1;
nodes = (
(228,122,o),
(204,150,o),
(204,212,cs),
(204,380,o),
(290,578,o),
(383,578,cs),
(425,578,o),
(450,550,o),
(450,489,cs),
(450,321,o),
(364,122,o),
(272,122,cs)
);
}
);
width = 600;
},
{
associatedMasterId = "44520DEB-933F-4740-94E3-6BE30525566A";
layerId = "728045B3-3F9B-4029-9DD9-8A37E270E87B";
name = "16. Apr. 25, 12:19";
shapes = (
{
ref = O;
},
{
pos = (173,0);
ref = horncomb.case;
}
);
width = 600;
}
);
unicode = 416;
},
{
glyphname = OE;
kernRight = E;
lastChange = "2025-07-26 22:19:08 +0000";
layers = (
{
background = {
shapes = (
{
closed = 1;
nodes = (
(459,-28,l),
(466,0,l),
(232,29,ls),
(93,47,o),
(32,148,o),
(89,383,cs),
(145,609,o),
(250,686,o),
(389,668,cs),
(623,639,l),
(629,667,l),
(396,696,ls),
(236,716,o),
(120,632,o),
(60,386,cs),
(-3,132,o),
(66,21,o),
(225,1,cs)
);
},
{
closed = 1;
nodes = (
(277,8,l),
(441,676,l),
(413,680,l),
(249,12,l)
);
},
{
closed = 1;
nodes = (
(520,308,l),
(527,336,l),
(349,358,l),
(342,331,l)
);
}
);
};
layerId = "4138F7D5-0763-4B33-9A38-359ACF56B4CB";
shapes = (
{
closed = 1;
nodes = (
(493,0,l),
(500,28,l),
(257,28,ls),
(160,28,o),
(95,102,o),
(95,214,cs),
(95,372,o),
(161,672,o),
(411,672,cs),
(658,672,l),
(665,700,l),
(426,700,ls),
(135,700,o),
(66,392,o),
(66,212,cs),
(66,85,o),
(141,0,o),
(254,0,cs)
);
},
{
closed = 1;
nodes = (
(307,13,l),
(473,686,l),
(444,686,l),
(278,13,l)
);
},
{
closed = 1;
nodes = (
(555,336,l),
(561,364,l),
(379,364,l),
(373,336,l)
);
}
);
width = 600;
},
{
background = {
shapes = (
{
closed = 1;
nodes = (
(522,0,l),
(558,145,l),
(275,145,ls),
(212,145,o),
(179,189,o),
(179,269,cs),
(179,441,o),
(258,555,o),
(377,555,cs),
(660,555,l),
(696,700,l),
(401,700,ls),
(175,700,o),
(24,517,o),
(24,243,cs),
(24,97,o),
(113,0,o),
(247,0,cs)
);
},
{
closed = 1;
nodes = (
(385,57,l),
(529,634,l),
(379,634,l),
(235,57,l)
);
},
{
closed = 1;
nodes = (
(571,283,l),
(606,421,l),
(404,421,l),
(369,283,l)
);
}
);
};
hints = (
{
horizontal = 1;
origin = (0,8);
target = (0,11);
type = Stem;
},
{
horizontal = 1;
origin = (0,0);
target = (0,1);
type = Stem;
},
{
horizontal = 1;
origin = (2,0);
target = (2,1);
type = Stem;
}
);
layerId = "44520DEB-933F-4740-94E3-6BE30525566A";
shapes = (
{
closed = 1;
nodes = (
(522,0,l),
(556,135,l),
(273,135,ls),
(210,135,o),
(179,189,o),
(179,269,cs),
(179,441,o),
(261,565,o),
(380,565,cs),
(663,565,l),
(696,700,l),
(421,700,ls),
(175,700,o),
(24,517,o),
(24,243,cs),
(24,97,o),
(123,0,o),
(267,0,cs)
);
},
{
closed = 1;
nodes = (
(385,57,l),
(529,634,l),
(379,634,l),
(235,57,l)
);
},
{
closed = 1;
nodes = (
(573,288,l),
(604,416,l),
(402,416,l),
(371,288,l)
);
}
);
width = 600;
}
);
unicode = 338;
},
{
glyphname = P;
kernLeft = H;
lastChange = "2025-07-26 22:19:17 +0000";
layers = (
{
background = {
shapes = (
{
closed = 1;
nodes = (
(73,0,l),
(241,685,l),
(225,672,l),
(420,672,ls),
(528,672,o),
(591,610,o),
(565,503,cs),
(538,396,o),
(445,333,o),
(337,333,cs),
(140,333,l),
(133,306,l),
(329,306,ls),
(456,306,o),
(563,378,o),
(594,503,cs),
(624,628,o),
(553,700,o),
(426,700,cs),
(216,700,l),
(44,0,l)
);
}
);
};
layerId = "4138F7D5-0763-4B33-9A38-359ACF56B4CB";
shapes = (
{
closed = 1;
nodes = (
(73,0,l),
(241,685,l),
(225,672,l),
(389,672,ls),
(498,672,o),
(560,610,o),
(560,527,cs),
(560,409,o),
(484,333,o),
(332,333,cs),
(140,333,l),
(133,306,l),
(329,306,ls),
(496,306,o),
(588,391,o),
(588,528,cs),
(588,626,o),
(513,700,o),
(394,700,cs),
(216,700,l),
(44,0,l)
);
}
);
width = 600;
},
{
hints = (
{
horizontal = 1;
origin = (0,20);
target = up;
type = BottomGhost;
},
{
horizontal = 1;
origin = (0,12);
target = (0,10);
type = Stem;
},
{
horizontal = 1;
origin = (0,19);
target = (0,3);
type = Stem;
}
);
layerId = "44520DEB-933F-4740-94E3-6BE30525566A";
shapes = (
{
closed = 1;
nodes = (
(171,0,l),
(325,626,l),
(244,575,l),
(379,575,ls),
(436,575,o),
(465,535,o),
(465,478,cs),
(465,420,o),
(416,366,o),
(351,366,cs),
(177,366,l),
(145,244,l),
(342,244,ls),
(546,244,o),
(623,371,o),
(623,490,cs),
(623,629,o),
(540,700,o),
(380,700,cs),
(183,700,l),
(11,0,l)
);
}
);
width = 600;
}
);
unicode = 80;
},
{
glyphname = Thorn;
kernLeft = H;
lastChange = "2025-07-26 22:19:24 +0000";
layers = (
{
layerId = "4138F7D5-0763-4B33-9A38-359ACF56B4CB";
shapes = (
{
closed = 1;
nodes = (
(296,153,ls),
(448,153,o),
(550,240,o),
(550,371,cs),
(550,476,o),
(478,547,o),
(364,547,cs),
(192,547,l),
(186,520,l),
(359,520,ls),
(458,520,o),
(521,463,o),
(521,371,cs),
(521,256,o),
(434,180,o),
(303,180,cs),
(102,180,l),
(96,153,l)
);
},
{
closed = 1;
nodes = (
(73,0,l),
(245,700,l),
(216,700,l),
(44,0,l)
);
}
);
width = 600;
},
{
hints = (
{
horizontal = 1;
origin = (1,3);
target = up;
type = BottomGhost;
},
{
horizontal = 1;
origin = (0,17);
target = (0,16);
type = Stem;
},
{
horizontal = 1;
origin = (0,9);
target = (0,7);
type = Stem;
},
{
horizontal = 1;
origin = (1,2);
target = down;
type = TopGhost;
}
);
layerId = "44520DEB-933F-4740-94E3-6BE30525566A";
shapes = (
{
closed = 1;
nodes = (
(300,122,ls),
(480,122,o),
(593,221,o),
(593,370,cs),
(593,500,o),
(504,578,o),
(360,578,cs),
(201,578,l),
(168,453,l),
(344,453,ls),
(403,453,o),
(435,413,o),
(435,359,cs),
(435,294,o),
(390,244,o),
(318,244,cs),
(121,244,l),
(89,122,l)
);
},
{
closed = 1;
nodes = (
(171,0,l),
(343,700,l),
(183,700,l),
(11,0,l)
);
}
);
width = 600;
}
);
unicode = 222;
},
{
glyphname = R;
kernLeft = H;
kernRight = R;
lastChange = "2025-07-26 22:19:36 +0000";
layers = (
{
anchors = (
{
name = bottom;
pos = (250,0);
},
{
name = top;
pos = (389,700);
}
);
background = {
shapes = (
{
closed = 1;
nodes = (
(73,0,l),
(241,685,l),
(225,672,l),
(406,672,ls),
(521,672,o),
(584,617,o),
(556,506,cs),
(527,386,o),
(440,342,o),
(325,342,cs),
(142,342,l),
(135,314,l),
(318,314,ls),
(451,314,o),
(552,368,o),
(586,506,cs),
(618,635,o),
(546,700,o),
(413,700,cs),
(216,700,l),
(44,0,l)
);
},
{
closed = 1;
nodes = (
(483,0,l),
(331,327,l),
(294,327,l),
(446,0,l)
);
}
);
};
layerId = "4138F7D5-0763-4B33-9A38-359ACF56B4CB";
shapes = (
{
closed = 1;
nodes = (
(73,0,l),
(241,685,l),
(225,672,l),
(384,672,ls),
(486,672,o),
(552,610,o),
(552,520,cs),
(552,396,o),
(450,342,o),
(323,342,cs),
(142,342,l),
(135,314,l),
(316,314,ls),
(470,314,o),
(582,382,o),
(582,524,cs),
(582,627,o),
(503,700,o),
(381,700,cs),
(216,700,l),
(44,0,l)
);
},
{
closed = 1;
nodes = (
(481,0,l),
(329,327,l),
(295,327,l),
(447,0,l)
);
}
);
width = 600;
},
{
anchors = (
{
name = bottom;
pos = (248,0);
},
{
name = top;
pos = (407,700);
}
);
hints = (
{
horizontal = 1;
origin = (1,3);
target = up;
type = BottomGhost;
},
{
horizontal = 1;
origin = (0,12);
target = (0,10);
type = Stem;
},
{
horizontal = 1;
origin = (0,19);
target = (0,3);
type = Stem;
}
);
layerId = "44520DEB-933F-4740-94E3-6BE30525566A";
shapes = (
{
closed = 1;
nodes = (
(171,0,l),
(325,626,l),
(244,576,l),
(365,576,ls),
(440,576,o),
(469,525,o),
(469,479,cs),
(469,408,o),
(421,360,o),
(338,360,cs),
(175,360,l),
(142,237,l),
(353,237,ls),
(524,237,o),
(634,331,o),
(634,499,cs),
(634,614,o),
(551,700,o),
(380,700,cs),
(183,700,l),
(11,0,l)
);
},
{
closed = 1;
nodes = (
(540,0,l),
(452,306,l),
(296,306,l),
(366,0,l)
);
}
);
width = 600;
}
);
unicode = 82;
},
{
glyphname = S;
kernLeft = S;
kernRight = S;
lastChange = "2025-07-26 22:19:45 +0000";
layers = (
{
anchors = (
{
name = bottom;
pos = (250,0);
},
{
name = top;
pos = (398,700);
}
);
background = {
shapes = (
{
closed = 1;
nodes = (
(330,-10,o),
(439,64,o),
(469,187,cs),
(532,442,o),
(114,307,o),
(167,523,cs),
(191,618,o),
(281,683,o),
(395,683,cs),
(459,683,o),
(504,663,o),
(532,625,c),
(556,646,l),
(528,687,o),
(475,710,o),
(402,710,cs),
(270,710,o),
(166,635,o),
(138,520,cs),
(79,280,o),
(494,410,o),
(438,184,cs),
(414,84,o),
(323,17,o),
(206,17,cs),
(128,17,o),
(70,47,o),
(41,100,c),
(16,79,l),
(47,23,o),
(111,-10,o),
(199,-10,cs)
);
}
);
};
layerId = "4138F7D5-0763-4B33-9A38-359ACF56B4CB";
shapes = (
{
closed = 1;
nodes = (
(400,-10,o),
(494,68,o),
(494,187,cs),
(494,394,o),
(196,341,o),
(196,521,cs),
(196,618,o),
(275,683,o),
(394,683,cs),
(459,683,o),
(516,661,o),
(550,625,c),
(572,644,l),
(535,686,o),
(470,710,o),
(397,710,cs),
(258,710,o),
(166,631,o),
(166,518,cs),
(166,321,o),
(465,369,o),
(465,184,cs),
(465,84,o),
(385,17,o),
(264,17,cs),
(189,17,o),
(112,47,o),
(77,100,c),
(54,81,l),
(96,22,o),
(174,-10,o),
(260,-10,cs)
);
}
);
width = 600;
},
{
anchors = (
{
name = bottom;
pos = (231,0);
},
{
name = top;
pos = (414,700);
}
);
hints = (
{
horizontal = 1;
origin = (0,31);
target = (0,24);
type = Stem;
},
{
horizontal = 1;
origin = (0,15);
target = (0,8);
type = Stem;
}
);
layerId = "44520DEB-933F-4740-94E3-6BE30525566A";
shapes = (
{
closed = 1;
nodes = (
(426,-15,o),
(538,82,o),
(538,218,cs),
(538,437,o),
(269,393,o),
(269,510,cs),
(269,557,o),
(305,585,o),
(361,585,cs),
(407,585,o),
(450,564,o),
(489,511,c),
(608,605,l),
(561,668,o),
(472,715,o),
(367,715,cs),
(215,715,o),
(109,623,o),
(109,487,cs),
(109,272,o),
(375,310,o),
(375,193,cs),
(375,143,o),
(333,115,o),
(275,115,cs),
(228,115,o),
(170,139,o),
(122,196,c),
(3,108,l),
(60,33,o),
(157,-15,o),
(265,-15,cs)
);
}
);
width = 600;
},
{
anchors = (
{
name = bottom;
pos = (253,0);
},
{
name = top;
pos = (288,700);
}
);
associatedMasterId = "4138F7D5-0763-4B33-9A38-359ACF56B4CB";
layerId = "4BC94F1C-008F-4237-8BA2-BA7D33BD40CE";
name = "3. Mai 25, 07:43";
shapes = (
{
closed = 1;
nodes = (
(384,-10,o),
(475,64,o),
(475,187,cs),
(475,442,o),
(91,307,o),
(91,523,cs),
(91,618,o),
(165,683,o),
(279,683,cs),
(343,683,o),
(393,663,o),
(430,625,c),
(449,646,l),
(411,687,o),
(353,710,o),
(280,710,cs),
(148,710,o),
(62,635,o),
(62,520,cs),
(62,280,o),
(445,410,o),
(445,184,cs),
(445,84,o),
(371,17,o),
(254,17,cs),
(176,17,o),
(110,47,o),
(68,100,c),
(49,79,l),
(93,23,o),
(165,-10,o),
(253,-10,cs)
);
}
);
width = 600;
}
);
unicode = 83;
},
{
glyphname = Germandbls;
lastChange = "2025-07-26 22:19:50 +0000";
layers = (
{
background = {
shapes = (
{
closed = 1;
nodes = (
(412,-29,o),
(509,40,o),
(536,150,cs),
(557,237,o),
(518,313,o),
(456,351,c),
(453,339,l),
(607,531,l),
(583,633,o),
(522,694,o),
(413,708,cs),
(271,725,o),
(145,643,o),
(106,483,cs),
(-4,34,l),
(23,30,l),
(133,480,ls),
(168,622,o),
(281,696,o),
(406,680,cs),
(502,668,o),
(554,613,o),
(576,520,c),
(581,541,l),
(422,341,l),
(487,305,o),
(528,233,o),
(509,155,cs),
(486,60,o),
(403,2,o),
(298,15,cs),
(251,21,o),
(205,41,o),
(176,71,c),
(158,49,l),
(185,21,o),
(236,-7,o),
(295,-14,cs)
);
}
);
};
layerId = "4138F7D5-0763-4B33-9A38-359ACF56B4CB";
shapes = (
{
closed = 1;
nodes = (
(446,-10,o),
(536,77,o),
(536,202,cs),
(536,278,o),
(501,335,o),
(446,366,c),
(452,354,l),
(608,549,l),
(585,653,o),
(500,710,o),
(396,710,cs),
(266,710,o),
(179,623,o),
(137,453,cs),
(26,0,l),
(54,0,l),
(165,453,ls),
(202,604,o),
(280,682,o),
(395,682,cs),
(488,682,o),
(561,631,o),
(580,536,c),
(580,558,l),
(416,352,l),
(469,331,o),
(506,273,o),
(506,200,cs),
(506,93,o),
(431,19,o),
(322,19,cs),
(265,19,o),
(220,40,o),
(189,70,c),
(170,46,l),
(199,19,o),
(250,-10,o),
(320,-10,cs)
);
}
);
width = 600;
},
{
background = {
shapes = (
{
closed = 1;
nodes = (
(479,-10,o),
(573,78,o),
(573,211,cs),
(573,269,o),
(544,326,o),
(499,353,c),
(489,287,l),
(653,518,l),
(608,648,o),
(522,715,o),
(396,715,cs),
(234,715,o),
(136,612,o),
(101,469,cs),
(-14,0,l),
(146,0,l),
(254,442,ls),
(274,524,o),
(312,567,o),
(379,567,cs),
(421,567,o),
(463,538,o),
(477,483,c),
(485,545,l),
(328,315,l),
(389,284,o),
(415,253,o),
(415,214,cs),
(415,169,o),
(382,138,o),
(338,138,cs),
(310,138,o),
(277,150,o),
(253,168,c),
(177,39,l),
(213,10,o),
(266,-10,o),
(335,-10,cs)
);
}
);
};
hints = (
{
horizontal = 1;
origin = (0,37);
target = (0,30);
type = Stem;
},
{
horizontal = 1;
origin = (0,10);
target = (0,19);
type = Stem;
}
);
layerId = "44520DEB-933F-4740-94E3-6BE30525566A";
shapes = (
{
closed = 1;
nodes = (
(479,-10,o),
(573,78,o),
(573,211,cs),
(573,269,o),
(544,326,o),
(499,353,c),
(479,287,l),
(653,518,l),
(608,648,o),
(522,715,o),
(396,715,cs),
(234,715,o),
(136,612,o),
(101,469,cs),
(-14,0,l),
(146,0,l),
(257,454,ls),
(277,536,o),
(315,579,o),
(382,579,cs),
(424,579,o),
(466,550,o),
(480,495,c),
(495,545,l),
(328,315,l),
(389,284,o),
(415,247,o),
(415,208,cs),
(415,153,o),
(382,128,o),
(338,128,cs),
(308,128,o),
(273,142,o),
(249,161,c),
(177,39,l),
(213,10,o),
(266,-10,o),
(335,-10,cs)
);
}
);
width = 600;
}
);
unicode = 7838;
},
{
glyphname = T;
kernLeft = T;
kernRight = T;
lastChange = "2025-07-26 22:19:54 +0000";
layers = (
{
anchors = (
{
name = bottom;
pos = (241,0);
},
{
name = center;
pos = (334,368);
},
{
name = top;
pos = (416,700);
}
);
layerId = "4138F7D5-0763-4B33-9A38-359ACF56B4CB";
shapes = (
{
closed = 1;
nodes = (
(259,0,l),
(428,686,l),
(398,686,l),
(229,0,l)
);
},
{
closed = 1;
nodes = (
(652,672,l),
(659,700,l),
(173,700,l),
(166,672,l)
);
}
);
width = 600;
},
{
anchors = (
{
name = bottom;
pos = (240,0);
},
{
name = center;
pos = (323,338);
},
{
name = top;
pos = (413,700);
}
);
background = {
shapes = (
{
closed = 1;
nodes = (
(320,0,l),
(475,633,l),
(314,633,l),
(159,0,l)
);
},
{
closed = 1;
nodes = (
(647,555,l),
(683,700,l),
(143,700,l),
(107,555,l)
);
}
);
};
hints = (
{
horizontal = 1;
origin = (0,3);
target = up;
type = BottomGhost;
},
{
horizontal = 1;
origin = (1,2);
target = (1,3);
type = Stem;
}
);
layerId = "44520DEB-933F-4740-94E3-6BE30525566A";
shapes = (
{
closed = 1;
nodes = (
(320,0,l),
(475,633,l),
(314,633,l),
(159,0,l)
);
},
{
closed = 1;
nodes = (
(649,565,l),
(683,700,l),
(143,700,l),
(109,565,l)
);
}
);
width = 600;
}
);
unicode = 84;
},
{
glyphname = Tbar;
kernLeft = T;
kernRight = T;
lastChange = "2025-07-26 22:20:13 +0000";
layers = (
{
layerId = "4138F7D5-0763-4B33-9A38-359ACF56B4CB";
shapes = (
{
closed = 1;
nodes = (
(257,0,l),
(428,686,l),
(398,686,l),
(227,0,l)
);
},
{
closed = 1;
nodes = (
(496,354,l),
(503,381,l),
(171,381,l),
(164,354,l)
);
},
{
closed = 1;
nodes = (
(652,672,l),
(659,700,l),
(173,700,l),
(166,672,l)
);
}
);
width = 600;
},
{
background = {
shapes = (
{
closed = 1;
nodes = (
(514,277,l),
(546,406,l),
(132,406,l),
(100,277,l)
);
},
{
closed = 1;
nodes = (
(320,0,l),
(475,633,l),
(314,633,l),
(159,0,l)
);
},
{
closed = 1;
nodes = (
(649,565,l),
(683,700,l),
(143,700,l),
(109,565,l)
);
}
);
};
hints = (
{
horizontal = 1;
place = (0,21);
target = up;
type = BottomGhost;
},
{
horizontal = 1;
origin = (2,3);
target = (2,2);
type = Stem;
},
{
horizontal = 1;
origin = (1,0);
target = (1,1);
type = Stem;
}
);
layerId = "44520DEB-933F-4740-94E3-6BE30525566A";
shapes = (
{
closed = 1;
nodes = (
(320,0,l),
(475,633,l),
(314,633,l),
(159,0,l)
);
},
{
closed = 1;
nodes = (
(515,282,l),
(545,401,l),
(131,401,l),
(101,282,l)
);
},
{
closed = 1;
nodes = (
(649,565,l),
(683,700,l),
(143,700,l),
(109,565,l)
);
}
);
width = 600;
}
);
unicode = 358;
},
{
glyphname = U;
kernLeft = U;
kernRight = U;
lastChange = "2025-07-26 22:20:20 +0000";
layers = (
{
anchors = (
{
name = bottom;
pos = (243,0);
},
{
name = ogonek;
pos = (314,0);
},
{
name = top;
pos = (416,700);
},
{
name = topright;
pos = (593,700);
}
);
layerId = "4138F7D5-0763-4B33-9A38-359ACF56B4CB";
shapes = (
{
closed = 1;
nodes = (
(411,-10,o),
(466,71,o),
(505,228,cs),
(621,700,l),
(593,700,l),
(477,232,ls),
(443,90,o),
(395,18,o),
(265,18,cs),
(161,18,o),
(88,90,o),
(121,227,cs),
(238,700,l),
(210,700,l),
(94,228,ls),
(55,71,o),
(140,-10,o),
(263,-10,cs)
);
}
);
width = 600;
},
{
anchors = (
{
name = bottom;
pos = (239,0);
},
{
name = ogonek;
pos = (331,0);
},
{
name = top;
pos = (414,700);
},
{
name = topright;
pos = (504,700);
}
);
background = {
shapes = (
{
closed = 1;
nodes = (
(424,-15,o),
(505,57,o),
(551,243,cs),
(665,700,l),
(504,700,l),
(395,261,ls),
(373,173,o),
(340,133,o),
(277,133,cs),
(217,133,o),
(193,180,o),
(213,261,cs),
(322,700,l),
(161,700,l),
(58,285,ls),
(11,98,o),
(94,-15,o),
(261,-15,cs)
);
}
);
};
hints = (
{
horizontal = 1;
origin = (0,17);
target = (0,8);
type = Stem;
},
{
horizontal = 1;
place = (700,-20);
target = down;
type = TopGhost;
}
);
layerId = "44520DEB-933F-4740-94E3-6BE30525566A";
shapes = (
{
closed = 1;
nodes = (
(424,-15,o),
(505,57,o),
(551,243,cs),
(665,700,l),
(504,700,l),
(392,249,ls),
(370,161,o),
(337,121,o),
(274,121,cs),
(214,121,o),
(190,168,o),
(210,249,cs),
(322,700,l),
(161,700,l),
(58,285,ls),
(11,98,o),
(94,-15,o),
(261,-15,cs)
);
}
);
width = 600;
}
);
unicode = 85;
},
{
color = 8;
glyphname = Uhorn;
kernLeft = U;
kernRight = Uhorn;
lastChange = "2025-07-26 22:33:11 +0000";
layers = (
{
anchors = (
{
name = bottom;
pos = (242,0);
},
{
name = top;
pos = (416,700);
}
);
layerId = "4138F7D5-0763-4B33-9A38-359ACF56B4CB";
shapes = (
{
closed = 1;
nodes = (
(411,-10,o),
(466,71,o),
(505,228,cs),
(618,689,l),
(605,676,l),
(686,674,o),
(726,721,o),
(735,808,c),
(706,808,l),
(698,739,o),
(673,700,o),
(620,700,cs),
(593,700,l),
(477,232,ls),
(443,90,o),
(395,18,o),
(265,18,cs),
(161,18,o),
(88,90,o),
(121,227,cs),
(238,700,l),
(210,700,l),
(94,228,ls),
(55,71,o),
(140,-10,o),
(263,-10,cs)
);
}
);
width = 600;
},
{
associatedMasterId = "4138F7D5-0763-4B33-9A38-359ACF56B4CB";
layerId = "07E7A1C4-80E7-4454-AE37-7113C3D11C76";
name = "16. Apr. 25, 12:23";
shapes = (
{
ref = U;
},
{
pos = (293,0);
ref = horncomb.case;
}
);
width = 600;
},
{
anchors = (
{
name = bottom;
pos = (239,0);
},
{
name = top;
pos = (401,700);
}
);
background = {
shapes = (
{
closed = 1;
nodes = (
(424,-15,o),
(505,57,o),
(551,243,cs),
(660,683,l),
(592,605,l),
(714,623,o),
(747,694,o),
(749,808,c),
(607,808,l),
(607,731,o),
(600,700,o),
(534,700,cs),
(504,700,l),
(395,261,ls),
(373,173,o),
(340,133,o),
(277,133,cs),
(217,133,o),
(193,180,o),
(213,261,cs),
(322,700,l),
(161,700,l),
(58,285,ls),
(11,98,o),
(94,-15,o),
(261,-15,cs)
);
}
);
};
hints = (
{
horizontal = 1;
origin = (0,25);
target = (0,16);
type = Stem;
},
{
horizontal = 1;
place = (700,-20);
target = down;
type = TopGhost;
}
);
layerId = "44520DEB-933F-4740-94E3-6BE30525566A";
shapes = (
{
closed = 1;
nodes = (
(424,-15,o),
(505,57,o),
(551,243,cs),
(660,683,l),
(590,627,l),
(712,635,o),
(747,694,o),
(749,808,c),
(607,808,l),
(607,731,o),
(600,700,o),
(534,700,cs),
(504,700,l),
(392,249,ls),
(370,161,o),
(337,121,o),
(274,121,cs),
(214,121,o),
(190,168,o),
(210,249,cs),
(322,700,l),
(161,700,l),
(58,285,ls),
(11,98,o),
(94,-15,o),
(261,-15,cs)
);
}
);
width = 600;
},
{
associatedMasterId = "44520DEB-933F-4740-94E3-6BE30525566A";
layerId = "3D37CC6E-7F78-436D-BE60-2100907E9C5A";
name = "16. Apr. 25, 12:22";
shapes = (
{
ref = U;
},
{
pos = (204,0);
ref = horncomb.case;
}
);
width = 600;
}
);
unicode = 431;
},
{
glyphname = V;
lastChange = "2025-07-26 22:33:19 +0000";
layers = (
{
layerId = "4138F7D5-0763-4B33-9A38-359ACF56B4CB";
shapes = (
{
closed = 1;
nodes = (
(258,0,l),
(670,700,l),
(636,700,l),
(242,26,l),
(253,26,l),
(192,700,l),
(162,700,l),
(228,0,l)
);
}
);
width = 600;
},
{
hints = (
{
horizontal = 1;
place = (0,21);
target = up;
type = BottomGhost;
},
{
horizontal = 1;
place = (700,-20);
target = down;
type = TopGhost;
}
);
layerId = "44520DEB-933F-4740-94E3-6BE30525566A";
shapes = (
{
closed = 1;
nodes = (
(324,0,l),
(699,700,l),
(527,700,l),
(239,120,l),
(287,120,l),
(286,700,l),
(127,700,l),
(152,0,l)
);
}
);
width = 600;
}
);
unicode = 86;
},
{
glyphname = W;
kernLeft = W;
kernRight = W;
lastChange = "2025-07-26 22:33:21 +0000";
layers = (
{
anchors = (
{
name = top;
pos = (417,700);
}
);
layerId = "4138F7D5-0763-4B33-9A38-359ACF56B4CB";
shapes = (
{
closed = 1;
nodes = (
(123,0,l),
(372,500,l),
(363,500,l),
(377,0,l),
(406,0,l),
(676,700,l),
(645,700,l),
(394,29,l),
(402,29,l),
(389,530,l),
(358,530,l),
(109,28,l),
(121,28,l),
(186,700,l),
(157,700,l),
(93,0,l)
);
}
);
width = 600;
},
{
anchors = (
{
name = top;
pos = (414,700);
}
);
hints = (
{
horizontal = 1;
place = (0,21);
target = up;
type = BottomGhost;
},
{
horizontal = 1;
place = (700,-20);
target = down;
type = TopGhost;
}
);
layerId = "44520DEB-933F-4740-94E3-6BE30525566A";
shapes = (
{
closed = 1;
nodes = (
(167,0,l),
(375,453,l),
(330,453,l),
(312,0,l),
(467,0,l),
(710,700,l),
(578,700,l),
(395,127,l),
(428,127,l),
(441,570,l),
(323,570,l),
(112,127,l),
(145,127,l),
(249,700,l),
(116,700,l),
(11,0,l)
);
}
);
width = 600;
}
);
unicode = 87;
},
{
glyphname = X;
lastChange = "2025-06-27 13:11:19 +0000";
layers = (
{
background = {
shapes = (
{
closed = 1;
nodes = (
(20,0,l),
(321,327,l),
(462,0,l),
(496,0,l),
(347,349,l),
(659,700,l),
(624,700,l),
(332,372,l),
(203,700,l),
(167,700,l),
(307,349,l),
(-14,0,l)
);
}
);
};
layerId = "4138F7D5-0763-4B33-9A38-359ACF56B4CB";
shapes = (
{
closed = 1;
nodes = (
(31,0,l),
(325,324,l),
(463,0,l),
(492,0,l),
(346,347,l),
(657,700,l),
(621,700,l),
(333,374,l),
(206,700,l),
(175,700,l),
(311,351,l),
(-7,0,l)
);
}
);
width = 600;
},
{
hints = (
{
horizontal = 1;
origin = (0,11);
target = up;
type = BottomGhost;
},
{
horizontal = 1;
origin = (0,9);
target = down;
type = TopGhost;
}
);
layerId = "44520DEB-933F-4740-94E3-6BE30525566A";
shapes = (
{
closed = 1;
nodes = (
(143,0,l),
(298,233,l),
(347,0,l),
(514,0,l),
(427,331,l),
(708,700,l),
(502,700,l),
(347,467,l),
(300,700,l),
(125,700,l),
(218,368,l),
(-55,0,l)
);
}
);
width = 600;
}
);
unicode = 88;
},
{
glyphname = Y;
kernLeft = Y;
kernRight = Y;
lastChange = "2025-07-26 22:33:27 +0000";
layers = (
{
anchors = (
{
name = bottom;
pos = (244,0);
},
{
name = top;
pos = (416,700);
}
);
background = {
shapes = (
{
closed = 1;
nodes = (
(259,0,l),
(334,305,l),
(699,700,l),
(665,700,l),
(318,324,l),
(331,324,l),
(167,700,l),
(134,700,l),
(305,305,l),
(230,0,l)
);
}
);
};
layerId = "4138F7D5-0763-4B33-9A38-359ACF56B4CB";
shapes = (
{
closed = 1;
nodes = (
(258,0,l),
(333,305,l),
(688,700,l),
(652,700,l),
(315,324,l),
(328,324,l),
(173,700,l),
(143,700,l),
(304,305,l),
(229,0,l)
);
}
);
width = 600;
},
{
anchors = (
{
name = bottom;
pos = (242,0);
},
{
name = top;
pos = (414,700);
}
);
hints = (
{
horizontal = 1;
origin = (0,0);
target = up;
type = BottomGhost;
},
{
horizontal = 1;
origin = (0,3);
target = down;
type = TopGhost;
}
);
layerId = "44520DEB-933F-4740-94E3-6BE30525566A";
shapes = (
{
closed = 1;
nodes = (
(322,0,l),
(392,284,l),
(715,700,l),
(530,700,l),
(293,386,l),
(356,386,l),
(273,700,l),
(112,700,l),
(231,284,l),
(161,0,l)
);
}
);
width = 600;
}
);
unicode = 89;
},
{
glyphname = Z;
kernLeft = Z;
kernRight = Z;
lastChange = "2025-06-30 10:28:50 +0000";
layers = (
{
anchors = (
{
name = top;
pos = (413,700);
}
);
background = {
shapes = (
{
closed = 1;
nodes = (
(489,0,l),
(496,28,l),
(30,28,l),
(34,19,l),
(655,674,l),
(661,700,l),
(178,700,l),
(171,672,l),
(628,672,l),
(625,681,l),
(2,26,l),
(-4,0,l)
);
}
);
};
layerId = "4138F7D5-0763-4B33-9A38-359ACF56B4CB";
shapes = (
{
closed = 1;
nodes = (
(491,0,l),
(497,28,l),
(34,28,l),
(42,19,l),
(656,674,l),
(662,700,l),
(181,700,l),
(175,672,l),
(629,672,l),
(623,681,l),
(6,26,l),
(0,0,l)
);
}
);
width = 600;
},
{
anchors = (
{
name = top;
pos = (417,700);
}
);
background = {
shapes = (
{
closed = 1;
nodes = (
(497,0,l),
(531,139,l),
(147,139,l),
(173,88,l),
(632,566,l),
(665,700,l),
(168,700,l),
(134,561,l),
(492,561,l),
(464,613,l),
(16,140,l),
(-18,0,l)
);
}
);
};
hints = (
{
horizontal = 1;
origin = (0,11);
target = (0,2);
type = Stem;
},
{
horizontal = 1;
origin = (0,6);
target = (0,8);
type = Stem;
}
);
layerId = "44520DEB-933F-4740-94E3-6BE30525566A";
shapes = (
{
closed = 1;
nodes = (
(497,0,l),
(529,129,l),
(145,129,l),
(173,88,l),
(632,566,l),
(665,700,l),
(168,700,l),
(136,571,l),
(494,571,l),
(464,613,l),
(16,140,l),
(-18,0,l)
);
}
);
width = 600;
}
);
unicode = 90;
},
{
glyphname = a;
kernLeft = d;
kernRight = u;
lastChange = "2025-07-26 22:33:55 +0000";
layers = (
{
anchors = (
{
name = bottom;
pos = (237,0);
},
{
name = ogonek;
pos = (510,0);
},
{
name = top;
pos = (336,472);
}
);
background = {
shapes = (
{
closed = 1;
nodes = (
(383,-10,o),
(491,124,o),
(491,302,cs),
(491,410,o),
(422,482,o),
(316,482,cs),
(171,482,o),
(61,351,o),
(61,178,cs),
(61,65,o),
(132,-10,o),
(240,-10,cs)
);
},
{
closed = 1;
nodes = (
(150,18,o),
(90,82,o),
(90,179,cs),
(90,336,o),
(188,454,o),
(317,454,cs),
(404,454,o),
(462,393,o),
(462,302,cs),
(462,140,o),
(367,18,o),
(241,18,cs)
);
}
);
};
layerId = "4138F7D5-0763-4B33-9A38-359ACF56B4CB";
shapes = (
{
closed = 1;
nodes = (
(302,-10,o),
(382,35,o),
(415,102,c),
(415,105,l),
(397,42,o),
(425,0,o),
(488,0,cs),
(510,0,l),
(517,27,l),
(492,27,ls),
(451,27,o),
(431,53,o),
(441,95,cs),
(534,472,l),
(504,472,l),
(468,324,l),
(471,327,l),
(464,425,o),
(405,482,o),
(313,482,cs),
(171,482,o),
(61,357,o),
(61,183,cs),
(61,50,o),
(142,-10,o),
(225,-10,cs)
);
},
{
closed = 1;
nodes = (
(163,18,o),
(90,66,o),
(90,187,cs),
(90,341,o),
(191,455,o),
(317,455,cs),
(403,455,o),
(453,391,o),
(453,283,cs),
(453,167,o),
(368,18,o),
(233,18,cs)
);
}
);
width = 600;
},
{
anchors = (
{
name = bottom;
pos = (142,0);
},
{
name = ogonek;
pos = (441,0);
},
{
name = top;
pos = (313,493);
}
);
associatedMasterId = "44520DEB-933F-4740-94E3-6BE30525566A";
layerId = "403A5D18-0D13-4BED-A8A8-D4D23F00A885";
name = "4. Juni 25, 17:45";
shapes = (
{
closed = 1;
nodes = (
(262,-10,o),
(332,41,o),
(361,109,c),
(335,109,l),
(335,46,o),
(372,0,o),
(452,0,cs),
(518,0,l),
(549,124,l),
(490,124,ls),
(479,124,o),
(472,133,o),
(475,144,cs),
(562,493,l),
(412,493,l),
(382,377,l),
(429,402,l),
(408,466,o),
(361,503,o),
(291,503,cs),
(149,503,o),
(29,368,o),
(29,197,cs),
(29,187,ls),
(29,65,o),
(90,-10,o),
(199,-10,cs)
);
},
{
closed = 1;
nodes = (
(203,123,o),
(174,151,o),
(174,218,cs),
(174,221,ls),
(174,291,o),
(221,371,o),
(291,371,cs),
(344,371,o),
(367,334,o),
(367,281,c),
(357,233,l),
(342,170,o),
(302,123,o),
(252,123,cs)
);
}
);
width = 575;
},
{
anchors = (
{
name = bottom;
pos = (142,0);
},
{
name = ogonek;
pos = (441,0);
},
{
name = top;
pos = (313,493);
}
);
associatedMasterId = "44520DEB-933F-4740-94E3-6BE30525566A";
background = {
shapes = (
{
closed = 1;
nodes = (
(262,-10,o),
(332,41,o),
(361,109,c),
(335,109,l),
(335,46,o),
(372,0,o),
(452,0,cs),
(518,0,l),
(549,124,l),
(490,124,ls),
(479,124,o),
(472,133,o),
(475,144,cs),
(562,493,l),
(412,493,l),
(382,377,l),
(429,402,l),
(408,466,o),
(361,503,o),
(291,503,cs),
(149,503,o),
(29,368,o),
(29,197,cs),
(29,187,ls),
(29,65,o),
(90,-10,o),
(199,-10,cs)
);
},
{
closed = 1;
nodes = (
(203,123,o),
(174,151,o),
(174,218,cs),
(174,221,ls),
(174,291,o),
(221,371,o),
(291,371,cs),
(344,371,o),
(367,334,o),
(367,281,c),
(359,223,l),
(341,165,o),
(298,123,o),
(252,123,cs)
);
}
);
};
layerId = "1F50DF30-6647-44B2-B407-BB481B08268A";
name = "4. Juni 25, 17:46";
shapes = (
{
closed = 1;
nodes = (
(262,-10,o),
(332,41,o),
(361,109,c),
(335,109,l),
(335,46,o),
(372,0,o),
(452,0,cs),
(518,0,l),
(549,124,l),
(490,124,ls),
(479,124,o),
(472,133,o),
(475,144,cs),
(562,493,l),
(412,493,l),
(382,377,l),
(429,402,l),
(408,466,o),
(361,503,o),
(291,503,cs),
(149,503,o),
(29,368,o),
(29,197,cs),
(29,187,ls),
(29,65,o),
(90,-10,o),
(199,-10,cs)
);
},
{
closed = 1;
nodes = (
(203,123,o),
(174,151,o),
(174,218,cs),
(174,221,ls),
(174,291,o),
(221,371,o),
(291,371,cs),
(368,371,o),
(370,298,o),
(361,256,c),
(332,139,o),
(273,123,o),
(252,123,cs)
);
}
);
width = 575;
},
{
anchors = (
{
name = bottom;
pos = (240,0);
},
{
name = ogonek;
pos = (510,0);
},
{
name = top;
pos = (323,493);
}
);
hints = (
{
horizontal = 1;
origin = (1,5);
target = (0,19);
type = Stem;
},
{
horizontal = 1;
origin = (0,8);
target = (0,25);
type = Stem;
}
);
layerId = "44520DEB-933F-4740-94E3-6BE30525566A";
name = "ExtraBold Italic";
shapes = (
{
closed = 1;
nodes = (
(271,-10,o),
(323,34,o),
(354,109,c),
(337,109,l),
(337,34,o),
(373,0,o),
(454,0,cs),
(510,0,l),
(537,106,l),
(488,106,ls),
(473,106,o),
(469,111,o),
(473,126,cs),
(564,493,l),
(414,493,l),
(384,377,l),
(400,402,l),
(389,466,o),
(350,503,o),
(280,503,cs),
(138,503,o),
(27,358,o),
(27,187,cs),
(27,35,o),
(115,-10,o),
(191,-10,cs)
);
},
{
closed = 1;
nodes = (
(200,102,o),
(177,135,o),
(177,191,cs),
(177,300,o),
(233,392,o),
(304,392,cs),
(344,392,o),
(370,363,o),
(370,313,cs),
(370,199,o),
(312,102,o),
(243,102,cs)
);
}
);
width = 600;
},
{
anchors = (
{
name = bottom;
pos = (256,0);
},
{
name = ogonek;
pos = (506,0);
},
{
name = top;
pos = (371,472);
}
);
associatedMasterId = "4138F7D5-0763-4B33-9A38-359ACF56B4CB";
layerId = "A683E85B-76C1-4587-B08E-6870C1B18670";
name = "27. Juni 25, 09:51";
shapes = (
{
closed = 1;
nodes = (
(311,-10,o),
(381,35,o),
(414,102,c),
(411,105,l),
(393,42,o),
(421,0,o),
(484,0,cs),
(506,0,l),
(513,27,l),
(488,27,ls),
(447,27,o),
(427,53,o),
(437,95,cs),
(530,472,l),
(500,472,l),
(464,324,l),
(468,327,l),
(458,425,o),
(397,482,o),
(310,482,cs),
(178,482,o),
(67,357,o),
(67,183,cs),
(67,50,o),
(155,-10,o),
(239,-10,cs)
);
},
{
closed = 1;
nodes = (
(172,17,o),
(96,66,o),
(96,187,cs),
(96,341,o),
(192,454,o),
(312,454,cs),
(397,454,o),
(449,391,o),
(449,283,cs),
(449,167,o),
(377,17,o),
(242,17,cs)
);
}
);
width = 600;
},
{
anchors = (
{
name = bottom;
pos = (255,0);
},
{
name = ogonek;
pos = (510,0);
},
{
name = top;
pos = (360,472);
}
);
associatedMasterId = "4138F7D5-0763-4B33-9A38-359ACF56B4CB";
background = {
shapes = (
{
closed = 1;
nodes = (
(177,482,o),
(71,351,o),
(71,187,cs),
(71,65,o),
(131,-10,o),
(236,-10,cs),
(328,-10,o),
(391,46,o),
(431,135,c),
(420,141,l),
(322,-258,l),
(351,-258,l),
(530,472,l),
(502,472,l),
(464,316,l),
(471,304,l),
(461,433,o),
(392,482,o),
(309,482,cs)
);
},
{
closed = 1;
nodes = (
(396,455,o),
(453,390,o),
(453,284,cs),
(453,152,o),
(369,18,o),
(240,18,cs),
(150,18,o),
(100,85,o),
(100,190,cs),
(100,337,o),
(195,455,o),
(309,455,cs)
);
}
);
};
layerId = "CF2F4A4D-EED5-4D17-B190-4449E1877481";
name = "27. Juni 25, 10:10";
shapes = (
{
closed = 1;
nodes = (
(312,-10,o),
(385,35,o),
(418,102,c),
(415,105,l),
(397,42,o),
(425,0,o),
(488,0,cs),
(510,0,l),
(517,27,l),
(492,27,ls),
(451,27,o),
(431,53,o),
(441,95,cs),
(534,472,l),
(504,472,l),
(468,324,l),
(472,327,l),
(462,425,o),
(398,482,o),
(311,482,cs),
(179,482,o),
(71,357,o),
(71,183,cs),
(71,50,o),
(150,-10,o),
(233,-10,cs)
);
},
{
closed = 1;
nodes = (
(168,18,o),
(100,66,o),
(100,187,cs),
(100,341,o),
(196,455,o),
(312,455,cs),
(397,455,o),
(453,391,o),
(453,283,cs),
(453,167,o),
(373,18,o),
(238,18,cs)
);
}
);
width = 600;
},
{
anchors = (
{
name = bottom;
pos = (240,0);
},
{
name = ogonek;
pos = (510,0);
},
{
name = top;
pos = (323,493);
}
);
associatedMasterId = "44520DEB-933F-4740-94E3-6BE30525566A";
background = {
shapes = (
{
closed = 1;
nodes = (
(229,-10,o),
(303,24,o),
(349,93,c),
(346,115,l),
(317,0,l),
(452,0,l),
(634,730,l),
(484,730,l),
(400,392,l),
(417,418,l),
(404,475,o),
(351,503,o),
(287,503,cs),
(162,503,o),
(60,410,o),
(21,251,cs),
(18,241,ls),
(-21,83,o),
(33,-10,o),
(158,-10,cs)
);
},
{
closed = 1;
nodes = (
(170,101,o),
(144,145,o),
(168,241,cs),
(171,251,ls),
(195,347,o),
(243,392,o),
(305,392,cs),
(371,392,o),
(398,345,o),
(374,246,cs),
(349,147,o),
(298,101,o),
(232,101,cs)
);
}
);
};
layerId = "F05F6155-D4FA-4872-A18A-02584D3A5DFE";
name = "30. Juni 25, 12:30";
shapes = (
{
closed = 1;
nodes = (
(271,-10,o),
(332,34,o),
(363,109,c),
(337,109,l),
(337,34,o),
(373,0,o),
(454,0,cs),
(510,0,l),
(541,124,l),
(492,124,ls),
(477,124,o),
(473,129,o),
(477,144,cs),
(564,493,l),
(414,493,l),
(384,377,l),
(421,402,l),
(400,466,o),
(353,503,o),
(283,503,cs),
(141,503,o),
(27,358,o),
(27,187,cs),
(27,35,o),
(115,-10,o),
(200,-10,cs)
);
},
{
closed = 1;
nodes = (
(211,123,o),
(176,141,o),
(176,211,cs),
(176,302,o),
(226,371,o),
(293,371,cs),
(346,371,o),
(364,334,o),
(364,281,cs),
(364,196,o),
(313,123,o),
(254,123,cs)
);
}
);
width = 600;
}
);
unicode = 97;
},
{
glyphname = ae;
kernLeft = a;
kernRight = e.alt;
lastChange = "2025-07-26 22:34:02 +0000";
layers = (
{
anchors = (
{
name = bottom;
pos = (238,0);
},
{
name = top;
pos = (355,472);
}
);
layerId = "4138F7D5-0763-4B33-9A38-359ACF56B4CB";
shapes = (
{
closed = 1;
nodes = (
(447,-10,o),
(489,6,o),
(523,37,c),
(512,63,l),
(486,39,o),
(450,18,o),
(407,18,cs),
(338,18,o),
(292,74,o),
(292,176,cs),
(292,344,o),
(396,454,o),
(491,454,cs),
(536,454,o),
(565,428,o),
(565,383,cs),
(565,293,o),
(455,227,o),
(289,231,c),
(284,205,l),
(468,197,o),
(594,274,o),
(594,385,cs),
(594,444,o),
(557,482,o),
(494,482,cs),
(416,482,o),
(348,425,o),
(306,346,c),
(316,346,l),
(323,435,o),
(273,482,o),
(203,482,cs),
(150,482,o),
(103,456,o),
(70,412,c),
(84,392,l),
(112,429,o),
(151,456,o),
(199,456,cs),
(274,456,o),
(306,397,o),
(281,290,cs),
(274,260,ls),
(238,105,o),
(299,-10,o),
(407,-10,cs)
);
},
{
closed = 1;
nodes = (
(200,-9,o),
(261,37,o),
(278,123,c),
(273,123,l),
(282,183,o),
(255,261,o),
(156,261,cs),
(70,261,o),
(8,197,o),
(8,112,cs),
(8,41,o),
(54,-9,o),
(129,-9,cs)
);
},
{
closed = 1;
nodes = (
(74,16,o),
(37,54,o),
(37,113,cs),
(37,183,o),
(87,236,o),
(158,236,cs),
(217,236,o),
(256,201,o),
(256,144,cs),
(256,82,o),
(212,16,o),
(134,16,cs)
);
}
);
width = 600;
},
{
anchors = (
{
name = bottom;
pos = (237,0);
},
{
name = top;
pos = (360,492);
}
);
hints = (
{
horizontal = 1;
origin = (0,19);
target = (0,18);
type = Stem;
},
{
horizontal = 1;
origin = (0,46);
target = (0,6);
type = Stem;
},
{
horizontal = 1;
origin = (0,39);
target = (0,32);
type = Stem;
}
);
layerId = "44520DEB-933F-4740-94E3-6BE30525566A";
shapes = (
{
closed = 1;
nodes = (
(446,-10,o),
(503,14,o),
(542,53,c),
(479,142,l),
(452,118,o),
(422,105,o),
(398,105,cs),
(368,105,o),
(353,125,o),
(353,173,cs),
(353,254,o),
(400,396,o),
(453,396,cs),
(466,396,o),
(473,388,o),
(473,371,cs),
(473,316,o),
(408,275,o),
(329,277,c),
(313,186,l),
(476,188,o),
(599,264,o),
(599,384,cs),
(599,458,o),
(555,502,o),
(480,502,cs),
(411,502,o),
(349,467,o),
(307,406,c),
(357,406,l),
(346,475,o),
(295,502,o),
(232,502,cs),
(169,502,o),
(104,479,o),
(58,444,c),
(94,347,l),
(121,367,o),
(166,383,o),
(201,383,cs),
(233,383,o),
(261,364,o),
(245,298,cs),
(235,257,ls),
(196,97,o),
(253,-10,o),
(384,-10,cs)
);
},
{
closed = 1;
nodes = (
(231,-10,o),
(280,56,o),
(292,143,c),
(279,143,l),
(280,234,o),
(247,286,o),
(166,286,cs),
(84,286,o),
(6,229,o),
(6,120,cs),
(6,46,o),
(61,-10,o),
(134,-10,cs)
);
},
{
closed = 1;
nodes = (
(152,89,o),
(137,103,o),
(137,131,cs),
(137,168,o),
(157,196,o),
(187,196,cs),
(208,196,o),
(222,183,o),
(222,154,cs),
(222,119,o),
(205,89,o),
(173,89,cs)
);
}
);
width = 600;
},
{
anchors = (
{
name = bottom;
pos = (238,0);
},
{
name = top;
pos = (357,481);
}
);
associatedMasterId = "4138F7D5-0763-4B33-9A38-359ACF56B4CB";
attr = {
coordinates = (
400
);
};
layerId = "D0797588-6C54-4C64-8BB2-CAA6CCDC4815";
name = "13. Juli 25, 15:21";
shapes = (
{
closed = 1;
nodes = (
(447,-10,o),
(494,9,o),
(531,44,c),
(498,97,l),
(472,73,o),
(438,55,o),
(403,55,cs),
(351,55,o),
(318,96,o),
(318,175,cs),
(318,305,o),
(398,429,o),
(475,429,cs),
(506,429,o),
(526,411,o),
(526,378,cs),
(526,303,o),
(434,248,o),
(306,251,c),
(296,197,l),
(472,193,o),
(596,270,o),
(596,385,cs),
(596,450,o),
(556,491,o),
(488,491,cs),
(414,491,o),
(348,443,o),
(306,372,c),
(334,372,l),
(333,453,o),
(282,491,o),
(215,491,cs),
(158,491,o),
(103,466,o),
(65,426,c),
(88,373,l),
(115,402,o),
(157,425,o),
(200,425,cs),
(256,425,o),
(287,382,o),
(266,293,cs),
(257,259,ls),
(220,102,o),
(279,-10,o),
(397,-10,cs)
);
},
{
closed = 1;
nodes = (
(213,-9,o),
(269,45,o),
(284,132,c),
(276,132,l),
(281,204,o),
(252,272,o),
(160,272,cs),
(76,272,o),
(7,211,o),
(7,115,cs),
(7,43,o),
(57,-9,o),
(131,-9,cs)
);
},
{
closed = 1;
nodes = (
(107,47,o),
(80,74,o),
(80,118,cs),
(80,171,o),
(117,211,o),
(170,211,cs),
(213,211,o),
(241,186,o),
(241,143,cs),
(241,96,o),
(209,47,o),
(151,47,cs)
);
}
);
width = 600;
}
);
unicode = 230;
},
{
glyphname = b;
kernLeft = h;
kernRight = b;
lastChange = "2025-07-26 22:34:28 +0000";
layers = (
{
background = {
shapes = (
{
closed = 1;
nodes = (
(418,-10,o),
(526,124,o),
(526,302,cs),
(526,410,o),
(457,482,o),
(352,482,cs),
(206,482,o),
(96,351,o),
(96,178,cs),
(96,65,o),
(167,-10,o),
(275,-10,cs)
);
},
{
closed = 1;
nodes = (
(185,18,o),
(125,82,o),
(125,179,cs),
(125,336,o),
(223,454,o),
(352,454,cs),
(439,454,o),
(497,393,o),
(497,302,cs),
(497,140,o),
(402,18,o),
(276,18,cs)
);
}
);
};
layerId = "4138F7D5-0763-4B33-9A38-359ACF56B4CB";
shapes = (
{
closed = 1;
nodes = (
(426,-10,o),
(536,121,o),
(536,285,cs),
(536,407,o),
(472,482,o),
(367,482,cs),
(275,482,o),
(207,426,o),
(167,337,c),
(177,331,l),
(275,730,l),
(246,730,l),
(67,0,l),
(95,0,l),
(133,156,l),
(127,168,l),
(137,39,o),
(211,-10,o),
(294,-10,cs)
);
},
{
closed = 1;
nodes = (
(206,17,o),
(144,82,o),
(144,188,cs),
(144,320,o),
(233,454,o),
(362,454,cs),
(452,454,o),
(507,387,o),
(507,282,cs),
(507,135,o),
(407,17,o),
(293,17,cs)
);
}
);
width = 600;
},
{
background = {
shapes = (
{
closed = 1;
nodes = (
(303,503,o),
(251,459,o),
(220,384,c),
(237,384,l),
(237,459,o),
(201,493,o),
(120,493,cs),
(64,493,l),
(37,387,l),
(86,387,ls),
(101,387,o),
(105,382,o),
(101,367,cs),
(10,0,l),
(160,0,l),
(190,116,l),
(174,91,l),
(185,27,o),
(224,-10,o),
(294,-10,cs),
(436,-10,o),
(547,135,o),
(547,306,cs),
(547,458,o),
(459,503,o),
(383,503,cs)
);
},
{
closed = 1;
nodes = (
(374,391,o),
(397,358,o),
(397,302,cs),
(397,193,o),
(341,101,o),
(275,101,cs),
(230,101,o),
(204,130,o),
(204,180,cs),
(204,294,o),
(262,391,o),
(331,391,cs)
);
}
);
};
hints = (
{
horizontal = 1;
origin = (0,5);
target = (1,5);
type = Stem;
},
{
horizontal = 1;
place = (-10,111);
target = (1,11);
type = Stem;
}
);
layerId = "44520DEB-933F-4740-94E3-6BE30525566A";
shapes = (
{
closed = 1;
nodes = (
(417,-10,o),
(547,111,o),
(547,316,cs),
(547,438,o),
(492,503,o),
(403,503,cs),
(334,503,o),
(273,459,o),
(239,384,c),
(255,384,l),
(340,730,l),
(190,730,l),
(10,0,l),
(156,0,l),
(186,116,l),
(167,116,l),
(174,27,o),
(221,-10,o),
(291,-10,cs)
);
},
{
closed = 1;
nodes = (
(230,101,o),
(204,130,o),
(204,180,cs),
(204,294,o),
(262,391,o),
(331,391,cs),
(374,391,o),
(397,358,o),
(397,302,cs),
(397,193,o),
(341,101,o),
(275,101,cs)
);
}
);
width = 600;
},
{
associatedMasterId = "4138F7D5-0763-4B33-9A38-359ACF56B4CB";
background = {
shapes = (
{
closed = 1;
nodes = (
(350,-23,o),
(462,66,o),
(497,209,cs),
(499,218,ls),
(533,356,o),
(470,465,o),
(343,481,cs),
(251,492,o),
(165,445,o),
(113,361,c),
(116,355,l),
(213,751,l),
(184,754,l),
(7,30,l),
(34,26,l),
(68,166,l),
(63,162,l),
(72,70,o),
(130,4,o),
(223,-8,cs)
);
},
{
closed = 1;
nodes = (
(118,33,o),
(60,132,o),
(91,261,cs),
(123,388,o),
(225,467,o),
(334,453,cs),
(446,439,o),
(501,343,o),
(471,221,cs),
(469,212,ls),
(437,85,o),
(339,6,o),
(228,19,cs)
);
}
);
};
layerId = "78A0D532-7B5E-4320-8F16-9D15061866BA";
name = "3. Mai 25, 14:21";
shapes = (
{
closed = 1;
nodes = (
(414,-10,o),
(533,116,o),
(533,285,cs),
(533,294,ls),
(533,406,o),
(466,482,o),
(361,482,cs),
(269,482,o),
(179,427,o),
(138,337,c),
(142,331,l),
(240,730,l),
(211,730,l),
(32,0,l),
(60,0,l),
(94,141,l),
(87,138,l),
(95,45,o),
(166,-10,o),
(268,-10,cs)
);
},
{
closed = 1;
nodes = (
(167,17,o),
(109,74,o),
(109,169,cs),
(109,270,o),
(189,454,o),
(354,454,cs),
(446,454,o),
(502,389,o),
(502,287,cs),
(502,280,ls),
(502,130,o),
(398,17,o),
(269,17,cs)
);
}
);
width = 583;
},
{
associatedMasterId = "4138F7D5-0763-4B33-9A38-359ACF56B4CB";
background = {
shapes = (
{
closed = 1;
nodes = (
(418,-10,o),
(526,124,o),
(526,302,cs),
(526,410,o),
(457,482,o),
(352,482,cs),
(206,482,o),
(96,351,o),
(96,178,cs),
(96,65,o),
(167,-10,o),
(275,-10,cs)
);
},
{
closed = 1;
nodes = (
(185,18,o),
(125,82,o),
(125,179,cs),
(125,336,o),
(223,454,o),
(352,454,cs),
(439,454,o),
(497,393,o),
(497,302,cs),
(497,140,o),
(402,18,o),
(276,18,cs)
);
}
);
};
layerId = "1F052499-867F-4A4C-8210-54A281E9BF03";
name = "27. Juni 25, 10:10";
shapes = (
{
closed = 1;
nodes = (
(420,-10,o),
(526,121,o),
(526,285,cs),
(526,407,o),
(466,482,o),
(361,482,cs),
(269,482,o),
(206,426,o),
(166,337,c),
(177,331,l),
(275,730,l),
(246,730,l),
(67,0,l),
(95,0,l),
(133,156,l),
(126,168,l),
(136,39,o),
(205,-10,o),
(288,-10,cs)
);
},
{
closed = 1;
nodes = (
(201,17,o),
(144,82,o),
(144,188,cs),
(144,320,o),
(228,454,o),
(357,454,cs),
(447,454,o),
(497,387,o),
(497,282,cs),
(497,135,o),
(402,17,o),
(288,17,cs)
);
}
);
width = 600;
},
{
associatedMasterId = "44520DEB-933F-4740-94E3-6BE30525566A";
background = {
shapes = (
{
closed = 1;
nodes = (
(303,503,o),
(251,459,o),
(220,384,c),
(237,384,l),
(237,459,o),
(201,493,o),
(120,493,cs),
(64,493,l),
(37,387,l),
(86,387,ls),
(101,387,o),
(105,382,o),
(101,367,cs),
(10,0,l),
(160,0,l),
(190,116,l),
(174,91,l),
(185,27,o),
(224,-10,o),
(294,-10,cs),
(436,-10,o),
(547,135,o),
(547,306,cs),
(547,458,o),
(459,503,o),
(383,503,cs)
);
},
{
closed = 1;
nodes = (
(374,391,o),
(397,358,o),
(397,302,cs),
(397,193,o),
(341,101,o),
(275,101,cs),
(230,101,o),
(204,130,o),
(204,180,cs),
(204,294,o),
(262,391,o),
(331,391,cs)
);
}
);
};
layerId = "D7AAE644-7653-48F9-AA5D-69C19DB0F7EE";
name = "30. Juni 25, 12:38";
shapes = (
{
closed = 1;
nodes = (
(417,-10,o),
(547,111,o),
(547,316,cs),
(547,438,o),
(482,503,o),
(383,503,cs),
(310,503,o),
(240,452,o),
(211,384,c),
(255,384,l),
(340,730,l),
(190,730,l),
(10,0,l),
(146,0,l),
(176,116,l),
(153,91,l),
(174,27,o),
(221,-10,o),
(291,-10,cs)
);
},
{
closed = 1;
nodes = (
(228,122,o),
(210,159,o),
(210,212,cs),
(210,298,o),
(260,370,o),
(324,370,cs),
(369,370,o),
(398,342,o),
(398,275,cs),
(398,169,o),
(325,122,o),
(281,122,cs)
);
}
);
width = 600;
}
);
unicode = 98;
},
{
glyphname = c;
kernLeft = o;
kernRight = c;
lastChange = "2025-07-26 22:34:53 +0000";
layers = (
{
anchors = (
{
name = bottom;
pos = (256,0);
},
{
name = top;
pos = (372,472);
}
);
layerId = "4138F7D5-0763-4B33-9A38-359ACF56B4CB";
shapes = (
{
closed = 1;
nodes = (
(345,-10,o),
(407,10,o),
(458,51,c),
(443,74,l),
(398,37,o),
(342,18,o),
(293,18,cs),
(187,18,o),
(124,82,o),
(124,185,cs),
(124,340,o),
(223,454,o),
(352,454,cs),
(411,454,o),
(461,428,o),
(491,382,c),
(513,401,l),
(481,452,o),
(422,482,o),
(353,482,cs),
(205,482,o),
(95,356,o),
(95,183,cs),
(95,64,o),
(167,-10,o),
(290,-10,cs)
);
}
);
width = 600;
},
{
anchors = (
{
name = bottom;
pos = (269,0);
},
{
name = top;
pos = (374,493);
}
);
hints = (
{
horizontal = 1;
origin = (0,25);
target = (0,6);
type = Stem;
},
{
horizontal = 1;
origin = (0,19);
target = (0,12);
type = Stem;
}
);
layerId = "44520DEB-933F-4740-94E3-6BE30525566A";
shapes = (
{
closed = 1;
nodes = (
(383,-10,o),
(455,19,o),
(505,61,c),
(439,147,l),
(399,117,o),
(363,107,o),
(332,107,cs),
(269,107,o),
(219,137,o),
(219,228,cs),
(219,314,o),
(275,386,o),
(358,386,cs),
(398,386,o),
(437,366,o),
(461,334,c),
(554,407,l),
(518,465,o),
(447,503,o),
(362,503,cs),
(196,503,o),
(68,387,o),
(68,220,cs),
(68,59,o),
(185,-10,o),
(303,-10,cs)
);
}
);
width = 600;
},
{
anchors = (
{
name = bottom;
pos = (268,0);
},
{
name = top;
pos = (372,493);
}
);
associatedMasterId = "44520DEB-933F-4740-94E3-6BE30525566A";
hints = (
{
horizontal = 1;
origin = (0,27);
target = (0,7);
type = Stem;
},
{
horizontal = 1;
origin = (0,21);
target = (0,13);
type = Stem;
},
{
origin = (0,24);
target = (0,10);
type = Stem;
}
);
layerId = "A685325C-295D-4FAC-8C27-CACD28A5610C";
name = "30. Juni 25, 12:40";
shapes = (
{
closed = 1;
nodes = (
(375,-10,o),
(441,19,o),
(488,61,c),
(368,219,l),
(460,215,l),
(401,148,o),
(357,127,o),
(319,127,cs),
(277,127,o),
(233,151,o),
(233,227,cs),
(233,307,o),
(287,366,o),
(355,366,cs),
(398,366,o),
(437,337,o),
(455,257,c),
(378,278,l),
(540,407,l),
(507,466,o),
(440,503,o),
(362,503,cs),
(206,503,o),
(83,384,o),
(83,213,cs),
(83,59,o),
(191,-10,o),
(299,-10,cs)
);
}
);
width = 600;
},
{
anchors = (
{
name = bottom;
pos = (268,0);
},
{
name = top;
pos = (372,493);
}
);
associatedMasterId = "44520DEB-933F-4740-94E3-6BE30525566A";
layerId = "D68329C9-EC65-4335-BC7B-C0FE0DF540E1";
name = "30. Juni 25, 12:41";
shapes = (
{
closed = 1;
nodes = (
(406,-10,o),
(480,24,o),
(519,78,c),
(440,157,l),
(404,118,o),
(369,107,o),
(335,107,cs),
(272,107,o),
(221,150,o),
(221,242,cs),
(221,252,ls),
(221,344,o),
(270,386,o),
(333,386,cs),
(369,386,o),
(404,372,o),
(434,333,c),
(516,415,l),
(477,469,o),
(406,503,o),
(332,503,cs),
(184,503,o),
(71,402,o),
(71,252,cs),
(71,242,ls),
(71,94,o),
(182,-10,o),
(332,-10,cs)
);
}
);
width = 600;
}
);
unicode = 99;
},
{
glyphname = d;
kernLeft = d;
kernRight = d;
lastChange = "2025-07-26 22:35:02 +0000";
layers = (
{
anchors = (
{
name = center;
pos = (531,600);
},
{
name = topright;
pos = (694,730);
}
);
layerId = "4138F7D5-0763-4B33-9A38-359ACF56B4CB";
shapes = (
{
closed = 1;
nodes = (
(304,-10,o),
(382,35,o),
(415,102,c),
(415,105,l),
(397,42,o),
(425,0,o),
(488,0,cs),
(510,0,l),
(517,27,l),
(492,27,ls),
(451,27,o),
(431,53,o),
(441,95,cs),
(597,730,l),
(567,730,l),
(468,324,l),
(471,327,l),
(464,425,o),
(405,482,o),
(313,482,cs),
(171,482,o),
(61,357,o),
(61,183,cs),
(61,50,o),
(142,-10,o),
(225,-10,cs)
);
},
{
closed = 1;
nodes = (
(163,18,o),
(90,66,o),
(90,187,cs),
(90,341,o),
(191,455,o),
(317,455,cs),
(403,455,o),
(453,391,o),
(453,283,cs),
(453,167,o),
(368,18,o),
(233,18,cs)
);
}
);
width = 600;
},
{
anchors = (
{
name = center;
pos = (501,600);
},
{
name = topright;
pos = (683,730);
}
);
hints = (
{
horizontal = 1;
place = (-10,112);
target = (1,11);
type = Stem;
},
{
horizontal = 1;
origin = (1,5);
target = (0,19);
type = Stem;
},
{
place = (179,0);
type = Stem;
}
);
layerId = "44520DEB-933F-4740-94E3-6BE30525566A";
shapes = (
{
closed = 1;
nodes = (
(271,-10,o),
(323,34,o),
(354,109,c),
(337,109,l),
(337,34,o),
(373,0,o),
(454,0,cs),
(510,0,l),
(537,106,l),
(488,106,ls),
(473,106,o),
(469,111,o),
(473,126,cs),
(623,730,l),
(473,730,l),
(384,377,l),
(400,402,l),
(389,466,o),
(350,503,o),
(280,503,cs),
(138,503,o),
(27,358,o),
(27,187,cs),
(27,35,o),
(115,-10,o),
(191,-10,cs)
);
},
{
closed = 1;
nodes = (
(200,102,o),
(177,135,o),
(177,191,cs),
(177,300,o),
(233,392,o),
(304,392,cs),
(344,392,o),
(370,363,o),
(370,313,cs),
(370,199,o),
(312,102,o),
(243,102,cs)
);
}
);
width = 600;
}
);
unicode = 100;
},
{
glyphname = dcaron;
kernLeft = d;
kernRight = d;
lastChange = "2025-07-26 22:35:11 +0000";
layers = (
{
layerId = "4138F7D5-0763-4B33-9A38-359ACF56B4CB";
shapes = (
{
closed = 1;
nodes = (
(304,-10,o),
(382,35,o),
(415,102,c),
(415,105,l),
(397,42,o),
(425,0,o),
(488,0,cs),
(510,0,l),
(517,27,l),
(492,27,ls),
(451,27,o),
(431,53,o),
(441,95,cs),
(597,730,l),
(567,730,l),
(468,324,l),
(471,327,l),
(464,425,o),
(405,482,o),
(313,482,cs),
(171,482,o),
(61,357,o),
(61,183,cs),
(61,50,o),
(142,-10,o),
(225,-10,cs)
);
},
{
closed = 1;
nodes = (
(163,18,o),
(90,66,o),
(90,187,cs),
(90,341,o),
(186,455,o),
(312,455,cs),
(398,455,o),
(453,391,o),
(453,283,cs),
(453,167,o),
(368,18,o),
(233,18,cs)
);
},
{
closed = 1;
nodes = (
(681,567,l),
(727,730,l),
(694,730,l),
(654,567,l)
);
}
);
width = 600;
},
{
background = {
shapes = (
{
closed = 1;
nodes = (
(271,-10,o),
(323,34,o),
(354,109,c),
(337,109,l),
(337,34,o),
(373,0,o),
(454,0,cs),
(510,0,l),
(537,106,l),
(488,106,ls),
(473,106,o),
(469,111,o),
(473,126,cs),
(623,730,l),
(473,730,l),
(384,377,l),
(400,402,l),
(389,466,o),
(350,503,o),
(280,503,cs),
(138,503,o),
(27,358,o),
(27,187,cs),
(27,35,o),
(115,-10,o),
(191,-10,cs)
);
},
{
closed = 1;
nodes = (
(200,102,o),
(177,135,o),
(177,191,cs),
(177,300,o),
(233,392,o),
(299,392,cs),
(344,392,o),
(370,363,o),
(370,313,cs),
(370,199,o),
(312,102,o),
(243,102,cs)
);
}
);
};
hints = (
{
place = (179,0);
type = Stem;
},
{
horizontal = 1;
place = (-10,112);
target = (1,11);
type = Stem;
},
{
horizontal = 1;
origin = (1,5);
target = (0,19);
type = Stem;
}
);
layerId = "44520DEB-933F-4740-94E3-6BE30525566A";
shapes = (
{
closed = 1;
nodes = (
(234,-10,o),
(301,42,o),
(310,109,c),
(298,109,l),
(299,34,o),
(330,0,o),
(406,0,cs),
(460,0,l),
(491,124,l),
(444,124,ls),
(433,124,o),
(433,130,o),
(436,142,cs),
(582,730,l),
(433,730,l),
(345,377,l),
(362,402,l),
(357,465,o),
(324,503,o),
(264,503,cs),
(138,503,o),
(25,358,o),
(25,177,cs),
(25,33,o),
(93,-10,o),
(168,-10,cs)
);
},
{
closed = 1;
nodes = (
(190,102,o),
(172,122,o),
(172,181,cs),
(172,250,o),
(216,392,o),
(289,392,cs),
(321,392,o),
(338,368,o),
(338,320,cs),
(338,241,o),
(288,102,o),
(226,102,cs)
);
},
{
closed = 1;
nodes = (
(701,518,l),
(772,730,l),
(633,730,l),
(581,518,l)
);
}
);
width = 600;
},
{
associatedMasterId = "44520DEB-933F-4740-94E3-6BE30525566A";
background = {
shapes = (
{
closed = 1;
nodes = (
(271,-10,o),
(323,34,o),
(354,109,c),
(337,109,l),
(337,34,o),
(373,0,o),
(454,0,cs),
(510,0,l),
(537,106,l),
(488,106,ls),
(473,106,o),
(469,111,o),
(473,126,cs),
(623,730,l),
(473,730,l),
(384,377,l),
(400,402,l),
(389,466,o),
(350,503,o),
(280,503,cs),
(138,503,o),
(27,358,o),
(27,187,cs),
(27,35,o),
(115,-10,o),
(191,-10,cs)
);
},
{
closed = 1;
nodes = (
(200,102,o),
(177,135,o),
(177,191,cs),
(177,300,o),
(233,392,o),
(299,392,cs),
(344,392,o),
(370,363,o),
(370,313,cs),
(370,199,o),
(312,102,o),
(243,102,cs)
);
}
);
};
hints = (
{
horizontal = 1;
origin = (2,3);
target = (2,2);
type = Stem;
}
);
layerId = "B0F6164A-E2DD-46C6-948B-B2408468D408";
name = "30. Juni 25, 12:43";
shapes = (
{
closed = 1;
nodes = (
(244,-10,o),
(307,42,o),
(334,109,c),
(298,109,l),
(299,34,o),
(330,0,o),
(406,0,cs),
(460,0,l),
(491,124,l),
(444,124,ls),
(433,124,o),
(433,130,o),
(436,142,cs),
(582,730,l),
(433,730,l),
(345,377,l),
(382,402,l),
(364,466,o),
(324,503,o),
(264,503,cs),
(138,503,o),
(25,358,o),
(25,177,cs),
(25,33,o),
(103,-10,o),
(178,-10,cs)
);
},
{
closed = 1;
nodes = (
(192,124,o),
(172,152,o),
(172,201,cs),
(172,270,o),
(206,370,o),
(279,370,cs),
(310,370,o),
(328,344,o),
(328,299,cs),
(328,220,o),
(288,124,o),
(226,124,cs)
);
},
{
closed = 1;
nodes = (
(701,518,l),
(772,730,l),
(633,730,l),
(581,518,l)
);
}
);
width = 600;
}
);
unicode = 271;
},
{
glyphname = eth;
lastChange = "2025-06-30 10:48:35 +0000";
layers = (
{
background = {
shapes = (
{
closed = 1;
nodes = (
(408,-10,o),
(516,124,o),
(516,302,cs),
(516,410,o),
(447,482,o),
(341,482,cs),
(196,482,o),
(86,351,o),
(86,178,cs),
(86,65,o),
(157,-10,o),
(265,-10,cs)
);
},
{
closed = 1;
nodes = (
(175,18,o),
(115,82,o),
(115,179,cs),
(115,336,o),
(213,454,o),
(342,454,cs),
(429,454,o),
(487,393,o),
(487,302,cs),
(487,140,o),
(392,18,o),
(266,18,cs)
);
}
);
};
layerId = "4138F7D5-0763-4B33-9A38-359ACF56B4CB";
shapes = (
{
closed = 1;
nodes = (
(403,-10,o),
(515,118,o),
(515,310,cs),
(515,427,o),
(480,507,o),
(395,611,cs),
(287,743,l),
(263,724,l),
(369,596,ls),
(457,490,o),
(476,428,o),
(487,351,c),
(490,354,l),
(477,430,o),
(422,480,o),
(334,480,cs),
(197,480,o),
(86,345,o),
(86,186,cs),
(86,66,o),
(154,-10,o),
(270,-10,cs)
);
},
{
closed = 1;
nodes = (
(172,17,o),
(115,85,o),
(115,190,cs),
(115,332,o),
(212,453,o),
(333,453,cs),
(425,453,o),
(483,392,o),
(483,281,cs),
(483,130,o),
(380,17,o),
(268,17,cs)
);
},
{
closed = 1;
nodes = (
(515,685,l),
(503,710,l),
(191,542,l),
(202,517,l)
);
}
);
width = 600;
},
{
layerId = "44520DEB-933F-4740-94E3-6BE30525566A";
shapes = (
{
closed = 1;
nodes = (
(455,-9,o),
(545,155,o),
(545,309,cs),
(545,411,o),
(505,508,o),
(432,621,cs),
(346,754,l),
(220,669,l),
(313,547,ls),
(384,454,o),
(427,378,o),
(421,305,c),
(449,302,l),
(434,405,o),
(383,459,o),
(304,459,cs),
(171,459,o),
(61,343,o),
(61,186,cs),
(61,66,o),
(136,-9,o),
(265,-9,cs)
);
},
{
closed = 1;
nodes = (
(230,103,o),
(207,134,o),
(207,193,cs),
(207,288,o),
(264,367,o),
(329,367,cs),
(370,367,o),
(392,334,o),
(392,275,cs),
(392,188,o),
(340,103,o),
(275,103,cs)
);
},
{
closed = 1;
nodes = (
(546,605,l),
(541,690,l),
(162,600,l),
(166,512,l)
);
}
);
width = 600;
},
{
associatedMasterId = "44520DEB-933F-4740-94E3-6BE30525566A";
layerId = "E54869B4-69E2-4C4D-9FDA-3CB617278391";
name = "30. Juni 25, 12:47";
shapes = (
{
closed = 1;
nodes = (
(460,-10,o),
(556,94,o),
(556,251,cs),
(556,380,o),
(494,498,o),
(353,626,cs),
(222,745,l),
(118,645,l),
(238,541,ls),
(336,456,o),
(397,390,o),
(411,318,c),
(420,338,l),
(384,425,o),
(324,459,o),
(247,459,cs),
(135,459,o),
(61,371,o),
(61,240,cs),
(61,80,o),
(162,-10,o),
(310,-10,cs)
);
},
{
closed = 1;
nodes = (
(248,101,o),
(210,147,o),
(210,237,cs),
(210,327,o),
(249,371,o),
(309,371,cs),
(371,371,o),
(408,326,o),
(408,236,cs),
(408,147,o),
(370,101,o),
(309,101,cs)
);
},
{
closed = 1;
nodes = (
(455,625,l),
(428,708,l),
(68,571,l),
(95,486,l)
);
}
);
width = 600;
}
);
unicode = 240;
},
{
glyphname = e;
kernLeft = o;
kernRight = e.alt;
lastChange = "2025-07-26 22:35:20 +0000";
layers = (
{
anchors = (
{
name = bottom;
pos = (256,0);
},
{
name = top;
pos = (373,472);
}
);
background = {
shapes = (
{
closed = 1;
nodes = (
(339,-10,o),
(405,13,o),
(458,59,c),
(443,82,l),
(396,40,o),
(336,18,o),
(283,18,cs),
(177,18,o),
(124,82,o),
(124,191,cs),
(124,340,o),
(229,454,o),
(357,454,cs),
(417,454,o),
(461,428,o),
(491,382,c),
(513,401,l),
(481,452,o),
(428,482,o),
(358,482,cs),
(211,482,o),
(95,356,o),
(95,189,cs),
(95,64,o),
(157,-10,o),
(280,-10,cs)
);
}
);
};
layerId = "4138F7D5-0763-4B33-9A38-359ACF56B4CB";
shapes = (
{
closed = 1;
nodes = (
(339,-10,o),
(405,13,o),
(458,59,c),
(443,82,l),
(396,40,o),
(333,18,o),
(280,18,cs),
(200,18,o),
(124,63,o),
(124,185,cs),
(124,337,o),
(248,454,o),
(376,454,cs),
(442,454,o),
(488,427,o),
(488,376,cs),
(488,292,o),
(362,227,o),
(117,231,c),
(111,205,l),
(379,197,o),
(518,273,o),
(518,376,cs),
(518,444,o),
(462,482,o),
(378,482,cs),
(228,482,o),
(94,352,o),
(94,185,cs),
(94,41,o),
(184,-10,o),
(280,-10,cs)
);
}
);
width = 600;
},
{
anchors = (
{
name = bottom;
pos = (245,0);
},
{
name = top;
pos = (376,493);
}
);
background = {
shapes = (
{
closed = 1;
nodes = (
(420,-10,o),
(543,124,o),
(543,286,cs),
(543,420,o),
(455,503,o),
(334,503,cs),
(177,503,o),
(57,374,o),
(57,205,cs),
(57,49,o),
(166,-10,o),
(266,-10,cs)
);
},
{
closed = 1;
nodes = (
(247,123,o),
(207,140,o),
(207,213,cs),
(207,299,o),
(261,371,o),
(326,371,cs),
(369,371,o),
(395,339,o),
(395,282,cs),
(395,198,o),
(342,123,o),
(278,123,cs)
);
}
);
};
hints = (
{
horizontal = 1;
origin = (0,31);
target = (0,6);
type = Stem;
},
{
horizontal = 1;
origin = (0,19);
target = (0,18);
type = Stem;
},
{
horizontal = 1;
origin = (0,12);
target = (0,25);
type = Stem;
}
);
layerId = "44520DEB-933F-4740-94E3-6BE30525566A";
shapes = (
{
closed = 1;
nodes = (
(368,-10,o),
(446,19,o),
(501,72,c),
(437,157,l),
(394,119,o),
(354,101,o),
(307,101,cs),
(256,101,o),
(207,119,o),
(207,212,cs),
(207,286,o),
(266,395,o),
(355,395,cs),
(383,395,o),
(400,383,o),
(400,358,cs),
(400,296,o),
(309,262,o),
(173,272,c),
(156,178,l),
(394,178,o),
(547,235,o),
(547,373,cs),
(547,451,o),
(484,503,o),
(372,503,cs),
(178,503,o),
(58,353,o),
(58,204,cs),
(58,58,o),
(170,-10,o),
(279,-10,cs)
);
}
);
width = 600;
},
{
anchors = (
{
name = bottom;
pos = (256,0);
},
{
name = top;
pos = (373,472);
}
);
associatedMasterId = "4138F7D5-0763-4B33-9A38-359ACF56B4CB";
background = {
shapes = (
{
closed = 1;
nodes = (
(339,-10,o),
(405,13,o),
(458,59,c),
(443,82,l),
(396,40,o),
(336,18,o),
(283,18,cs),
(177,18,o),
(124,82,o),
(124,191,cs),
(124,340,o),
(229,454,o),
(357,454,cs),
(417,454,o),
(461,428,o),
(491,382,c),
(513,401,l),
(481,452,o),
(428,482,o),
(358,482,cs),
(211,482,o),
(95,356,o),
(95,189,cs),
(95,64,o),
(157,-10,o),
(280,-10,cs)
);
}
);
};
layerId = "385359C9-9F80-4C6B-A44B-9E31FEB06B93";
name = "27. Juni 25, 10:08";
shapes = (
{
closed = 1;
nodes = (
(343,-10,o),
(396,10,o),
(438,38,c),
(425,64,l),
(386,39,o),
(341,18,o),
(276,18,cs),
(196,18,o),
(124,63,o),
(124,185,cs),
(124,337,o),
(254,454,o),
(377,454,cs),
(443,454,o),
(488,427,o),
(488,376,cs),
(488,292,o),
(362,227,o),
(117,231,c),
(111,205,l),
(379,197,o),
(518,273,o),
(518,376,cs),
(518,444,o),
(462,482,o),
(378,482,cs),
(226,482,o),
(94,352,o),
(94,185,cs),
(94,41,o),
(180,-10,o),
(276,-10,cs)
);
}
);
width = 600;
}
);
unicode = 101;
},
{
glyphname = eogonek;
kernLeft = o;
kernRight = e.alt;
lastChange = "2025-07-26 22:35:45 +0000";
layers = (
{
layerId = "4138F7D5-0763-4B33-9A38-359ACF56B4CB";
shapes = (
{
closed = 1;
nodes = (
(347,-200,l),
(353,-175,l),
(315,-175,ls),
(296,-175,o),
(284,-164,o),
(284,-146,cs),
(284,-127,o),
(300,-105,o),
(318,-87,cs),
(458,59,l),
(443,82,l),
(396,40,o),
(333,18,o),
(280,18,cs),
(200,18,o),
(124,63,o),
(124,185,cs),
(124,337,o),
(248,454,o),
(376,454,cs),
(442,454,o),
(488,427,o),
(488,376,cs),
(488,292,o),
(362,227,o),
(117,231,c),
(111,205,l),
(379,197,o),
(518,273,o),
(518,376,cs),
(518,444,o),
(462,482,o),
(378,482,cs),
(228,482,o),
(94,352,o),
(94,185,cs),
(94,41,o),
(184,-10,o),
(280,-10,cs),
(314,-10,o),
(350,-3,o),
(386,13,c),
(386,18,l),
(300,-70,ls),
(268,-104,o),
(256,-126,o),
(256,-150,cs),
(256,-182,o),
(278,-200,o),
(313,-200,cs)
);
}
);
width = 600;
},
{
background = {
shapes = (
{
closed = 1;
nodes = (
(368,-10,o),
(446,19,o),
(501,72,c),
(437,157,l),
(394,119,o),
(354,101,o),
(307,101,cs),
(256,101,o),
(207,119,o),
(207,212,cs),
(207,286,o),
(266,395,o),
(355,395,cs),
(383,395,o),
(400,383,o),
(400,358,cs),
(400,296,o),
(309,262,o),
(173,272,c),
(156,178,l),
(394,178,o),
(547,235,o),
(547,373,cs),
(547,451,o),
(484,503,o),
(372,503,cs),
(178,503,o),
(58,353,o),
(58,214,cs),
(58,58,o),
(170,-10,o),
(279,-10,cs)
);
}
);
};
hints = (
{
horizontal = 1;
origin = (0,38);
target = (0,13);
type = Stem;
},
{
horizontal = 1;
origin = (0,25);
target = (0,26);
type = Stem;
},
{
horizontal = 1;
origin = (0,19);
target = (0,32);
type = Stem;
},
{
horizontal = 1;
origin = (0,0);
target = (0,1);
type = Stem;
}
);
layerId = "44520DEB-933F-4740-94E3-6BE30525566A";
shapes = (
{
closed = 1;
nodes = (
(388,-200,l),
(412,-99,l),
(394,-99,ls),
(379,-99,o),
(374,-92,o),
(374,-84,cs),
(374,-73,o),
(382,-62,o),
(393,-49,cs),
(501,72,l),
(437,156,l),
(395,121,o),
(351,101,o),
(307,101,cs),
(256,101,o),
(207,119,o),
(207,216,cs),
(207,282,o),
(267,396,o),
(356,396,cs),
(384,396,o),
(400,383,o),
(400,358,cs),
(400,297,o),
(316,264,o),
(173,270,c),
(156,178,l),
(394,178,o),
(547,235,o),
(547,373,cs),
(547,451,o),
(484,503,o),
(372,503,cs),
(178,503,o),
(58,352,o),
(58,193,cs),
(58,57,o),
(155,-10,o),
(254,-10,cs),
(305,-10,o),
(351,4,o),
(405,26,c),
(355,26,l),
(319,1,ls),
(275,-29,o),
(236,-69,o),
(236,-116,cs),
(236,-169,o),
(274,-200,o),
(324,-200,cs)
);
}
);
width = 600;
}
);
unicode = 281;
},
{
glyphname = f;
kernLeft = f;
kernRight = f;
lastChange = "2025-07-26 22:35:55 +0000";
layers = (
{
layerId = "4138F7D5-0763-4B33-9A38-359ACF56B4CB";
shapes = (
{
closed = 1;
nodes = (
(70,-200,ls),
(134,-200,o),
(188,-158,o),
(203,-94,cs),
(379,620,ls),
(391,670,o),
(432,703,o),
(482,703,cs),
(613,703,l),
(620,730,l),
(484,730,ls),
(420,730,o),
(366,688,o),
(351,624,cs),
(175,-90,ls),
(163,-140,o),
(122,-173,o),
(72,-173,cs),
(-69,-173,l),
(-76,-200,l)
);
},
{
closed = 1;
nodes = (
(579,444,l),
(586,472,l),
(117,472,l),
(110,444,l)
);
}
);
width = 600;
},
{
associatedMasterId = "44520DEB-933F-4740-94E3-6BE30525566A";
hints = (
{
horizontal = 1;
origin = (1,2);
target = (1,3);
type = Stem;
},
{
horizontal = 1;
origin = (0,7);
target = (0,5);
type = Stem;
},
{
origin = (0,11);
target = (0,1);
type = Stem;
}
);
layerId = "0820759C-8D3F-4F10-8B9A-F08693FB9527";
name = "30. Mai 25, 10:32";
shapes = (
{
closed = 1;
nodes = (
(130,-200,l),
(348,586,ls),
(351,597,o),
(362,606,o),
(373,606,cs),
(460,606,l),
(491,730,l),
(396,730,ls),
(282,730,o),
(223,677,o),
(197,583,cs),
(-21,-200,l)
);
},
{
closed = 1;
nodes = (
(391,367,l),
(422,493,l),
(86,493,l),
(55,367,l)
);
}
);
width = 377;
},
{
associatedMasterId = "44520DEB-933F-4740-94E3-6BE30525566A";
layerId = "58568A9C-59C7-4A1E-ABE2-DB0CB36D694A";
name = "30. Mai 25, 16:37";
shapes = (
{
closed = 1;
nodes = (
(154,-200,l),
(348,586,ls),
(351,597,o),
(362,606,o),
(373,606,cs),
(460,606,l),
(491,730,l),
(396,730,ls),
(282,730,o),
(220,677,o),
(197,583,cs),
(4,-200,l)
);
},
{
closed = 1;
nodes = (
(391,367,l),
(422,493,l),
(86,493,l),
(55,367,l)
);
}
);
width = 386;
},
{
background = {
shapes = (
{
closed = 1;
nodes = (
(81,-200,ls),
(189,-200,o),
(256,-150,o),
(280,-53,cs),
(438,584,ls),
(442,599,o),
(448,604,o),
(463,604,cs),
(640,604,l),
(671,730,l),
(486,730,ls),
(378,730,o),
(311,680,o),
(287,583,cs),
(129,-56,ls),
(125,-71,o),
(119,-76,o),
(104,-76,cs),
(-76,-76,l),
(-107,-200,l)
);
},
{
closed = 1;
nodes = (
(581,367,l),
(612,493,l),
(93,493,l),
(62,367,l)
);
}
);
};
hints = (
{
horizontal = 1;
place = (0,21);
target = up;
type = BottomGhost;
},
{
horizontal = 1;
origin = (0,9);
target = (0,8);
type = Stem;
},
{
horizontal = 1;
origin = (1,1);
target = (1,0);
type = Stem;
},
{
horizontal = 1;
origin = (0,19);
target = (0,18);
type = Stem;
}
);
layerId = "44520DEB-933F-4740-94E3-6BE30525566A";
name = "ExtraBold Italic";
shapes = (
{
closed = 1;
nodes = (
(81,-200,ls),
(189,-200,o),
(256,-150,o),
(280,-53,cs),
(443,606,ls),
(447,621,o),
(453,626,o),
(468,626,cs),
(645,626,l),
(671,730,l),
(486,730,ls),
(378,730,o),
(311,680,o),
(287,583,cs),
(125,-74,ls),
(121,-89,o),
(115,-94,o),
(100,-94,cs),
(-80,-94,l),
(-107,-200,l)
);
},
{
closed = 1;
nodes = (
(586,387,l),
(612,493,l),
(93,493,l),
(67,387,l)
);
}
);
width = 600;
}
);
unicode = 102;
},
{
glyphname = g;
kernLeft = d;
kernRight = u;
lastChange = "2025-07-26 22:36:17 +0000";
layers = (
{
anchors = (
{
name = bottom;
pos = (188,-200);
},
{
name = top;
pos = (356,472);
}
);
background = {
shapes = (
{
closed = 1;
nodes = (
(331,-10,o),
(409,35,o),
(442,102,c),
(439,105,l),
(421,42,o),
(449,0,o),
(512,0,cs),
(534,0,l),
(541,27,l),
(516,27,ls),
(475,27,o),
(455,53,o),
(465,95,cs),
(558,472,l),
(528,472,l),
(492,324,l),
(498,327,l),
(491,425,o),
(432,482,o),
(340,482,cs),
(198,482,o),
(85,357,o),
(85,183,cs),
(85,50,o),
(169,-10,o),
(252,-10,cs)
);
},
{
closed = 1;
nodes = (
(187,18,o),
(114,66,o),
(114,187,cs),
(114,341,o),
(215,455,o),
(341,455,cs),
(427,455,o),
(477,391,o),
(477,283,cs),
(477,167,o),
(392,18,o),
(257,18,cs)
);
}
);
};
layerId = "4138F7D5-0763-4B33-9A38-359ACF56B4CB";
shapes = (
{
closed = 1;
nodes = (
(286,-200,ls),
(350,-200,o),
(403,-158,o),
(419,-94,cs),
(558,472,l),
(528,472,l),
(489,314,l),
(496,316,l),
(490,426,o),
(432,482,o),
(338,482,cs),
(192,482,o),
(85,353,o),
(85,183,cs),
(85,36,o),
(175,-10,o),
(256,-10,cs),
(339,-10,o),
(419,47,o),
(461,136,c),
(448,141,l),
(391,-90,ls),
(379,-137,o),
(335,-173,o),
(288,-173,cs),
(37,-173,l),
(30,-200,l)
);
},
{
closed = 1;
nodes = (
(198,17,o),
(114,57,o),
(114,187,cs),
(114,339,o),
(212,454,o),
(342,454,cs),
(427,454,o),
(477,391,o),
(477,283,cs),
(477,149,o),
(379,17,o),
(255,17,cs)
);
}
);
width = 600;
},
{
anchors = (
{
name = bottom;
pos = (173,-200);
},
{
name = top;
pos = (345,493);
}
);
background = {
shapes = (
{
closed = 1;
nodes = (
(296,-10,o),
(348,34,o),
(379,109,c),
(362,109,l),
(362,34,o),
(398,0,o),
(479,0,cs),
(535,0,l),
(562,106,l),
(513,106,ls),
(498,106,o),
(494,111,o),
(498,126,cs),
(589,493,l),
(439,493,l),
(409,377,l),
(425,402,l),
(414,466,o),
(375,503,o),
(305,503,cs),
(163,503,o),
(52,358,o),
(52,187,cs),
(52,35,o),
(140,-10,o),
(216,-10,cs)
);
},
{
closed = 1;
nodes = (
(225,102,o),
(202,135,o),
(202,191,cs),
(202,300,o),
(258,392,o),
(329,392,cs),
(369,392,o),
(395,363,o),
(395,313,cs),
(395,199,o),
(337,102,o),
(268,102,cs)
);
}
);
};
hints = (
{
horizontal = 1;
origin = (0,26);
target = (0,25);
type = Stem;
},
{
horizontal = 1;
origin = (1,11);
target = (0,16);
type = Stem;
},
{
horizontal = 1;
origin = (1,5);
target = (0,10);
type = Stem;
}
);
layerId = "44520DEB-933F-4740-94E3-6BE30525566A";
shapes = (
{
closed = 1;
nodes = (
(255,-200,ls),
(362,-200,o),
(430,-150,o),
(454,-53,cs),
(588,493,l),
(438,493,l),
(413,392,l),
(429,392,l),
(414,472,o),
(371,503,o),
(297,503,cs),
(165,503,o),
(52,358,o),
(52,187,cs),
(52,55,o),
(132,0,o),
(206,0,cs),
(280,0,o),
(330,24,o),
(380,116,c),
(361,116,l),
(314,-74,ls),
(310,-89,o),
(304,-94,o),
(289,-94,cs),
(16,-94,l),
(-10,-200,l)
);
},
{
closed = 1;
nodes = (
(224,112,o),
(201,145,o),
(201,195,cs),
(201,304,o),
(257,392,o),
(328,392,cs),
(368,392,o),
(394,363,o),
(394,313,cs),
(394,199,o),
(336,112,o),
(267,112,cs)
);
}
);
width = 600;
}
);
unicode = 103;
},
{
glyphname = h;
kernLeft = h;
kernRight = n;
lastChange = "2025-07-26 22:36:25 +0000";
layers = (
{
anchors = (
{
name = center;
pos = (251,600);
},
{
name = top;
pos = (255,700);
}
);
background = {
shapes = (
{
ref = n;
}
);
};
layerId = "4138F7D5-0763-4B33-9A38-359ACF56B4CB";
shapes = (
{
closed = 1;
nodes = (
(100,0,l),
(166,271,ls),
(194,386,o),
(246,454,o),
(344,454,cs),
(440,454,o),
(480,381,o),
(453,271,cs),
(411,100,ls),
(396,40,o),
(426,0,o),
(487,0,cs),
(509,0,l),
(516,27,l),
(491,27,ls),
(450,27,o),
(430,54,o),
(440,95,cs),
(482,269,ls),
(513,395,o),
(458,482,o),
(347,482,cs),
(269,482,o),
(213,444,o),
(169,348,c),
(183,348,l),
(278,730,l),
(251,730,l),
(71,0,l)
);
}
);
width = 600;
},
{
anchors = (
{
name = center;
pos = (240,600);
},
{
name = top;
pos = (238,700);
}
);
hints = (
{
horizontal = 1;
origin = (0,4);
target = (0,21);
type = Stem;
},
{
horizontal = 1;
place = (0,21);
target = up;
type = BottomGhost;
},
{
horizontal = 1;
origin = (0,12);
target = (0,13);
type = Stem;
}
);
layerId = "44520DEB-933F-4740-94E3-6BE30525566A";
shapes = (
{
closed = 1;
nodes = (
(150,0,l),
(224,303,ls),
(237,356,o),
(268,387,o),
(309,387,cs),
(358,387,o),
(379,356,o),
(366,303,cs),
(325,135,ls),
(305,53,o),
(346,0,o),
(439,0,cs),
(516,0,l),
(543,106,l),
(494,106,ls),
(474,106,o),
(471,113,o),
(474,125,cs),
(516,298,ls),
(548,427,o),
(504,503,o),
(396,503,cs),
(314,503,o),
(245,444,o),
(211,355,c),
(231,355,l),
(325,730,l),
(180,730,l),
(-1,0,l)
);
}
);
width = 600;
},
{
anchors = (
{
name = center;
pos = (238,600);
},
{
name = top;
pos = (238,700);
}
);
associatedMasterId = "44520DEB-933F-4740-94E3-6BE30525566A";
layerId = "20C9D0DF-50FE-4E28-B01A-9E2E5F9D78EB";
name = "4. Juni 25, 23:45";
shapes = (
{
closed = 1;
nodes = (
(150,0,l),
(220,286,ls),
(234,342,o),
(249,367,o),
(294,367,cs),
(337,367,o),
(353,338,o),
(339,280,cs),
(304,137,ls),
(283,51,o),
(324,0,o),
(411,0,cs),
(487,0,l),
(518,124,l),
(471,124,ls),
(456,124,o),
(452,129,o),
(456,144,cs),
(489,278,ls),
(526,425,o),
(474,503,o),
(363,503,cs),
(317,503,o),
(239,480,o),
(192,355,c),
(232,355,l),
(324,730,l),
(179,730,l),
(0,0,l)
);
}
);
width = 554;
}
);
unicode = 104;
},
{
glyphname = idotless;
kernLeft = i;
kernRight = i;
lastChange = "2025-07-26 22:36:32 +0000";
layers = (
{
anchors = (
{
name = bottom;
pos = (226,0);
},
{
name = ogonek;
pos = (473,0);
},
{
name = top;
pos = (341,472);
}
);
layerId = "4138F7D5-0763-4B33-9A38-359ACF56B4CB";
shapes = (
{
closed = 1;
nodes = (
(473,0,l),
(480,27,l),
(315,27,ls),
(274,27,o),
(254,54,o),
(264,95,cs),
(356,472,l),
(128,472,l),
(121,444,l),
(333,444,l),
(323,457,l),
(235,100,ls),
(220,40,o),
(250,0,o),
(311,0,cs)
);
}
);
width = 600;
},
{
anchors = (
{
name = bottom;
pos = (225,0);
},
{
name = ogonek;
pos = (490,0);
},
{
name = top;
pos = (330,493);
}
);
background = {
shapes = (
{
closed = 1;
nodes = (
(490,0,l),
(521,124,l),
(334,124,ls),
(319,124,o),
(315,129,o),
(319,144,cs),
(405,493,l),
(100,493,l),
(69,367,l),
(292,367,l),
(240,433,l),
(167,137,ls),
(146,51,o),
(187,0,o),
(274,0,cs)
);
}
);
};
hints = (
{
horizontal = 1;
origin = (0,7);
target = (0,9);
type = Stem;
},
{
horizontal = 1;
origin = (0,0);
target = (0,1);
type = Stem;
}
);
layerId = "44520DEB-933F-4740-94E3-6BE30525566A";
shapes = (
{
closed = 1;
nodes = (
(490,0,l),
(517,106,l),
(330,106,ls),
(315,106,o),
(311,111,o),
(315,126,cs),
(405,493,l),
(100,493,l),
(73,385,l),
(296,385,l),
(240,433,l),
(167,137,ls),
(146,51,o),
(187,0,o),
(274,0,cs)
);
}
);
width = 600;
}
);
unicode = 305;
},
{
glyphname = jdotless;
kernLeft = i;
kernRight = i;
lastChange = "2025-07-26 22:36:36 +0000";
layers = (
{
anchors = (
{
name = top;
pos = (451,472);
}
);
layerId = "4138F7D5-0763-4B33-9A38-359ACF56B4CB";
shapes = (
{
closed = 1;
nodes = (
(192,-200,ls),
(260,-200,o),
(310,-160,o),
(327,-93,cs),
(466,472,l),
(166,472,l),
(159,444,l),
(443,444,l),
(433,457,l),
(299,-89,ls),
(286,-139,o),
(245,-173,o),
(195,-173,cs),
(-17,-173,l),
(-24,-200,l)
);
}
);
width = 600;
},
{
anchors = (
{
name = top;
pos = (444,493);
}
);
background = {
shapes = (
{
closed = 1;
nodes = (
(155,-200,ls),
(286,-200,o),
(359,-146,o),
(388,-26,cs),
(515,493,l),
(112,493,l),
(81,367,l),
(402,367,l),
(350,433,l),
(230,-56,ls),
(226,-71,o),
(220,-76,o),
(205,-76,cs),
(-28,-76,l),
(-58,-200,l)
);
}
);
};
hints = (
{
horizontal = 1;
origin = (0,14);
target = (0,13);
type = Stem;
},
{
horizontal = 1;
origin = (0,5);
target = (0,7);
type = Stem;
}
);
layerId = "44520DEB-933F-4740-94E3-6BE30525566A";
shapes = (
{
closed = 1;
nodes = (
(155,-200,ls),
(286,-200,o),
(359,-146,o),
(388,-26,cs),
(515,493,l),
(112,493,l),
(86,387,l),
(407,387,l),
(350,433,l),
(225,-74,ls),
(221,-89,o),
(215,-94,o),
(200,-94,cs),
(-33,-94,l),
(-58,-200,l)
);
}
);
width = 600;
}
);
unicode = 567;
},
{
glyphname = k;
kernLeft = h;
kernRight = k;
lastChange = "2025-07-26 22:36:52 +0000";
layers = (
{
anchors = (
{
name = bottom;
pos = (255,0);
}
);
background = {
shapes = (
{
ref = h;
}
);
};
layerId = "4138F7D5-0763-4B33-9A38-359ACF56B4CB";
shapes = (
{
closed = 1;
nodes = (
(100,0,l),
(279,730,l),
(250,730,l),
(70,0,l)
);
},
{
closed = 1;
nodes = (
(568,472,l),
(523,472,l),
(135,188,l),
(126,148,l)
);
},
{
closed = 1;
nodes = (
(491,0,l),
(498,27,l),
(460,27,ls),
(425,27,o),
(406,42,o),
(391,78,cs),
(299,299,l),
(274,280,l),
(364,65,ls),
(383,20,o),
(410,0,o),
(457,0,cs)
);
}
);
width = 600;
},
{
anchors = (
{
name = bottom;
pos = (234,0);
}
);
hints = (
{
horizontal = 1;
place = (493,-20);
target = down;
type = TopGhost;
},
{
horizontal = 1;
origin = (0,2);
target = down;
type = TopGhost;
},
{
horizontal = 1;
origin = (2,0);
target = (2,1);
type = Stem;
}
);
layerId = "44520DEB-933F-4740-94E3-6BE30525566A";
shapes = (
{
closed = 1;
nodes = (
(161,0,l),
(341,730,l),
(191,730,l),
(11,0,l)
);
},
{
closed = 1;
nodes = (
(634,493,l),
(462,493,l),
(210,261,l),
(138,51,l)
);
},
{
closed = 1;
nodes = (
(524,0,l),
(550,106,l),
(482,106,ls),
(476,106,o),
(471,108,o),
(469,114,cs),
(395,325,l),
(277,226,l),
(319,102,ls),
(345,25,o),
(370,0,o),
(437,0,cs)
);
}
);
width = 600;
},
{
anchors = (
{
name = bottom;
pos = (226,0);
}
);
associatedMasterId = "44520DEB-933F-4740-94E3-6BE30525566A";
hints = (
{
horizontal = 1;
origin = (0,3);
target = up;
type = BottomGhost;
},
{
horizontal = 1;
origin = (0,26);
target = down;
type = TopGhost;
},
{
origin = (0,27);
target = (0,25);
type = Stem;
}
);
layerId = "0BB058A3-2EF9-49B7-A537-3DE08ED439FD";
name = "30. Mai 25, 12:28";
shapes = (
{
closed = 1;
nodes = (
(21,0,l),
(21,-2,l),
(23,0,l),
(148,0,l),
(212,260,ls),
(231,336,o),
(292,384,o),
(356,384,cs),
(381,384,o),
(394,372,o),
(394,353,cs),
(394,304,o),
(307,261,o),
(177,245,c),
(160,150,l),
(390,171,o),
(543,263,o),
(543,379,cs),
(543,449,o),
(494,503,o),
(400,503,cs),
(339,503,o),
(279,478,o),
(247,431,c),
(245,393,l),
(328,730,l),
(178,730,l),
(-2,0,l)
);
},
{
closed = 1;
nodes = (
(479,0,l),
(394,252,l),
(249,204,l),
(310,0,l)
);
}
);
width = 600;
}
);
unicode = 107;
},
{
glyphname = l;
kernLeft = l;
kernRight = l;
lastChange = "2025-07-26 22:36:58 +0000";
layers = (
{
anchors = (
{
name = bottom;
pos = (349,0);
},
{
name = center;
pos = (285,365);
},
{
name = top;
pos = (369,730);
},
{
name = topright;
pos = (540,730);
}
);
layerId = "4138F7D5-0763-4B33-9A38-359ACF56B4CB";
shapes = (
{
closed = 1;
nodes = (
(489,0,l),
(496,27,l),
(289,27,ls),
(244,27,o),
(219,60,o),
(230,105,cs),
(384,730,l),
(175,730,l),
(168,703,l),
(361,703,l),
(351,716,l),
(201,105,ls),
(186,44,o),
(219,0,o),
(281,0,cs)
);
}
);
width = 600;
},
{
anchors = (
{
name = bottom;
pos = (253,0);
},
{
name = center;
pos = (301,365);
},
{
name = top;
pos = (385,730);
},
{
name = topright;
pos = (520,730);
}
);
background = {
shapes = (
{
closed = 1;
nodes = (
(504,0,l),
(535,124,l),
(328,124,ls),
(317,124,o),
(310,133,o),
(313,144,cs),
(459,730,l),
(166,730,l),
(135,604,l),
(345,604,l),
(294,671,l),
(168,166,ls),
(143,66,o),
(199,0,o),
(308,0,cs)
);
}
);
};
hints = (
{
horizontal = 1;
origin = (0,0);
target = (0,2);
type = Stem;
},
{
horizontal = 1;
origin = (0,8);
target = (0,7);
type = Stem;
}
);
layerId = "44520DEB-933F-4740-94E3-6BE30525566A";
shapes = (
{
closed = 1;
nodes = (
(504,0,l),
(531,106,l),
(324,106,ls),
(313,106,o),
(306,115,o),
(309,126,cs),
(459,730,l),
(166,730,l),
(140,624,l),
(350,624,l),
(294,671,l),
(168,166,ls),
(143,66,o),
(199,0,o),
(308,0,cs)
);
}
);
width = 600;
}
);
unicode = 108;
},
{
glyphname = m;
kernLeft = n;
kernRight = n;
lastChange = "2025-07-26 22:37:04 +0000";
layers = (
{
anchors = (
{
name = bottom;
pos = (215,0);
},
{
name = top;
pos = (334,472);
}
);
layerId = "4138F7D5-0763-4B33-9A38-359ACF56B4CB";
shapes = (
{
closed = 1;
nodes = (
(25,0,l),
(93,276,ls),
(123,399,o),
(165,454,o),
(226,454,cs),
(283,454,o),
(305,409,o),
(285,328,cs),
(204,0,l),
(233,0,l),
(314,325,ls),
(335,408,o),
(372,454,o),
(428,454,cs),
(489,454,o),
(509,398,o),
(488,315,cs),
(429,80,ls),
(417,32,o),
(436,0,o),
(485,0,cs),
(513,0,l),
(520,27,l),
(492,27,ls),
(466,27,o),
(450,44,o),
(458,77,cs),
(517,319,ls),
(541,418,o),
(512,482,o),
(436,482,cs),
(382,482,o),
(342,452,o),
(315,393,c),
(320,392,l),
(317,450,o),
(286,482,o),
(234,482,cs),
(177,482,o),
(136,443,o),
(105,357,c),
(112,355,l),
(140,472,l),
(113,472,l),
(-4,0,l)
);
}
);
width = 600;
},
{
anchors = (
{
name = bottom;
pos = (230,0);
},
{
name = top;
pos = (352,493);
}
);
background = {
shapes = (
{
closed = 1;
nodes = (
(102,0,l),
(186,338,ls),
(193,366,o),
(205,380,o),
(223,380,cs),
(242,380,o),
(251,365,o),
(245,340,cs),
(162,0,l),
(289,0,l),
(375,342,ls),
(381,366,o),
(394,380,o),
(410,380,cs),
(428,380,o),
(439,368,o),
(432,339,cs),
(381,129,ls),
(360,43,o),
(394,0,o),
(455,0,cs),
(514,0,l),
(542,110,l),
(513,110,ls),
(506,110,o),
(503,115,o),
(505,123,cs),
(560,337,ls),
(585,435,o),
(553,500,o),
(480,500,cs),
(415,500,o),
(373,464,o),
(349,395,c),
(369,395,l),
(374,465,o),
(355,500,o),
(301,500,cs),
(263,500,o),
(218,480,o),
(194,408,c),
(198,408,l),
(221,493,l),
(100,493,l),
(-25,0,l)
);
}
);
};
hints = (
{
horizontal = 1;
origin = (0,4);
target = (0,37);
type = Stem;
},
{
horizontal = 1;
place = (0,21);
target = up;
type = BottomGhost;
}
);
layerId = "44520DEB-933F-4740-94E3-6BE30525566A";
shapes = (
{
closed = 1;
nodes = (
(102,0,l),
(188,345,ls),
(195,373,o),
(207,387,o),
(225,387,cs),
(244,387,o),
(253,372,o),
(247,347,cs),
(162,0,l),
(289,0,l),
(377,349,ls),
(383,373,o),
(396,387,o),
(412,387,cs),
(430,387,o),
(441,375,o),
(434,346,cs),
(381,129,ls),
(360,43,o),
(394,0,o),
(455,0,cs),
(514,0,l),
(541,106,l),
(512,106,ls),
(505,106,o),
(502,111,o),
(504,119,cs),
(560,337,ls),
(585,435,o),
(553,500,o),
(480,500,cs),
(415,500,o),
(373,464,o),
(349,395,c),
(369,395,l),
(374,465,o),
(355,500,o),
(301,500,cs),
(263,500,o),
(218,480,o),
(194,408,c),
(198,408,l),
(221,493,l),
(100,493,l),
(-25,0,l)
);
}
);
width = 600;
},
{
associatedMasterId = "44520DEB-933F-4740-94E3-6BE30525566A";
layerId = "1F2D92C1-A18E-4386-BAC4-ABE843DEF858";
name = "4. Juni 25, 23:44";
shapes = (
{
closed = 1;
nodes = (
(148,0,l),
(223,306,ls),
(234,346,o),
(255,367,o),
(292,367,cs),
(334,367,o),
(350,336,o),
(339,289,cs),
(268,0,l),
(418,0,l),
(493,296,ls),
(505,343,o),
(526,367,o),
(561,367,cs),
(603,367,o),
(620,336,o),
(609,289,cs),
(572,137,ls),
(551,51,o),
(592,0,o),
(679,0,cs),
(755,0,l),
(786,124,l),
(739,124,ls),
(724,124,o),
(720,129,o),
(724,144,cs),
(757,278,ls),
(793,425,o),
(720,503,o),
(619,503,cs),
(562,503,o),
(491,483,o),
(437,395,c),
(493,395,l),
(478,467,o),
(425,503,o),
(369,503,cs),
(318,503,o),
(270,490,o),
(221,418,c),
(245,418,l),
(264,493,l),
(119,493,l),
(-2,0,l)
);
}
);
width = 600;
},
{
associatedMasterId = "4138F7D5-0763-4B33-9A38-359ACF56B4CB";
layerId = "DE3BA6D9-503F-4210-A356-01904E26ECC3";
name = "27. Juni 25, 10:13";
shapes = (
{
closed = 1;
nodes = (
(59,0,l),
(126,272,ls),
(155,392,o),
(204,454,o),
(295,454,cs),
(374,454,o),
(429,401,o),
(397,271,cs),
(331,0,l),
(359,0,l),
(426,272,ls),
(455,392,o),
(500,454,o),
(594,454,cs),
(664,454,o),
(727,402,o),
(692,262,cs),
(651,100,ls),
(636,40,o),
(665,0,o),
(726,0,cs),
(748,0,l),
(755,27,l),
(730,27,ls),
(689,27,o),
(669,53,o),
(679,95,cs),
(720,263,ls),
(758,420,o),
(681,482,o),
(596,482,cs),
(523,482,o),
(466,445,o),
(425,343,c),
(434,342,l),
(433,439,o),
(372,482,o),
(299,482,cs),
(227,482,o),
(175,446,o),
(137,357,c),
(145,355,l),
(174,472,l),
(147,472,l),
(31,0,l)
);
}
);
width = 600;
},
{
associatedMasterId = "44520DEB-933F-4740-94E3-6BE30525566A";
layerId = "343F1E44-2F97-4451-8974-46354026A543";
name = "27. Juni 25, 15:18";
shapes = (
{
closed = 1;
nodes = (
(148,0,l),
(222,299,ls),
(233,344,o),
(261,367,o),
(300,367,cs),
(347,367,o),
(368,339,o),
(356,290,cs),
(285,0,l),
(435,0,l),
(511,298,ls),
(522,341,o),
(551,367,o),
(589,367,cs),
(635,367,o),
(655,340,o),
(644,293,cs),
(605,133,ls),
(585,51,o),
(628,0,o),
(719,0,cs),
(795,0,l),
(826,124,l),
(778,124,ls),
(760,124,o),
(755,129,o),
(759,146,cs),
(792,280,ls),
(828,426,o),
(748,503,o),
(643,503,cs),
(583,503,o),
(508,483,o),
(454,395,c),
(510,395,l),
(494,465,o),
(439,503,o),
(377,503,cs),
(322,503,o),
(270,490,o),
(221,418,c),
(245,418,l),
(264,493,l),
(119,493,l),
(-2,0,l)
);
}
);
width = 600;
}
);
unicode = 109;
},
{
glyphname = n;
kernLeft = n;
kernRight = n;
lastChange = "2025-07-26 22:37:11 +0000";
layers = (
{
anchors = (
{
name = bottom;
pos = (254,0);
},
{
name = top;
pos = (370,472);
}
);
background = {
shapes = (
{
closed = 1;
nodes = (
(107,0,l),
(173,271,ls),
(201,386,o),
(253,454,o),
(351,454,cs),
(447,454,o),
(487,381,o),
(460,271,cs),
(418,100,ls),
(403,40,o),
(433,0,o),
(494,0,cs),
(516,0,l),
(523,27,l),
(498,27,ls),
(457,27,o),
(437,54,o),
(447,95,cs),
(489,269,ls),
(520,395,o),
(468,482,o),
(357,482,cs),
(279,482,o),
(225,444,o),
(181,348,c),
(190,348,l),
(221,472,l),
(194,472,l),
(78,0,l)
);
}
);
};
layerId = "4138F7D5-0763-4B33-9A38-359ACF56B4CB";
shapes = (
{
closed = 1;
nodes = (
(100,0,l),
(166,271,ls),
(194,386,o),
(246,454,o),
(344,454,cs),
(440,454,o),
(480,381,o),
(453,271,cs),
(411,100,ls),
(396,40,o),
(426,0,o),
(487,0,cs),
(509,0,l),
(516,27,l),
(491,27,ls),
(450,27,o),
(430,54,o),
(440,95,cs),
(482,269,ls),
(513,395,o),
(459,482,o),
(348,482,cs),
(270,482,o),
(214,444,o),
(170,348,c),
(183,348,l),
(214,472,l),
(187,472,l),
(71,0,l)
);
}
);
width = 600;
},
{
anchors = (
{
name = bottom;
pos = (230,0);
},
{
name = top;
pos = (354,493);
}
);
background = {
shapes = (
{
closed = 1;
nodes = (
(149,0,l),
(218,283,ls),
(231,336,o),
(262,367,o),
(303,367,cs),
(352,367,o),
(373,336,o),
(360,283,cs),
(324,135,ls),
(304,53,o),
(345,0,o),
(438,0,cs),
(515,0,l),
(546,124,l),
(497,124,ls),
(477,124,o),
(474,131,o),
(477,143,cs),
(511,280,ls),
(547,425,o),
(490,503,o),
(381,503,cs),
(319,503,o),
(238,479,o),
(190,355,c),
(230,355,l),
(264,493,l),
(119,493,l),
(-2,0,l)
);
}
);
};
hints = (
{
horizontal = 1;
place = (0,21);
target = up;
type = BottomGhost;
},
{
horizontal = 1;
origin = (0,4);
target = (0,21);
type = Stem;
}
);
layerId = "44520DEB-933F-4740-94E3-6BE30525566A";
shapes = (
{
closed = 1;
nodes = (
(149,0,l),
(223,303,ls),
(236,356,o),
(267,387,o),
(308,387,cs),
(357,387,o),
(378,356,o),
(365,303,cs),
(324,135,ls),
(304,53,o),
(345,0,o),
(438,0,cs),
(515,0,l),
(542,106,l),
(493,106,ls),
(473,106,o),
(470,113,o),
(473,125,cs),
(515,298,ls),
(547,427,o),
(503,503,o),
(395,503,cs),
(313,503,o),
(244,444,o),
(210,355,c),
(230,355,l),
(264,493,l),
(119,493,l),
(-2,0,l)
);
}
);
width = 600;
},
{
anchors = (
{
name = bottom;
pos = (222,0);
},
{
name = top;
pos = (338,472);
}
);
associatedMasterId = "4138F7D5-0763-4B33-9A38-359ACF56B4CB";
layerId = "1E3DA034-1FE9-4D9D-8F05-DA298818A964";
name = "4. Juni 25, 21:11";
shapes = (
{
closed = 1;
nodes = (
(60,0,l),
(126,271,ls),
(154,386,o),
(206,454,o),
(304,454,cs),
(400,454,o),
(440,381,o),
(413,271,cs),
(373,109,ls),
(357,45,o),
(396,0,o),
(457,0,cs),
(479,0,l),
(486,27,l),
(461,27,ls),
(413,27,o),
(391,58,o),
(402,105,cs),
(442,269,ls),
(473,395,o),
(421,482,o),
(310,482,cs),
(232,482,o),
(178,444,o),
(134,348,c),
(143,348,l),
(174,472,l),
(147,472,l),
(31,0,l)
);
}
);
width = 535;
},
{
anchors = (
{
name = bottom;
pos = (217,0);
},
{
name = top;
pos = (341,493);
}
);
associatedMasterId = "44520DEB-933F-4740-94E3-6BE30525566A";
layerId = "9AD2ECFE-3EDF-48F6-84F0-9E270090E62C";
name = "4. Juni 25, 23:44";
shapes = (
{
closed = 1;
nodes = (
(148,0,l),
(218,286,ls),
(232,342,o),
(247,367,o),
(292,367,cs),
(335,367,o),
(351,338,o),
(337,280,cs),
(302,137,ls),
(281,51,o),
(322,0,o),
(409,0,cs),
(485,0,l),
(516,124,l),
(469,124,ls),
(454,124,o),
(450,129,o),
(454,144,cs),
(487,278,ls),
(524,425,o),
(472,503,o),
(361,503,cs),
(315,503,o),
(237,480,o),
(190,355,c),
(230,355,l),
(264,493,l),
(119,493,l),
(-2,0,l)
);
}
);
width = 600;
},
{
anchors = (
{
name = bottom;
pos = (230,0);
},
{
name = top;
pos = (354,493);
}
);
associatedMasterId = "44520DEB-933F-4740-94E3-6BE30525566A";
background = {
shapes = (
{
closed = 1;
nodes = (
(149,0,l),
(218,283,ls),
(231,336,o),
(262,367,o),
(303,367,cs),
(352,367,o),
(373,336,o),
(360,283,cs),
(324,135,ls),
(304,53,o),
(345,0,o),
(438,0,cs),
(515,0,l),
(546,124,l),
(497,124,ls),
(477,124,o),
(474,131,o),
(477,143,cs),
(511,280,ls),
(547,425,o),
(490,503,o),
(381,503,cs),
(319,503,o),
(238,479,o),
(190,355,c),
(230,355,l),
(264,493,l),
(119,493,l),
(-2,0,l)
);
}
);
};
layerId = "ABD952AA-3A44-4CFB-AEE2-64B449130320";
name = "30. Juni 25, 12:33";
shapes = (
{
closed = 1;
nodes = (
(149,0,l),
(218,283,ls),
(231,336,o),
(262,367,o),
(303,367,cs),
(352,367,o),
(373,336,o),
(360,283,cs),
(324,135,ls),
(304,53,o),
(345,0,o),
(438,0,cs),
(515,0,l),
(546,124,l),
(497,124,ls),
(477,124,o),
(474,131,o),
(477,143,cs),
(511,280,ls),
(547,425,o),
(490,503,o),
(381,503,cs),
(319,503,o),
(238,479,o),
(190,355,c),
(230,355,l),
(264,493,l),
(119,493,l),
(-2,0,l)
);
}
);
width = 600;
}
);
unicode = 110;
},
{
glyphname = eng;
kernLeft = n;
kernRight = n;
lastChange = "2025-07-26 22:37:17 +0000";
layers = (
{
layerId = "4138F7D5-0763-4B33-9A38-359ACF56B4CB";
shapes = (
{
closed = 1;
nodes = (
(263,-200,ls),
(327,-200,o),
(376,-161,o),
(393,-92,cs),
(481,266,ls),
(513,396,o),
(462,482,o),
(348,482,cs),
(274,482,o),
(215,444,o),
(172,348,c),
(183,348,l),
(214,472,l),
(187,472,l),
(71,0,l),
(99,0,l),
(166,273,ls),
(194,387,o),
(250,454,o),
(342,454,cs),
(441,454,o),
(481,382,o),
(454,272,cs),
(366,-86,ls),
(353,-139,o),
(314,-173,o),
(266,-173,cs),
(227,-173,l),
(220,-200,l)
);
}
);
width = 600;
},
{
background = {
shapes = (
{
closed = 1;
nodes = (
(222,-200,ls),
(369,-200,o),
(430,-157,o),
(461,-27,cs),
(535,280,ls),
(571,427,o),
(514,503,o),
(419,503,cs),
(337,503,o),
(268,444,o),
(234,355,c),
(254,355,l),
(288,493,l),
(143,493,l),
(22,0,l),
(173,0,l),
(247,303,ls),
(260,356,o),
(291,387,o),
(332,387,cs),
(381,387,o),
(402,356,o),
(389,303,cs),
(301,-55,ls),
(297,-72,o),
(286,-76,o),
(267,-76,cs),
(203,-76,l),
(173,-200,l)
);
}
);
};
hints = (
{
horizontal = 1;
place = (0,21);
target = up;
type = BottomGhost;
},
{
horizontal = 1;
origin = (0,19);
target = (0,7);
type = Stem;
},
{
horizontal = 1;
origin = (0,28);
target = (0,27);
type = Stem;
}
);
layerId = "44520DEB-933F-4740-94E3-6BE30525566A";
shapes = (
{
closed = 1;
nodes = (
(222,-200,ls),
(369,-200,o),
(430,-157,o),
(461,-27,cs),
(540,299,ls),
(571,428,o),
(526,503,o),
(419,503,cs),
(337,503,o),
(268,444,o),
(234,355,c),
(254,355,l),
(288,493,l),
(143,493,l),
(22,0,l),
(173,0,l),
(247,303,ls),
(260,356,o),
(291,387,o),
(332,387,cs),
(381,387,o),
(402,356,o),
(389,303,cs),
(299,-65,ls),
(295,-82,o),
(284,-86,o),
(265,-86,cs),
(201,-86,l),
(173,-200,l)
);
}
);
width = 600;
},
{
associatedMasterId = "44520DEB-933F-4740-94E3-6BE30525566A";
layerId = "23C9C719-4186-4C23-8442-4937F6926EF0";
name = "4. Juni 25, 23:45";
shapes = (
{
closed = 1;
nodes = (
(179,-200,ls),
(310,-200,o),
(383,-146,o),
(412,-26,cs),
(487,278,ls),
(524,424,o),
(472,503,o),
(361,503,cs),
(315,503,o),
(237,480,o),
(190,355,c),
(230,355,l),
(264,493,l),
(119,493,l),
(-2,0,l),
(148,0,l),
(218,286,ls),
(232,342,o),
(247,367,o),
(292,367,cs),
(335,367,o),
(351,338,o),
(337,280,cs),
(254,-56,ls),
(250,-71,o),
(244,-76,o),
(229,-76,cs),
(166,-76,l),
(136,-200,l)
);
}
);
width = 533;
}
);
unicode = 331;
},
{
glyphname = o;
kernLeft = o;
kernRight = o;
lastChange = "2025-07-26 22:37:23 +0000";
layers = (
{
anchors = (
{
name = bottom;
pos = (235,0);
},
{
name = center;
pos = (300,236);
},
{
name = top;
pos = (358,472);
},
{
name = topright;
pos = (414,472);
}
);
layerId = "4138F7D5-0763-4B33-9A38-359ACF56B4CB";
shapes = (
{
closed = 1;
nodes = (
(408,-10,o),
(516,124,o),
(516,302,cs),
(516,410,o),
(447,482,o),
(341,482,cs),
(196,482,o),
(86,351,o),
(86,178,cs),
(86,65,o),
(157,-10,o),
(265,-10,cs)
);
},
{
closed = 1;
nodes = (
(175,18,o),
(115,82,o),
(115,179,cs),
(115,336,o),
(213,454,o),
(342,454,cs),
(429,454,o),
(487,393,o),
(487,302,cs),
(487,140,o),
(392,18,o),
(266,18,cs)
);
}
);
width = 600;
},
{
anchors = (
{
name = bottom;
pos = (259,0);
},
{
name = center;
pos = (297,247);
},
{
name = top;
pos = (358,493);
},
{
name = topright;
pos = (393,493);
}
);
hints = (
{
horizontal = 1;
origin = (0,5);
target = (1,5);
type = Stem;
},
{
horizontal = 1;
origin = (0,11);
target = (1,11);
type = Stem;
}
);
layerId = "44520DEB-933F-4740-94E3-6BE30525566A";
shapes = (
{
closed = 1;
nodes = (
(420,-10,o),
(543,124,o),
(543,286,cs),
(543,420,o),
(455,503,o),
(334,503,cs),
(177,503,o),
(58,372,o),
(58,203,cs),
(58,47,o),
(166,-10,o),
(266,-10,cs)
);
},
{
closed = 1;
nodes = (
(230,103,o),
(207,134,o),
(207,193,cs),
(207,300,o),
(264,391,o),
(331,391,cs),
(373,391,o),
(395,361,o),
(395,302,cs),
(395,195,o),
(340,103,o),
(275,103,cs)
);
}
);
width = 600;
},
{
anchors = (
{
name = center;
pos = (275,236);
},
{
name = top;
pos = (275,472);
},
{
name = topright;
pos = (328,472);
}
);
associatedMasterId = "4138F7D5-0763-4B33-9A38-359ACF56B4CB";
layerId = "6720FA61-F2AF-451E-8822-FF21B5BC1CD9";
name = "30. Apr. 25, 14:02";
shapes = (
{
closed = 1;
nodes = (
(405,-10,o),
(497,91,o),
(497,235,cs),
(497,246,ls),
(497,384,o),
(405,482,o),
(275,482,cs),
(145,482,o),
(52,383,o),
(52,243,cs),
(52,235,ls),
(52,91,o),
(145,-10,o),
(275,-10,cs)
);
},
{
closed = 1;
nodes = (
(162,17,o),
(81,107,o),
(81,235,cs),
(81,243,ls),
(81,367,o),
(162,454,o),
(275,454,cs),
(389,454,o),
(468,369,o),
(468,246,cs),
(468,235,ls),
(468,107,o),
(389,17,o),
(275,17,cs)
);
}
);
width = 600;
},
{
anchors = (
{
name = center;
pos = (252,236);
},
{
name = top;
pos = (310,472);
},
{
name = topright;
pos = (363,472);
}
);
associatedMasterId = "4138F7D5-0763-4B33-9A38-359ACF56B4CB";
layerId = "45E96D1E-5984-4C0A-9D60-3F107B425AA6";
name = "4. Juni 25, 22:55";
shapes = (
{
closed = 1;
nodes = (
(352,-10,o),
(454,118,o),
(454,287,cs),
(454,290,ls),
(454,405,o),
(387,482,o),
(290,482,cs),
(156,482,o),
(52,357,o),
(52,191,cs),
(52,187,ls),
(52,69,o),
(125,-10,o),
(221,-10,cs)
);
},
{
closed = 1;
nodes = (
(142,18,o),
(81,86,o),
(81,187,cs),
(81,191,ls),
(81,341,o),
(173,454,o),
(291,454,cs),
(370,454,o),
(425,387,o),
(425,287,cs),
(425,284,ls),
(425,132,o),
(336,18,o),
(222,18,cs)
);
}
);
width = 600;
},
{
anchors = (
{
name = bottom;
pos = (259,0);
},
{
name = center;
pos = (297,247);
},
{
name = top;
pos = (358,493);
},
{
name = topright;
pos = (393,493);
}
);
associatedMasterId = "44520DEB-933F-4740-94E3-6BE30525566A";
layerId = "8DDA11B7-1901-4A1B-B6D9-561E5129A653";
name = "30. Juni 25, 12:34";
shapes = (
{
closed = 1;
nodes = (
(420,-10,o),
(543,124,o),
(543,286,cs),
(543,420,o),
(455,503,o),
(334,503,cs),
(177,503,o),
(57,374,o),
(57,205,cs),
(57,49,o),
(166,-10,o),
(266,-10,cs)
);
},
{
closed = 1;
nodes = (
(247,123,o),
(207,140,o),
(207,213,cs),
(207,299,o),
(261,371,o),
(326,371,cs),
(369,371,o),
(395,339,o),
(395,282,cs),
(395,198,o),
(342,123,o),
(278,123,cs)
);
}
);
width = 600;
}
);
unicode = 111;
},
{
color = 8;
glyphname = ohorn;
kernLeft = o;
kernRight = ohorn;
lastChange = "2025-07-26 22:37:32 +0000";
layers = (
{
anchors = (
{
name = bottom;
pos = (235,0);
},
{
name = top;
pos = (355,472);
}
);
layerId = "4138F7D5-0763-4B33-9A38-359ACF56B4CB";
shapes = (
{
closed = 1;
nodes = (
(407,-10,o),
(514,124,o),
(514,293,cs),
(514,358,o),
(500,400,o),
(461,438,c),
(460,430,l),
(530,426,o),
(567,481,o),
(579,554,c),
(551,554,l),
(543,488,o),
(510,455,o),
(466,455,cs),
(426,455,o),
(407,482,o),
(343,482,cs),
(194,482,o),
(86,344,o),
(86,187,cs),
(86,65,o),
(154,-10,o),
(263,-10,cs)
);
},
{
closed = 1;
nodes = (
(172,18,o),
(115,82,o),
(115,189,cs),
(115,332,o),
(213,454,o),
(343,454,cs),
(435,454,o),
(485,393,o),
(485,286,cs),
(485,145,o),
(392,18,o),
(263,18,cs)
);
}
);
width = 600;
},
{
associatedMasterId = "4138F7D5-0763-4B33-9A38-359ACF56B4CB";
layerId = "8A44042A-F839-4521-998E-D3390FEEE247";
name = "16. Apr. 25, 12:42";
shapes = (
{
ref = o;
},
{
pos = (114,0);
ref = horncomb;
}
);
width = 600;
},
{
anchors = (
{
name = bottom;
pos = (256,0);
},
{
name = top;
pos = (332,493);
}
);
background = {
shapes = (
{
closed = 1;
nodes = (
(428,-10,o),
(551,124,o),
(551,286,cs),
(551,420,o),
(463,503,o),
(342,503,cs),
(185,503,o),
(65,374,o),
(65,205,cs),
(65,49,o),
(174,-10,o),
(274,-10,cs)
);
},
{
closed = 1;
nodes = (
(255,123,o),
(215,140,o),
(215,213,cs),
(215,299,o),
(269,371,o),
(334,371,cs),
(377,371,o),
(403,339,o),
(403,282,cs),
(403,198,o),
(350,123,o),
(286,123,cs)
);
}
);
};
hints = (
{
horizontal = 1;
origin = (0,16);
target = (0,6);
type = Stem;
},
{
horizontal = 1;
origin = (0,22);
target = (1,11);
type = Stem;
}
);
layerId = "44520DEB-933F-4740-94E3-6BE30525566A";
shapes = (
{
closed = 1;
nodes = (
(406,-10,o),
(537,94,o),
(537,294,cs),
(537,345,o),
(523,388,o),
(497,421,c),
(481,376,l),
(583,387,o),
(618,463,o),
(614,571,c),
(492,571,l),
(495,504,o),
(474,473,o),
(449,473,cs),
(430,473,o),
(397,503,o),
(323,503,cs),
(182,503,o),
(56,377,o),
(56,210,cs),
(56,44,o),
(170,-10,o),
(274,-10,cs)
);
},
{
closed = 1;
nodes = (
(224,103,o),
(201,134,o),
(201,193,cs),
(201,300,o),
(258,391,o),
(325,391,cs),
(367,391,o),
(389,361,o),
(389,302,cs),
(389,195,o),
(334,103,o),
(269,103,cs)
);
}
);
width = 600;
},
{
associatedMasterId = "44520DEB-933F-4740-94E3-6BE30525566A";
layerId = "ADFD9A5D-6CF8-4DB3-99FE-62CD69E2B1FB";
name = "16. Apr. 25, 12:42";
shapes = (
{
ref = o;
},
{
pos = (87,0);
ref = horncomb;
}
);
width = 600;
}
);
unicode = 417;
},
{
glyphname = oe;
kernLeft = o;
kernRight = e.alt;
lastChange = "2025-07-26 22:37:37 +0000";
layers = (
{
anchors = (
{
name = bottom;
pos = (234,0);
},
{
name = top;
pos = (368,472);
}
);
layerId = "4138F7D5-0763-4B33-9A38-359ACF56B4CB";
shapes = (
{
closed = 1;
nodes = (
(200,-10,o),
(258,64,o),
(295,155,c),
(290,158,l),
(290,45,o),
(337,-10,o),
(409,-10,cs),
(454,-10,o),
(487,6,o),
(519,35,c),
(509,61,l),
(480,35,o),
(454,18,o),
(412,18,cs),
(349,18,o),
(313,77,o),
(317,183,cs),
(322,336,o),
(421,454,o),
(519,454,cs),
(553,454,o),
(572,432,o),
(572,392,cs),
(572,318,o),
(465,225,o),
(317,231,c),
(310,204,l),
(476,196,o),
(602,299,o),
(602,396,cs),
(602,450,o),
(573,482,o),
(523,482,cs),
(452,482,o),
(379,428,o),
(332,343,c),
(337,342,l),
(339,417,o),
(320,482,o),
(247,482,cs),
(134,482,o),
(29,323,o),
(29,140,cs),
(29,52,o),
(62,-10,o),
(124,-10,cs)
);
},
{
closed = 1;
nodes = (
(83,18,o),
(58,68,o),
(58,141,cs),
(58,307,o),
(146,454,o),
(244,454,cs),
(295,454,o),
(313,405,o),
(313,351,cs),
(313,246,o),
(246,18,o),
(129,18,cs)
);
}
);
width = 600;
},
{
anchors = (
{
name = bottom;
pos = (249,0);
},
{
name = top;
pos = (367,491);
}
);
hints = (
{
horizontal = 1;
origin = (0,39);
target = (0,35);
type = Stem;
},
{
horizontal = 1;
origin = (0,45);
target = (1,11);
type = Stem;
},
{
horizontal = 1;
origin = (0,26);
target = (0,25);
type = Stem;
}
);
layerId = "44520DEB-933F-4740-94E3-6BE30525566A";
shapes = (
{
closed = 1;
nodes = (
(214,-10,o),
(271,29,o),
(303,95,c),
(283,95,l),
(287,35,o),
(336,-10,o),
(403,-10,cs),
(466,-10,o),
(520,13,o),
(558,58,c),
(497,141,l),
(471,116,o),
(451,101,o),
(426,101,cs),
(398,101,o),
(382,125,o),
(382,183,cs),
(382,303,o),
(427,398,o),
(474,398,cs),
(488,398,o),
(498,388,o),
(498,375,cs),
(498,314,o),
(431,274,o),
(359,266,c),
(344,181,l),
(488,186,o),
(626,262,o),
(626,389,cs),
(626,456,o),
(577,503,o),
(504,503,cs),
(429,503,o),
(372,463,o),
(331,391,c),
(368,391,l),
(360,461,o),
(313,503,o),
(249,503,cs),
(87,503,o),
(10,299,o),
(10,159,cs),
(10,49,o),
(51,-10,o),
(144,-10,cs)
);
},
{
closed = 1;
nodes = (
(140,101,o),
(127,122,o),
(127,168,cs),
(127,234,o),
(165,391,o),
(236,391,cs),
(263,391,o),
(275,372,o),
(275,330,cs),
(275,268,o),
(236,101,o),
(169,101,cs)
);
}
);
width = 600;
},
{
anchors = (
{
name = bottom;
pos = (242,0);
},
{
name = top;
pos = (360,472);
}
);
associatedMasterId = "4138F7D5-0763-4B33-9A38-359ACF56B4CB";
layerId = "2E94CBB8-204F-42F6-AB76-F046FB88CC20";
name = "27. Juni 25, 11:21";
shapes = (
{
closed = 1;
nodes = (
(209,-10,o),
(264,64,o),
(298,155,c),
(293,158,l),
(297,45,o),
(339,-10,o),
(411,-10,cs),
(456,-10,o),
(495,10,o),
(526,38,c),
(515,64,l),
(487,39,o),
(455,18,o),
(413,18,cs),
(350,18,o),
(319,77,o),
(319,183,cs),
(319,336,o),
(413,454,o),
(511,454,cs),
(545,454,o),
(567,432,o),
(567,392,cs),
(567,318,o),
(465,225,o),
(317,231,c),
(311,204,l),
(477,196,o),
(596,299,o),
(596,396,cs),
(596,450,o),
(564,482,o),
(514,482,cs),
(443,482,o),
(372,428,o),
(328,343,c),
(333,342,l),
(333,417,o),
(311,482,o),
(238,482,cs),
(127,482,o),
(32,330,o),
(32,152,cs),
(32,58,o),
(68,-10,o),
(133,-10,cs)
);
},
{
closed = 1;
nodes = (
(88,18,o),
(61,74,o),
(61,154,cs),
(61,315,o),
(141,454,o),
(236,454,cs),
(290,454,o),
(309,400,o),
(309,342,cs),
(309,234,o),
(251,18,o),
(137,18,cs)
);
}
);
width = 600;
},
{
anchors = (
{
name = bottom;
pos = (249,0);
},
{
name = top;
pos = (367,491);
}
);
associatedMasterId = "44520DEB-933F-4740-94E3-6BE30525566A";
layerId = "20AFBBA3-1757-40BA-B1FE-3482DB93FE34";
name = "30. Juni 25, 12:59";
shapes = (
{
closed = 1;
nodes = (
(224,-10,o),
(281,29,o),
(313,95,c),
(273,95,l),
(277,29,o),
(323,-10,o),
(397,-10,cs),
(453,-10,o),
(520,13,o),
(558,58,c),
(497,145,l),
(471,120,o),
(451,105,o),
(426,105,cs),
(398,105,o),
(382,129,o),
(382,183,cs),
(382,303,o),
(424,394,o),
(471,394,cs),
(482,394,o),
(492,390,o),
(492,370,cs),
(492,319,o),
(431,276,o),
(359,278,c),
(344,181,l),
(508,176,o),
(626,262,o),
(626,389,cs),
(626,456,o),
(577,501,o),
(504,501,cs),
(429,501,o),
(372,463,o),
(331,391,c),
(380,391,l),
(360,461,o),
(313,501,o),
(249,501,cs),
(87,501,o),
(0,309,o),
(0,169,cs),
(0,59,o),
(61,-10,o),
(154,-10,cs)
);
},
{
closed = 1;
nodes = (
(140,105,o),
(127,135,o),
(127,178,cs),
(127,234,o),
(164,386,o),
(235,386,cs),
(267,386,o),
(274,356,o),
(274,315,cs),
(274,263,o),
(236,105,o),
(169,105,cs)
);
}
);
width = 600;
}
);
unicode = 339;
},
{
glyphname = p;
kernLeft = n;
kernRight = b;
lastChange = "2025-07-26 22:37:42 +0000";
layers = (
{
anchors = (
{
name = top;
pos = (371,472);
}
);
layerId = "4138F7D5-0763-4B33-9A38-359ACF56B4CB";
shapes = (
{
closed = 1;
nodes = (
(47,-200,l),
(134,156,l),
(126,168,l),
(136,39,o),
(210,-10,o),
(293,-10,cs),
(425,-10,o),
(536,121,o),
(536,285,cs),
(536,407,o),
(471,482,o),
(366,482,cs),
(274,482,o),
(206,426,o),
(166,337,c),
(177,331,l),
(212,472,l),
(183,472,l),
(18,-200,l)
);
},
{
closed = 1;
nodes = (
(206,17,o),
(144,82,o),
(144,188,cs),
(144,320,o),
(233,454,o),
(362,454,cs),
(452,454,o),
(507,387,o),
(507,282,cs),
(507,135,o),
(407,17,o),
(293,17,cs)
);
}
);
width = 600;
},
{
anchors = (
{
name = top;
pos = (367,493);
}
);
hints = (
{
horizontal = 1;
place = (-200,21);
target = up;
type = BottomGhost;
},
{
horizontal = 1;
origin = (0,12);
target = (1,5);
type = Stem;
},
{
horizontal = 1;
origin = (0,5);
target = (1,11);
type = Stem;
}
);
layerId = "44520DEB-933F-4740-94E3-6BE30525566A";
shapes = (
{
closed = 1;
nodes = (
(110,-200,l),
(188,116,l),
(167,116,l),
(174,27,o),
(221,-10,o),
(291,-10,cs),
(417,-10,o),
(547,111,o),
(547,316,cs),
(547,438,o),
(492,503,o),
(403,503,cs),
(334,503,o),
(273,459,o),
(239,384,c),
(251,384,l),
(278,493,l),
(132,493,l),
(-40,-200,l)
);
},
{
closed = 1;
nodes = (
(230,101,o),
(204,130,o),
(204,180,cs),
(204,294,o),
(262,391,o),
(331,391,cs),
(374,391,o),
(397,358,o),
(397,302,cs),
(397,193,o),
(341,101,o),
(275,101,cs)
);
}
);
width = 600;
},
{
anchors = (
{
name = top;
pos = (367,493);
}
);
associatedMasterId = "44520DEB-933F-4740-94E3-6BE30525566A";
layerId = "52AE1700-7947-4AA3-829E-7B7B83396549";
name = "30. Juni 25, 13:00";
shapes = (
{
closed = 1;
nodes = (
(108,-200,l),
(186,116,l),
(151,91,l),
(172,27,o),
(219,-10,o),
(289,-10,cs),
(415,-10,o),
(545,111,o),
(545,316,cs),
(545,438,o),
(480,503,o),
(381,503,cs),
(308,503,o),
(238,452,o),
(209,384,c),
(236,384,l),
(263,493,l),
(130,493,l),
(-40,-200,l)
);
},
{
closed = 1;
nodes = (
(226,122,o),
(208,159,o),
(208,212,cs),
(208,298,o),
(258,370,o),
(322,370,cs),
(367,370,o),
(396,342,o),
(396,275,cs),
(396,169,o),
(323,122,o),
(279,122,cs)
);
}
);
width = 600;
}
);
unicode = 112;
},
{
glyphname = thorn;
kernLeft = h;
kernRight = b;
lastChange = "2025-07-26 22:37:47 +0000";
layers = (
{
layerId = "4138F7D5-0763-4B33-9A38-359ACF56B4CB";
shapes = (
{
closed = 1;
nodes = (
(47,-200,l),
(134,156,l),
(127,168,l),
(137,39,o),
(211,-10,o),
(294,-10,cs),
(426,-10,o),
(536,121,o),
(536,285,cs),
(536,407,o),
(472,482,o),
(367,482,cs),
(275,482,o),
(207,426,o),
(167,337,c),
(177,331,l),
(275,730,l),
(246,730,l),
(18,-200,l)
);
},
{
closed = 1;
nodes = (
(206,17,o),
(144,82,o),
(144,188,cs),
(144,320,o),
(233,454,o),
(362,454,cs),
(452,454,o),
(507,387,o),
(507,282,cs),
(507,135,o),
(407,17,o),
(293,17,cs)
);
}
);
width = 600;
},
{
hints = (
{
horizontal = 1;
place = (-200,21);
target = up;
type = BottomGhost;
},
{
horizontal = 1;
place = (730,-20);
target = down;
type = TopGhost;
},
{
horizontal = 1;
origin = (0,12);
target = (1,5);
type = Stem;
},
{
horizontal = 1;
origin = (0,5);
target = (1,11);
type = Stem;
}
);
layerId = "44520DEB-933F-4740-94E3-6BE30525566A";
shapes = (
{
closed = 1;
nodes = (
(110,-200,l),
(188,116,l),
(167,116,l),
(174,27,o),
(221,-10,o),
(291,-10,cs),
(417,-10,o),
(547,111,o),
(547,316,cs),
(547,438,o),
(492,503,o),
(403,503,cs),
(334,503,o),
(273,459,o),
(239,384,c),
(255,384,l),
(340,730,l),
(190,730,l),
(-40,-200,l)
);
},
{
closed = 1;
nodes = (
(230,101,o),
(204,130,o),
(204,180,cs),
(204,294,o),
(262,391,o),
(331,391,cs),
(374,391,o),
(397,358,o),
(397,302,cs),
(397,193,o),
(341,101,o),
(275,101,cs)
);
}
);
width = 600;
}
);
unicode = 254;
},
{
glyphname = q;
kernLeft = d;
kernRight = u;
lastChange = "2025-07-26 22:37:52 +0000";
layers = (
{
layerId = "4138F7D5-0763-4B33-9A38-359ACF56B4CB";
shapes = (
{
closed = 1;
nodes = (
(368,-200,l),
(533,472,l),
(505,472,l),
(467,316,l),
(474,304,l),
(464,433,o),
(390,482,o),
(307,482,cs),
(175,482,o),
(64,351,o),
(64,187,cs),
(64,65,o),
(129,-10,o),
(234,-10,cs),
(326,-10,o),
(394,46,o),
(434,135,c),
(423,141,l),
(339,-200,l)
);
},
{
closed = 1;
nodes = (
(148,18,o),
(93,85,o),
(93,190,cs),
(93,337,o),
(193,455,o),
(307,455,cs),
(394,455,o),
(456,390,o),
(456,284,cs),
(456,152,o),
(367,18,o),
(238,18,cs)
);
}
);
width = 600;
},
{
hints = (
{
horizontal = 1;
place = (-200,21);
target = up;
type = BottomGhost;
},
{
horizontal = 1;
origin = (0,7);
target = (1,5);
type = Stem;
},
{
horizontal = 1;
origin = (0,13);
target = (1,11);
type = Stem;
}
);
layerId = "44520DEB-933F-4740-94E3-6BE30525566A";
shapes = (
{
closed = 1;
nodes = (
(419,-200,l),
(590,493,l),
(440,493,l),
(413,377,l),
(429,402,l),
(418,466,o),
(375,503,o),
(305,503,cs),
(163,503,o),
(52,358,o),
(52,187,cs),
(52,35,o),
(125,-10,o),
(201,-10,cs),
(281,-10,o),
(331,34,o),
(362,109,c),
(348,109,l),
(271,-200,l)
);
},
{
closed = 1;
nodes = (
(225,102,o),
(202,135,o),
(202,191,cs),
(202,300,o),
(258,392,o),
(329,392,cs),
(369,392,o),
(395,363,o),
(395,313,cs),
(395,199,o),
(337,102,o),
(268,102,cs)
);
}
);
width = 600;
},
{
associatedMasterId = "44520DEB-933F-4740-94E3-6BE30525566A";
layerId = "6EAB7CE0-3CB7-4177-92B7-53FB09C13DB0";
name = "30. Juni 25, 13:03";
shapes = (
{
closed = 1;
nodes = (
(420,-200,l),
(590,493,l),
(442,493,l),
(413,377,l),
(448,402,l),
(427,466,o),
(380,503,o),
(310,503,cs),
(168,503,o),
(54,358,o),
(54,187,cs),
(54,39,o),
(129,-10,o),
(228,-10,cs),
(291,-10,o),
(361,41,o),
(390,109,c),
(347,109,l),
(271,-200,l)
);
},
{
closed = 1;
nodes = (
(241,123,o),
(203,139,o),
(203,221,cs),
(203,291,o),
(250,371,o),
(320,371,cs),
(373,371,o),
(391,334,o),
(391,281,cs),
(391,195,o),
(341,123,o),
(277,123,cs)
);
}
);
width = 600;
}
);
unicode = 113;
},
{
glyphname = r;
kernLeft = n;
kernRight = r;
lastChange = "2025-07-26 22:38:08 +0000";
layers = (
{
anchors = (
{
name = bottom;
pos = (184,0);
},
{
name = top;
pos = (377,472);
}
);
layerId = "4138F7D5-0763-4B33-9A38-359ACF56B4CB";
shapes = (
{
closed = 1;
nodes = (
(199,0,l),
(258,240,ls),
(293,384,o),
(394,443,o),
(502,443,cs),
(566,443,l),
(573,472,l),
(510,472,ls),
(438,472,o),
(331,455,o),
(275,331,c),
(279,328,l),
(314,472,l),
(124,472,l),
(117,444,l),
(291,444,l),
(281,457,l),
(169,0,l)
);
}
);
width = 600;
},
{
anchors = (
{
name = bottom;
pos = (176,0);
},
{
name = top;
pos = (380,493);
}
);
background = {
shapes = (
{
closed = 1;
nodes = (
(251,0,l),
(305,215,ls),
(330,316,o),
(374,350,o),
(480,350,cs),
(561,350,l),
(598,498,l),
(540,498,ls),
(462,498,o),
(364,465,o),
(326,351,c),
(336,339,l),
(374,493,l),
(111,493,l),
(80,367,l),
(261,367,l),
(210,435,l),
(101,0,l)
);
}
);
};
hints = (
{
horizontal = 1;
place = (0,21);
target = up;
type = BottomGhost;
},
{
horizontal = 1;
origin = (0,6);
target = (0,5);
type = Stem;
}
);
layerId = "44520DEB-933F-4740-94E3-6BE30525566A";
shapes = (
{
closed = 1;
nodes = (
(251,0,l),
(305,215,ls),
(330,316,o),
(374,350,o),
(480,350,cs),
(561,350,l),
(598,498,l),
(540,498,ls),
(462,498,o),
(369,465,o),
(331,351,c),
(336,339,l),
(374,493,l),
(111,493,l),
(85,387,l),
(266,387,l),
(210,435,l),
(101,0,l)
);
}
);
width = 600;
}
);
unicode = 114;
},
{
glyphname = s;
kernLeft = s;
kernRight = s;
lastChange = "2025-07-26 22:38:12 +0000";
layers = (
{
anchors = (
{
name = bottom;
pos = (233,0);
},
{
name = top;
pos = (361,472);
}
);
layerId = "4138F7D5-0763-4B33-9A38-359ACF56B4CB";
shapes = (
{
closed = 1;
nodes = (
(385,-10,o),
(468,48,o),
(468,135,cs),
(468,303,o),
(178,202,o),
(178,338,cs),
(178,407,o),
(248,455,o),
(349,455,cs),
(415,455,o),
(471,433,o),
(515,394,c),
(533,417,l),
(490,457,o),
(428,482,o),
(351,482,cs),
(230,482,o),
(148,423,o),
(148,335,cs),
(148,173,o),
(438,277,o),
(438,132,cs),
(438,63,o),
(371,16,o),
(275,16,cs),
(192,16,o),
(103,53,o),
(70,95,c),
(50,71,l),
(87,26,o),
(179,-10,o),
(269,-10,cs)
);
}
);
width = 600;
},
{
anchors = (
{
name = bottom;
pos = (238,0);
},
{
name = top;
pos = (370,493);
}
);
hints = (
{
horizontal = 1;
origin = (0,31);
target = (0,24);
type = Stem;
},
{
horizontal = 1;
origin = (0,15);
target = (0,8);
type = Stem;
}
);
layerId = "44520DEB-933F-4740-94E3-6BE30525566A";
shapes = (
{
closed = 1;
nodes = (
(420,-8,o),
(511,54,o),
(511,159,cs),
(511,319,o),
(255,293,o),
(255,359,cs),
(255,379,o),
(277,392,o),
(319,392,cs),
(369,392,o),
(458,374,o),
(502,343,c),
(569,441,l),
(515,479,o),
(422,503,o),
(337,503,cs),
(184,503,o),
(104,440,o),
(104,334,cs),
(104,173,o),
(358,205,o),
(358,140,cs),
(358,118,o),
(328,102,o),
(271,102,cs),
(207,102,o),
(132,134,o),
(83,166,c),
(16,67,l),
(62,28,o),
(155,-8,o),
(265,-8,cs)
);
}
);
width = 600;
}
);
unicode = 115;
},
{
glyphname = germandbls;
kernLeft = h;
lastChange = "2025-07-26 22:59:16 +0000";
layers = (
{
background = {
shapes = (
{
closed = 1;
nodes = (
(358,-15,o),
(452,50,o),
(480,161,cs),
(509,280,o),
(453,355,o),
(318,372,c),
(314,359,l),
(418,346,o),
(514,437,o),
(538,535,cs),
(565,645,o),
(509,724,o),
(392,738,cs),
(263,754,o),
(162,677,o),
(127,537,cs),
(3,30,l),
(31,26,l),
(156,534,ls),
(186,657,o),
(274,725,o),
(386,711,cs),
(486,699,o),
(534,632,o),
(511,538,cs),
(489,451,o),
(399,368,o),
(305,380,c),
(299,353,l),
(321,350,ls),
(432,336,o),
(477,266,o),
(453,167,cs),
(429,71,o),
(348,15,o),
(238,29,cs),
(148,40,l),
(142,12,l),
(234,1,ls)
);
}
);
};
layerId = "4138F7D5-0763-4B33-9A38-359ACF56B4CB";
shapes = (
{
closed = 1;
nodes = (
(80,0,l),
(206,511,ls),
(239,645,o),
(319,713,o),
(422,713,cs),
(502,713,o),
(564,663,o),
(564,581,cs),
(564,466,o),
(477,379,o),
(345,379,c),
(339,352,l),
(361,352,ls),
(453,352,o),
(507,293,o),
(507,215,cs),
(507,103,o),
(425,28,o),
(307,28,cs),
(210,28,l),
(203,0,l),
(302,0,ls),
(439,0,o),
(534,87,o),
(534,217,cs),
(534,306,o),
(467,373,o),
(358,373,c),
(355,360,l),
(497,360,o),
(592,456,o),
(592,585,cs),
(592,676,o),
(521,740,o),
(423,740,cs),
(304,740,o),
(214,662,o),
(177,512,cs),
(51,0,l)
);
}
);
width = 600;
},
{
background = {
shapes = (
{
closed = 1;
nodes = (
(148,0,l),
(267,484,ls),
(291,580,o),
(325,628,o),
(390,628,cs),
(432,628,o),
(458,600,o),
(458,558,cs),
(458,509,o),
(424,444,o),
(324,431,c),
(294,307,l),
(317,307,ls),
(382,307,o),
(411,269,o),
(411,223,cs),
(411,158,o),
(357,133,o),
(287,133,cs),
(241,133,l),
(208,0,l),
(306,0,ls),
(455,0,o),
(554,88,o),
(554,221,cs),
(554,320,o),
(488,374,o),
(375,374,c),
(364,346,l),
(525,369,o),
(606,424,o),
(606,548,cs),
(606,679,o),
(518,740,o),
(392,740,cs),
(225,740,o),
(155,638,o),
(121,500,cs),
(-2,0,l)
);
}
);
};
hints = (
{
horizontal = 1;
origin = (0,21);
target = (0,19);
type = Stem;
},
{
horizontal = 1;
origin = (0,34);
target = (0,4);
type = Stem;
},
{
horizontal = 1;
origin = (0,11);
target = (0,10);
type = Stem;
}
);
layerId = "44520DEB-933F-4740-94E3-6BE30525566A";
shapes = (
{
closed = 1;
nodes = (
(148,0,l),
(277,521,ls),
(294,592,o),
(332,628,o),
(390,628,cs),
(432,628,o),
(458,600,o),
(458,558,cs),
(458,509,o),
(424,444,o),
(324,431,c),
(294,307,l),
(317,307,ls),
(382,307,o),
(411,269,o),
(411,223,cs),
(411,158,o),
(364,113,o),
(294,113,cs),
(238,113,l),
(208,0,l),
(306,0,ls),
(455,0,o),
(554,88,o),
(554,221,cs),
(554,320,o),
(488,374,o),
(375,374,c),
(364,346,l),
(509,367,o),
(606,450,o),
(606,560,cs),
(606,681,o),
(518,740,o),
(392,740,cs),
(225,740,o),
(155,638,o),
(121,500,cs),
(-2,0,l)
);
}
);
width = 600;
},
{
associatedMasterId = "44520DEB-933F-4740-94E3-6BE30525566A";
hints = (
{
horizontal = 1;
origin = (0,21);
target = (0,19);
type = Stem;
},
{
horizontal = 1;
origin = (0,34);
target = (0,4);
type = Stem;
},
{
origin = (0,38);
target = (0,1);
type = Stem;
},
{
origin = (0,15);
target = (0,24);
type = Stem;
}
);
layerId = "07024F03-C34B-489A-AE87-9A4A7ABA918E";
name = "30. Juni 25, 13:04";
shapes = (
{
closed = 1;
nodes = (
(148,0,l),
(267,484,ls),
(287,563,o),
(322,610,o),
(385,610,cs),
(431,610,o),
(458,587,o),
(458,538,cs),
(458,489,o),
(424,444,o),
(324,431,c),
(294,307,l),
(317,307,ls),
(382,307,o),
(411,269,o),
(411,223,cs),
(411,158,o),
(357,133,o),
(287,133,cs),
(241,133,l),
(208,0,l),
(306,0,ls),
(455,0,o),
(554,88,o),
(554,221,cs),
(554,320,o),
(488,384,o),
(375,384,c),
(364,326,l),
(525,349,o),
(606,424,o),
(606,548,cs),
(606,679,o),
(518,740,o),
(392,740,cs),
(225,740,o),
(155,638,o),
(121,500,cs),
(-2,0,l)
);
}
);
width = 600;
}
);
unicode = 223;
},
{
glyphname = t;
kernLeft = t;
kernRight = t;
lastChange = "2025-07-26 23:28:33 +0000";
layers = (
{
anchors = (
{
name = bottom;
pos = (316,0);
},
{
name = center;
pos = (296,293);
},
{
name = top;
pos = (326,591);
},
{
name = topright;
pos = (467,702);
}
);
layerId = "4138F7D5-0763-4B33-9A38-359ACF56B4CB";
shapes = (
{
closed = 1;
nodes = (
(449,0,l),
(456,27,l),
(279,27,ls),
(232,27,o),
(208,58,o),
(220,105,cs),
(352,641,l),
(324,641,l),
(192,106,ls),
(178,46,o),
(213,0,o),
(272,0,cs)
);
},
{
closed = 1;
nodes = (
(548,444,l),
(555,472,l),
(97,472,l),
(90,444,l)
);
}
);
width = 600;
},
{
anchors = (
{
name = bottom;
pos = (313,0);
},
{
name = center;
pos = (271,249);
},
{
name = top;
pos = (362,662);
},
{
name = topright;
pos = (533,730);
}
);
background = {
shapes = (
{
closed = 1;
nodes = (
(473,0,l),
(504,126,l),
(323,126,ls),
(312,126,o),
(306,135,o),
(308,146,cs),
(437,662,l),
(287,662,l),
(161,158,ls),
(139,68,o),
(194,0,o),
(290,0,cs)
);
},
{
closed = 1;
nodes = (
(564,367,l),
(596,493,l),
(98,493,l),
(66,367,l)
);
}
);
};
hints = (
{
horizontal = 1;
origin = (1,1);
target = (1,0);
type = Stem;
},
{
horizontal = 1;
origin = (0,0);
target = (0,1);
type = Stem;
}
);
layerId = "44520DEB-933F-4740-94E3-6BE30525566A";
shapes = (
{
closed = 1;
nodes = (
(473,0,l),
(499,106,l),
(318,106,ls),
(307,106,o),
(300,115,o),
(303,126,cs),
(437,662,l),
(287,662,l),
(161,158,ls),
(139,68,o),
(194,0,o),
(290,0,cs)
);
},
{
closed = 1;
nodes = (
(569,387,l),
(596,493,l),
(98,493,l),
(71,387,l)
);
}
);
width = 600;
}
);
unicode = 116;
},
{
glyphname = tbar;
kernLeft = t;
kernRight = t;
lastChange = "2025-06-30 12:12:43 +0000";
layers = (
{
layerId = "4138F7D5-0763-4B33-9A38-359ACF56B4CB";
shapes = (
{
closed = 1;
nodes = (
(449,0,l),
(456,27,l),
(279,27,ls),
(232,27,o),
(208,58,o),
(220,105,cs),
(352,641,l),
(324,641,l),
(192,106,ls),
(178,46,o),
(213,0,o),
(272,0,cs)
);
},
{
closed = 1;
nodes = (
(458,280,l),
(464,306,l),
(98,306,l),
(92,280,l)
);
},
{
closed = 1;
nodes = (
(548,444,l),
(555,472,l),
(97,472,l),
(90,444,l)
);
}
);
width = 600;
},
{
layerId = "44520DEB-933F-4740-94E3-6BE30525566A";
shapes = (
{
closed = 1;
nodes = (
(473,0,l),
(499,106,l),
(318,106,ls),
(307,106,o),
(300,115,o),
(303,126,cs),
(437,662,l),
(287,662,l),
(161,158,ls),
(139,68,o),
(194,0,o),
(290,0,cs)
);
},
{
closed = 1;
nodes = (
(479,211,l),
(501,300,l),
(90,300,l),
(68,211,l)
);
},
{
closed = 1;
nodes = (
(569,387,l),
(596,493,l),
(98,493,l),
(71,387,l)
);
}
);
width = 600;
}
);
unicode = 359;
},
{
glyphname = u;
kernLeft = u;
kernRight = u;
lastChange = "2025-07-26 23:28:39 +0000";
layers = (
{
anchors = (
{
name = bottom;
pos = (220,0);
},
{
name = ogonek;
pos = (482,0);
},
{
name = top;
pos = (326,472);
},
{
name = topright;
pos = (477,472);
}
);
layerId = "4138F7D5-0763-4B33-9A38-359ACF56B4CB";
shapes = (
{
closed = 1;
nodes = (
(293,-10,o),
(346,19,o),
(386,86,c),
(381,87,l),
(373,35,o),
(403,0,o),
(460,0,cs),
(482,0,l),
(489,27,l),
(464,27,ls),
(423,27,o),
(403,54,o),
(413,95,cs),
(505,472,l),
(477,472,l),
(403,171,ls),
(373,74,o),
(318,18,o),
(233,18,cs),
(134,18,o),
(101,91,o),
(128,201,cs),
(194,472,l),
(165,472,l),
(99,203,ls),
(68,77,o),
(114,-10,o),
(228,-10,cs)
);
}
);
width = 600;
},
{
anchors = (
{
name = bottom;
pos = (213,0);
},
{
name = ogonek;
pos = (510,0);
},
{
name = top;
pos = (325,493);
},
{
name = topright;
pos = (406,493);
}
);
background = {
shapes = (
{
closed = 1;
nodes = (
(223,-10,o),
(308,11,o),
(348,125,c),
(317,108,l),
(316,30,o),
(353,0,o),
(444,0,cs),
(510,0,l),
(541,124,l),
(493,124,ls),
(476,124,o),
(468,128,o),
(472,144,cs),
(557,493,l),
(406,493,l),
(325,167,ls),
(316,130,o),
(284,106,o),
(246,106,cs),
(201,106,o),
(178,136,o),
(189,181,cs),
(265,493,l),
(114,493,l),
(41,196,ls),
(11,74,o),
(55,-10,o),
(172,-10,cs)
);
}
);
};
hints = (
{
horizontal = 1;
origin = (0,27);
target = (0,18);
type = Stem;
},
{
horizontal = 1;
place = (493,-20);
target = down;
type = TopGhost;
}
);
layerId = "44520DEB-933F-4740-94E3-6BE30525566A";
shapes = (
{
closed = 1;
nodes = (
(223,-10,o),
(308,11,o),
(348,125,c),
(317,108,l),
(316,30,o),
(353,0,o),
(444,0,cs),
(510,0,l),
(537,106,l),
(489,106,ls),
(472,106,o),
(464,110,o),
(468,126,cs),
(557,493,l),
(406,493,l),
(325,167,ls),
(316,130,o),
(284,106,o),
(246,106,cs),
(201,106,o),
(178,136,o),
(189,181,cs),
(265,493,l),
(114,493,l),
(41,196,ls),
(11,74,o),
(55,-10,o),
(172,-10,cs)
);
}
);
width = 600;
}
);
unicode = 117;
},
{
color = 8;
glyphname = uhorn;
kernLeft = u;
kernRight = uhorn;
lastChange = "2025-07-26 23:28:41 +0000";
layers = (
{
anchors = (
{
name = bottom;
pos = (206,0);
},
{
name = top;
pos = (322,472);
}
);
layerId = "4138F7D5-0763-4B33-9A38-359ACF56B4CB";
shapes = (
{
closed = 1;
nodes = (
(290,-10,o),
(340,19,o),
(380,85,c),
(375,86,l),
(367,33,o),
(397,0,o),
(454,0,cs),
(476,0,l),
(483,27,l),
(458,27,ls),
(417,27,o),
(397,54,o),
(407,95,cs),
(496,460,l),
(483,447,l),
(560,444,o),
(602,497,o),
(600,589,c),
(571,589,l),
(574,514,o),
(546,472,o),
(493,472,cs),
(471,472,l),
(397,171,l),
(367,74,o),
(315,18,o),
(231,18,cs),
(131,18,o),
(95,91,o),
(122,201,cs),
(188,472,l),
(159,472,l),
(93,203,ls),
(62,77,o),
(111,-10,o),
(226,-10,cs)
);
}
);
width = 600;
},
{
associatedMasterId = "4138F7D5-0763-4B33-9A38-359ACF56B4CB";
layerId = "D8F3CA6D-5D3F-480B-B2EB-39798BDE5E23";
name = "16. Apr. 25, 12:43";
shapes = (
{
ref = u;
},
{
pos = (177,0);
ref = horncomb;
}
);
width = 600;
},
{
anchors = (
{
name = bottom;
pos = (202,0);
},
{
name = top;
pos = (323,493);
}
);
background = {
anchors = (
{
name = bottom;
pos = (202,0);
},
{
name = top;
pos = (323,493);
}
);
shapes = (
{
closed = 1;
nodes = (
(217,-10,o),
(293,9,o),
(335,98,c),
(315,98,l),
(316,28,o),
(354,0,o),
(439,0,cs),
(506,0,l),
(533,104,l),
(485,104,ls),
(466,104,o),
(461,109,o),
(464,122,cs),
(548,471,l),
(479,425,l),
(586,439,o),
(637,482,o),
(638,601,c),
(514,601,l),
(515,524,o),
(485,493,o),
(434,493,cs),
(403,493,l),
(323,170,ls),
(314,132,o),
(282,106,o),
(244,106,cs),
(199,106,o),
(176,134,o),
(187,177,cs),
(265,493,l),
(114,493,l),
(41,196,ls),
(11,74,o),
(55,-10,o),
(171,-10,cs)
);
}
);
};
hints = (
{
horizontal = 1;
origin = (0,35);
target = (0,26);
type = Stem;
},
{
horizontal = 1;
place = (493,-20);
target = down;
type = TopGhost;
}
);
layerId = "44520DEB-933F-4740-94E3-6BE30525566A";
shapes = (
{
closed = 1;
nodes = (
(217,-10,o),
(293,9,o),
(335,98,c),
(315,98,l),
(316,28,o),
(354,0,o),
(439,0,cs),
(506,0,l),
(533,104,l),
(485,104,ls),
(466,104,o),
(461,109,o),
(464,122,cs),
(548,471,l),
(479,425,l),
(586,439,o),
(637,482,o),
(638,601,c),
(514,601,l),
(515,524,o),
(485,493,o),
(434,493,cs),
(403,493,l),
(323,170,ls),
(314,132,o),
(282,106,o),
(244,106,cs),
(199,106,o),
(176,134,o),
(187,177,cs),
(265,493,l),
(114,493,l),
(41,196,ls),
(11,74,o),
(55,-10,o),
(171,-10,cs)
);
}
);
width = 600;
},
{
associatedMasterId = "44520DEB-933F-4740-94E3-6BE30525566A";
layerId = "30685FF9-A998-4B70-BDCA-5C0003FA8586";
name = "16. Apr. 25, 12:43";
shapes = (
{
ref = u;
},
{
pos = (100,0);
ref = horncomb;
}
);
width = 600;
},
{
anchors = (
{
name = bottom;
pos = (202,0);
},
{
name = top;
pos = (323,493);
}
);
associatedMasterId = "44520DEB-933F-4740-94E3-6BE30525566A";
background = {
shapes = (
{
closed = 1;
nodes = (
(220,-10,o),
(305,11,o),
(345,125,c),
(314,108,l),
(313,30,o),
(350,0,o),
(441,0,cs),
(507,0,l),
(533,104,l),
(485,104,ls),
(468,104,o),
(460,108,o),
(464,124,cs),
(554,493,l),
(403,493,l),
(322,167,ls),
(313,130,o),
(281,106,o),
(243,106,cs),
(198,106,o),
(175,136,o),
(186,181,cs),
(262,493,l),
(111,493,l),
(38,196,ls),
(8,74,o),
(52,-10,o),
(169,-10,cs)
);
}
);
};
layerId = "466CD742-6187-4AB7-9364-788B456A0E1F";
name = "30. Juni 25, 13:06";
shapes = (
{
closed = 1;
nodes = (
(275,-10,o),
(360,7,o),
(387,138,c),
(364,138,l),
(364,0,l),
(510,0,l),
(510,473,l),
(455,424,l),
(573,427,o),
(613,482,o),
(586,601,c),
(457,601,l),
(476,524,o),
(456,493,o),
(390,493,cs),
(360,493,l),
(360,210,ls),
(360,146,o),
(327,106,o),
(278,106,cs),
(233,106,o),
(203,130,o),
(203,196,cs),
(203,493,l),
(53,493,l),
(53,186,ls),
(53,58,o),
(116,-10,o),
(225,-10,cs)
);
}
);
width = 600;
}
);
unicode = 432;
},
{
glyphname = v;
lastChange = "2025-06-30 11:06:59 +0000";
layers = (
{
layerId = "4138F7D5-0763-4B33-9A38-359ACF56B4CB";
shapes = (
{
closed = 1;
nodes = (
(259,0,l),
(581,472,l),
(548,472,l),
(241,22,l),
(253,22,l),
(165,472,l),
(137,472,l),
(228,0,l)
);
}
);
width = 600;
},
{
hints = (
{
horizontal = 1;
origin = (0,7);
target = up;
type = BottomGhost;
},
{
horizontal = 1;
origin = (0,6);
target = down;
type = TopGhost;
}
);
layerId = "44520DEB-933F-4740-94E3-6BE30525566A";
shapes = (
{
closed = 1;
nodes = (
(320,0,l),
(624,493,l),
(458,493,l),
(238,97,l),
(282,97,l),
(245,493,l),
(99,493,l),
(162,0,l)
);
}
);
width = 600;
}
);
unicode = 118;
},
{
glyphname = w;
kernLeft = w;
kernRight = w;
lastChange = "2025-07-26 23:28:50 +0000";
layers = (
{
anchors = (
{
name = top;
pos = (360,472);
}
);
layerId = "4138F7D5-0763-4B33-9A38-359ACF56B4CB";
shapes = (
{
closed = 1;
nodes = (
(121,0,l),
(359,452,l),
(350,452,l),
(366,0,l),
(396,0,l),
(628,472,l),
(598,472,l),
(382,26,l),
(389,25,l),
(373,472,l),
(343,472,l),
(107,23,l),
(114,24,l),
(119,472,l),
(92,472,l),
(91,0,l)
);
}
);
width = 600;
},
{
anchors = (
{
name = top;
pos = (360,493);
}
);
hints = (
{
horizontal = 1;
place = (0,21);
target = up;
type = BottomGhost;
}
);
layerId = "44520DEB-933F-4740-94E3-6BE30525566A";
shapes = (
{
closed = 1;
nodes = (
(184,0,l),
(380,462,l),
(328,462,l),
(294,0,l),
(468,0,l),
(641,493,l),
(513,493,l),
(380,92,l),
(391,93,l),
(420,493,l),
(302,493,l),
(133,93,l),
(142,92,l),
(209,493,l),
(81,493,l),
(10,0,l)
);
}
);
width = 600;
}
);
unicode = 119;
},
{
glyphname = x;
lastChange = "2025-06-27 13:26:22 +0000";
layers = (
{
layerId = "4138F7D5-0763-4B33-9A38-359ACF56B4CB";
shapes = (
{
closed = 1;
nodes = (
(84,0,l),
(295,214,l),
(404,0,l),
(437,0,l),
(315,233,l),
(548,472,l),
(511,472,l),
(303,256,l),
(198,472,l),
(166,472,l),
(283,238,l),
(45,0,l)
);
}
);
width = 600;
},
{
hints = (
{
horizontal = 1;
origin = (0,11);
target = up;
type = BottomGhost;
},
{
horizontal = 1;
origin = (0,9);
target = down;
type = TopGhost;
}
);
layerId = "44520DEB-933F-4740-94E3-6BE30525566A";
shapes = (
{
closed = 1;
nodes = (
(169,0,l),
(275,143,l),
(318,0,l),
(480,0,l),
(394,226,l),
(620,493,l),
(431,493,l),
(326,348,l),
(287,493,l),
(128,493,l),
(210,267,l),
(-19,0,l)
);
}
);
width = 600;
}
);
unicode = 120;
},
{
glyphname = y;
kernLeft = u;
kernRight = u;
lastChange = "2025-07-26 23:28:59 +0000";
layers = (
{
anchors = (
{
name = bottom;
pos = (186,-200);
},
{
name = top;
pos = (353,472);
}
);
background = {
shapes = (
{
closed = 1;
nodes = (
(270,-10,o),
(320,19,o),
(360,86,c),
(355,87,l),
(347,35,o),
(377,0,o),
(434,0,cs),
(456,0,l),
(463,27,l),
(438,27,ls),
(397,27,o),
(377,54,o),
(387,95,cs),
(479,472,l),
(451,472,l),
(377,171,ls),
(347,74,o),
(295,18,o),
(211,18,cs),
(111,18,o),
(75,91,o),
(102,201,cs),
(168,472,l),
(139,472,l),
(73,203,ls),
(42,77,o),
(91,-10,o),
(206,-10,cs)
);
}
);
};
layerId = "4138F7D5-0763-4B33-9A38-359ACF56B4CB";
shapes = (
{
closed = 1;
nodes = (
(266,-200,ls),
(330,-200,o),
(383,-158,o),
(399,-94,cs),
(538,472,l),
(510,472,l),
(444,201,ls),
(416,86,o),
(359,18,o),
(257,18,cs),
(176,18,o),
(113,88,o),
(139,192,cs),
(207,472,l),
(178,472,l),
(110,194,ls),
(79,72,o),
(152,-10,o),
(251,-10,cs),
(332,-10,o),
(381,21,o),
(425,96,c),
(418,100,l),
(371,-90,ls),
(359,-137,o),
(315,-173,o),
(268,-173,cs),
(37,-173,l),
(30,-200,l)
);
}
);
width = 600;
},
{
anchors = (
{
name = bottom;
pos = (165,-200);
},
{
name = top;
pos = (337,493);
}
);
hints = (
{
horizontal = 1;
origin = (0,14);
target = down;
type = TopGhost;
},
{
horizontal = 1;
origin = (0,18);
target = (0,9);
type = Stem;
},
{
horizontal = 1;
origin = (0,28);
target = (0,27);
type = Stem;
}
);
layerId = "44520DEB-933F-4740-94E3-6BE30525566A";
shapes = (
{
closed = 1;
nodes = (
(236,-200,ls),
(345,-200,o),
(417,-151,o),
(441,-53,cs),
(575,493,l),
(425,493,l),
(349,190,ls),
(339,152,o),
(307,126,o),
(268,126,cs),
(223,126,o),
(200,153,o),
(212,203,cs),
(284,493,l),
(134,493,l),
(66,218,ls),
(35,93,o),
(79,10,o),
(194,10,cs),
(250,10,o),
(309,28,o),
(360,120,c),
(339,120,l),
(290,-77,ls),
(287,-89,o),
(279,-96,o),
(259,-96,cs),
(30,-96,l),
(4,-200,l)
);
}
);
width = 600;
}
);
unicode = 121;
},
{
glyphname = z;
kernLeft = z;
kernRight = z;
lastChange = "2025-06-30 11:19:26 +0000";
layers = (
{
anchors = (
{
name = top;
pos = (359,472);
}
);
layerId = "4138F7D5-0763-4B33-9A38-359ACF56B4CB";
shapes = (
{
closed = 1;
nodes = (
(436,0,l),
(443,27,l),
(87,27,l),
(93,20,l),
(544,445,l),
(551,472,l),
(171,472,l),
(164,444,l),
(516,444,l),
(509,452,l),
(58,26,l),
(52,0,l)
);
}
);
width = 600;
},
{
anchors = (
{
name = top;
pos = (362,493);
}
);
background = {
shapes = (
{
closed = 1;
nodes = (
(464,0,l),
(496,130,l),
(158,130,l),
(193,73,l),
(548,378,l),
(577,493,l),
(142,493,l),
(109,362,l),
(437,362,l),
(399,423,l),
(45,113,l),
(17,0,l)
);
}
);
};
hints = (
{
horizontal = 1;
origin = (0,11);
target = (0,2);
type = Stem;
},
{
horizontal = 1;
origin = (0,6);
target = (0,8);
type = Stem;
}
);
layerId = "44520DEB-933F-4740-94E3-6BE30525566A";
shapes = (
{
closed = 1;
nodes = (
(464,0,l),
(490,106,l),
(152,106,l),
(193,73,l),
(548,378,l),
(577,493,l),
(142,493,l),
(115,387,l),
(443,387,l),
(399,423,l),
(45,113,l),
(17,0,l)
);
}
);
width = 600;
}
);
unicode = 122;
},
{
glyphname = k.ss01;
kernLeft = h;
kernRight = k.alt;
lastChange = "2025-07-26 23:29:10 +0000";
layers = (
{
anchors = (
{
name = bottom;
pos = (243,0);
}
);
background = {
shapes = (
{
closed = 1;
nodes = (
(100,0,l),
(279,730,l),
(250,730,l),
(70,0,l)
);
},
{
closed = 1;
nodes = (
(559,472,l),
(514,472,l),
(126,188,l),
(117,148,l)
);
},
{
closed = 1;
nodes = (
(481,0,l),
(488,27,l),
(460,27,ls),
(425,27,o),
(406,42,o),
(391,78,cs),
(299,299,l),
(274,280,l),
(364,65,ls),
(383,20,o),
(410,0,o),
(457,0,cs)
);
}
);
};
layerId = "4138F7D5-0763-4B33-9A38-359ACF56B4CB";
shapes = (
{
closed = 1;
nodes = (
(101,0,l),
(150,190,ls),
(193,357,o),
(288,454,o),
(403,454,cs),
(463,454,o),
(502,429,o),
(502,381,cs),
(502,311,o),
(414,247,o),
(283,223,c),
(357,64,ls),
(377,21,o),
(403,0,o),
(444,0,cs),
(500,0,l),
(508,27,l),
(447,27,ls),
(415,27,o),
(401,42,o),
(388,69,cs),
(316,217,l),
(309,203,l),
(442,227,o),
(531,299,o),
(531,382,cs),
(531,445,o),
(481,482,o),
(403,482,cs),
(315,482,o),
(230,428,o),
(173,307,c),
(173,295,l),
(281,730,l),
(252,730,l),
(72,0,l)
);
}
);
width = 600;
},
{
anchors = (
{
name = bottom;
pos = (219,0);
}
);
background = {
shapes = (
{
closed = 1;
nodes = (
(148,0,l),
(210,248,ls),
(229,324,o),
(283,373,o),
(338,373,cs),
(361,373,o),
(376,359,o),
(376,338,cs),
(376,284,o),
(292,249,o),
(226,226,c),
(303,0,l),
(472,0,l),
(376,254,l),
(364,177,l),
(429,197,o),
(526,261,o),
(526,378,cs),
(526,460,o),
(476,503,o),
(394,503,cs),
(322,503,o),
(259,468,o),
(235,410,c),
(242,379,l),
(328,730,l),
(178,730,l),
(-2,0,l)
);
}
);
};
hints = (
{
horizontal = 1;
place = (0,21);
target = up;
type = BottomGhost;
},
{
horizontal = 1;
place = (730,-20);
target = down;
type = TopGhost;
},
{
horizontal = 1;
origin = (0,28);
target = (0,4);
type = Stem;
},
{
horizontal = 1;
origin = (0,15);
target = (0,16);
type = Stem;
}
);
layerId = "44520DEB-933F-4740-94E3-6BE30525566A";
shapes = (
{
closed = 1;
nodes = (
(173,0,l),
(228,219,ls),
(254,323,o),
(315,373,o),
(382,373,cs),
(410,373,o),
(432,359,o),
(432,337,cs),
(432,284,o),
(343,249,o),
(264,226,c),
(311,100,ls),
(339,25,o),
(372,0,o),
(440,0,cs),
(530,0,l),
(556,104,l),
(489,104,ls),
(476,104,o),
(467,108,o),
(464,117,cs),
(418,255,l),
(402,176,l),
(480,197,o),
(583,265,o),
(583,381,cs),
(583,454,o),
(532,503,o),
(455,503,cs),
(373,503,o),
(302,464,o),
(265,391,c),
(266,374,l),
(353,730,l),
(202,730,l),
(22,0,l)
);
}
);
width = 600;
}
);
},
{
color = 0;
export = 0;
glyphname = fi;
kernLeft = f;
kernRight = i;
lastChange = "2025-07-26 22:02:40 +0000";
layers = (
{
anchors = (
{
name = caret_1;
pos = (232,0);
}
);
layerId = "4138F7D5-0763-4B33-9A38-359ACF56B4CB";
shapes = (
{
closed = 1;
nodes = (
(-39,-200,ls),
(25,-200,o),
(79,-158,o),
(94,-94,cs),
(270,620,ls),
(282,670,o),
(323,703,o),
(373,703,cs),
(524,703,l),
(531,730,l),
(375,730,ls),
(311,730,o),
(257,688,o),
(242,624,cs),
(66,-90,ls),
(54,-140,o),
(13,-173,o),
(-37,-173,cs),
(-98,-173,l),
(-105,-200,l)
);
},
{
closed = 1;
nodes = (
(519,0,l),
(526,27,l),
(471,27,ls),
(430,27,o),
(410,54,o),
(420,95,cs),
(512,472,l),
(78,472,l),
(71,444,l),
(490,444,l),
(480,457,l),
(391,100,ls),
(376,40,o),
(406,0,o),
(467,0,cs)
);
}
);
width = 600;
},
{
anchors = (
{
name = caret_1;
pos = (261,0);
}
);
background = {
shapes = (
{
closed = 1;
nodes = (
(-29,-200,ls),
(79,-200,o),
(146,-150,o),
(170,-53,cs),
(333,604,ls),
(337,619,o),
(343,624,o),
(358,624,cs),
(418,624,l),
(444,730,l),
(376,730,ls),
(268,730,o),
(201,680,o),
(177,583,cs),
(15,-74,ls),
(11,-89,o),
(5,-94,o),
(-10,-94,cs),
(-87,-94,l),
(-114,-200,l)
);
},
{
closed = 1;
nodes = (
(496,387,l),
(522,493,l),
(86,493,l),
(60,387,l)
);
},
{
closed = 1;
nodes = (
(538,0,l),
(565,106,l),
(508,106,ls),
(493,106,o),
(489,111,o),
(493,126,cs),
(641,730,l),
(491,730,l),
(347,147,ls),
(325,54,o),
(373,0,o),
(472,0,cs)
);
}
);
};
hints = (
{
horizontal = 1;
origin = (1,7);
target = (1,9);
type = Stem;
},
{
horizontal = 1;
origin = (0,9);
target = (0,4);
type = Stem;
},
{
origin = (1,8);
target = (0,4);
type = Stem;
},
{
origin = (0,4);
target = (1,6);
type = Stem;
}
);
layerId = "44520DEB-933F-4740-94E3-6BE30525566A";
shapes = (
{
closed = 1;
nodes = (
(-18,-200,ls),
(90,-200,o),
(157,-150,o),
(181,-53,cs),
(344,606,ls),
(348,621,o),
(354,626,o),
(369,626,cs),
(553,626,l),
(579,730,l),
(387,730,ls),
(279,730,o),
(212,680,o),
(188,583,cs),
(25,-74,ls),
(21,-89,o),
(15,-94,o),
(0,-94,cs),
(-87,-94,l),
(-113,-200,l)
);
},
{
closed = 1;
nodes = (
(536,0,l),
(563,106,l),
(506,106,ls),
(491,106,o),
(487,111,o),
(491,126,cs),
(581,493,l),
(87,493,l),
(61,387,l),
(472,387,l),
(417,434,l),
(350,165,ls),
(323,56,o),
(367,0,o),
(480,0,cs)
);
}
);
width = 600;
}
);
unicode = 64257;
},
{
color = 0;
export = 0;
glyphname = fl;
kernLeft = f;
kernRight = l;
lastChange = "2025-07-25 14:33:12 +0000";
layers = (
{
anchors = (
{
name = caret_1;
pos = (242,0);
}
);
layerId = "4138F7D5-0763-4B33-9A38-359ACF56B4CB";
shapes = (
{
closed = 1;
nodes = (
(-39,-200,ls),
(25,-200,o),
(79,-158,o),
(94,-94,cs),
(270,620,ls),
(282,670,o),
(323,703,o),
(373,703,cs),
(444,703,l),
(451,730,l),
(375,730,ls),
(311,730,o),
(257,688,o),
(242,624,cs),
(66,-90,ls),
(54,-140,o),
(13,-173,o),
(-37,-173,cs),
(-98,-173,l),
(-105,-200,l)
);
},
{
closed = 1;
nodes = (
(479,444,l),
(486,472,l),
(78,472,l),
(71,444,l)
);
},
{
closed = 1;
nodes = (
(516,0,l),
(523,27,l),
(466,27,ls),
(421,27,o),
(396,60,o),
(407,105,cs),
(561,730,l),
(533,730,l),
(379,105,ls),
(364,44,o),
(397,0,o),
(458,0,cs)
);
}
);
width = 600;
},
{
anchors = (
{
name = caret_1;
pos = (252,0);
}
);
background = {
shapes = (
{
closed = 1;
nodes = (
(-29,-200,ls),
(79,-200,o),
(146,-150,o),
(170,-53,cs),
(328,584,ls),
(332,599,o),
(338,604,o),
(353,604,cs),
(413,604,l),
(444,730,l),
(376,730,ls),
(268,730,o),
(201,680,o),
(177,583,cs),
(19,-56,ls),
(15,-71,o),
(9,-76,o),
(-6,-76,cs),
(-83,-76,l),
(-114,-200,l)
);
},
{
closed = 1;
nodes = (
(491,367,l),
(522,493,l),
(86,493,l),
(55,367,l)
);
},
{
closed = 1;
nodes = (
(538,0,l),
(569,124,l),
(512,124,ls),
(497,124,o),
(493,129,o),
(497,144,cs),
(641,730,l),
(491,730,l),
(347,147,ls),
(325,54,o),
(373,0,o),
(472,0,cs)
);
}
);
};
hints = (
{
horizontal = 1;
origin = (2,11);
target = (2,2);
type = Stem;
},
{
horizontal = 1;
origin = (1,2);
target = (1,3);
type = Stem;
},
{
horizontal = 1;
origin = (2,7);
target = (1,1);
type = Stem;
},
{
origin = (1,3);
target = (2,8);
type = Stem;
},
{
origin = (2,6);
target = (2,8);
type = Stem;
}
);
layerId = "44520DEB-933F-4740-94E3-6BE30525566A";
shapes = (
{
closed = 1;
nodes = (
(-29,-200,ls),
(79,-200,o),
(146,-150,o),
(170,-53,cs),
(333,604,ls),
(337,619,o),
(343,624,o),
(358,624,cs),
(418,624,l),
(444,730,l),
(376,730,ls),
(268,730,o),
(201,680,o),
(177,583,cs),
(15,-74,ls),
(11,-89,o),
(5,-94,o),
(-10,-94,cs),
(-87,-94,l),
(-114,-200,l)
);
},
{
closed = 1;
nodes = (
(496,387,l),
(522,493,l),
(86,493,l),
(60,387,l)
);
},
{
closed = 1;
nodes = (
(538,0,l),
(565,106,l),
(508,106,ls),
(493,106,o),
(489,111,o),
(493,126,cs),
(641,730,l),
(491,730,l),
(347,147,ls),
(325,54,o),
(373,0,o),
(472,0,cs)
);
}
);
width = 600;
}
);
unicode = 64258;
},
{
glyphname = ordfeminine;
lastChange = "2025-07-26 23:30:27 +0000";
layers = (
{
layerId = "4138F7D5-0763-4B33-9A38-359ACF56B4CB";
shapes = (
{
closed = 1;
nodes = (
(366,361,o),
(418,393,o),
(441,440,c),
(440,442,l),
(429,398,o),
(447,368,o),
(494,368,cs),
(512,368,l),
(518,393,l),
(499,393,ls),
(472,393,o),
(459,409,o),
(466,437,cs),
(531,700,l),
(501,700,l),
(476,599,l),
(479,602,l),
(474,668,o),
(434,707,o),
(371,707,cs),
(272,707,o),
(195,618,o),
(195,496,cs),
(195,402,o),
(252,361,o),
(310,361,cs)
);
},
{
closed = 1;
nodes = (
(272,387,o),
(224,419,o),
(224,499,cs),
(224,603,o),
(291,682,o),
(376,682,cs),
(432,682,o),
(466,640,o),
(466,568,cs),
(466,487,o),
(408,387,o),
(319,387,cs)
);
}
);
userData = {
RMXScaler = {
adjustSpace = 13;
height = 70;
verticalShift = 368;
weight = 20;
width = 70;
};
};
width = 600;
},
{
hints = (
{
horizontal = 1;
origin = (0,25);
target = (1,11);
type = Stem;
},
{
horizontal = 1;
origin = (0,19);
target = (1,5);
type = Stem;
}
);
layerId = "44520DEB-933F-4740-94E3-6BE30525566A";
shapes = (
{
closed = 1;
nodes = (
(343,322,o),
(381,355,o),
(404,411,c),
(391,411,l),
(392,354,o),
(419,329,o),
(480,329,cs),
(524,329,l),
(545,412,l),
(507,412,ls),
(496,412,o),
(495,416,o),
(497,424,cs),
(565,700,l),
(448,700,l),
(426,614,l),
(438,634,l),
(430,680,o),
(401,707,o),
(350,707,cs),
(243,707,o),
(160,597,o),
(160,469,cs),
(160,355,o),
(227,322,o),
(283,322,cs)
);
},
{
closed = 1;
nodes = (
(293,409,o),
(278,433,o),
(278,472,cs),
(278,552,o),
(318,620,o),
(369,620,cs),
(396,620,o),
(415,600,o),
(415,565,cs),
(415,480,o),
(373,409,o),
(324,409,cs)
);
}
);
userData = {
RMXScaler = {
adjustSpace = 12;
height = 75;
verticalShift = 329;
weight = -170;
width = 75;
};
};
width = 600;
}
);
unicode = 170;
userData = {
RMXScaler = {
source = a;
};
};
},
{
glyphname = ordmasculine;
lastChange = "2025-07-26 23:30:32 +0000";
layers = (
{
layerId = "4138F7D5-0763-4B33-9A38-359ACF56B4CB";
shapes = (
{
closed = 1;
nodes = (
(452,363,o),
(528,457,o),
(528,580,cs),
(528,658,o),
(478,709,o),
(403,709,cs),
(301,709,o),
(223,617,o),
(223,496,cs),
(223,414,o),
(276,363,o),
(350,363,cs)
);
},
{
closed = 1;
nodes = (
(291,389,o),
(252,432,o),
(252,496,cs),
(252,603,o),
(318,683,o),
(403,683,cs),
(461,683,o),
(499,642,o),
(499,581,cs),
(499,472,o),
(435,389,o),
(352,389,cs)
);
}
);
userData = {
RMXScaler = {
adjustSpace = 13;
height = 70;
verticalShift = 370;
weight = 20;
width = 70;
};
};
width = 600;
},
{
hints = (
{
horizontal = 1;
origin = (0,11);
target = (1,11);
type = Stem;
},
{
horizontal = 1;
origin = (0,5);
target = (1,5);
type = Stem;
}
);
layerId = "44520DEB-933F-4740-94E3-6BE30525566A";
shapes = (
{
closed = 1;
nodes = (
(457,322,o),
(550,422,o),
(550,543,cs),
(550,644,o),
(483,707,o),
(392,707,cs),
(274,707,o),
(184,609,o),
(184,482,cs),
(184,364,o),
(267,322,o),
(341,322,cs)
);
},
{
closed = 1;
nodes = (
(316,410,o),
(301,432,o),
(301,474,cs),
(301,553,o),
(342,620,o),
(389,620,cs),
(419,620,o),
(434,598,o),
(434,556,cs),
(434,477,o),
(394,410,o),
(348,410,cs)
);
}
);
userData = {
RMXScaler = {
adjustSpace = 12;
height = 75;
verticalShift = 329;
weight = -170;
width = 75;
};
};
width = 600;
}
);
unicode = 186;
userData = {
RMXScaler = {
source = o;
};
};
},
{
glyphname = zero;
lastChange = "2025-07-26 23:31:13 +0000";
layers = (
{
layerId = "4138F7D5-0763-4B33-9A38-359ACF56B4CB";
shapes = (
{
closed = 1;
nodes = (
(425,-10,o),
(577,219,o),
(577,491,cs),
(577,629,o),
(513,710,o),
(407,710,cs),
(235,710,o),
(82,485,o),
(82,216,cs),
(82,73,o),
(147,-10,o),
(259,-10,cs)
);
},
{
closed = 1;
nodes = (
(167,18,o),
(112,93,o),
(112,220,cs),
(112,472,o),
(250,682,o),
(404,682,cs),
(493,682,o),
(548,609,o),
(548,485,cs),
(548,231,o),
(411,18,o),
(262,18,cs)
);
},
{
closed = 1;
nodes = (
(564,465,l),
(562,496,l),
(96,237,l),
(99,207,l)
);
}
);
userData = {
RMXScaler = {
monoWidth = 600;
};
};
width = 600;
},
{
hints = (
{
horizontal = 1;
origin = (0,11);
target = (1,11);
type = Stem;
},
{
horizontal = 1;
place = (574,135);
target = (0,5);
type = Stem;
}
);
layerId = "44520DEB-933F-4740-94E3-6BE30525566A";
shapes = (
{
closed = 1;
nodes = (
(451,-9,o),
(606,204,o),
(606,465,cs),
(606,619,o),
(521,709,o),
(388,709,cs),
(202,709,o),
(47,496,o),
(47,238,cs),
(47,82,o),
(132,-9,o),
(260,-9,cs)
);
},
{
closed = 1;
nodes = (
(227,122,o),
(199,161,o),
(199,235,cs),
(199,419,o),
(283,577,o),
(377,577,cs),
(426,577,o),
(453,540,o),
(453,467,cs),
(453,280,o),
(370,122,o),
(279,122,cs)
);
},
{
closed = 1;
nodes = (
(511,387,l),
(506,503,l),
(153,317,l),
(158,200,l)
);
}
);
userData = {
RMXScaler = {
monoWidth = 600;
};
};
width = 600;
},
{
associatedMasterId = "44520DEB-933F-4740-94E3-6BE30525566A";
layerId = "43A0A181-EDA5-48A9-969E-38671AE330AA";
name = "30. Juni 25, 13:22";
shapes = (
{
closed = 1;
nodes = (
(472,-10,o),
(572,118,o),
(572,348,cs),
(572,580,o),
(472,710,o),
(301,710,cs),
(129,710,o),
(28,580,o),
(28,348,cs),
(28,118,o),
(129,-10,o),
(301,-10,cs)
);
},
{
closed = 1;
nodes = (
(221,120,o),
(181,192,o),
(181,348,cs),
(181,507,o),
(221,580,o),
(301,580,cs),
(380,580,o),
(419,507,o),
(419,348,cs),
(419,192,o),
(380,120,o),
(301,120,cs)
);
},
{
closed = 1;
nodes = (
(488,426,l),
(463,539,l),
(124,284,l),
(153,173,l)
);
}
);
userData = {
RMXScaler = {
monoWidth = 600;
};
};
width = 600;
}
);
unicode = 48;
userData = {
RMXScaler = {
source = zero;
};
};
},
{
glyphname = one;
lastChange = "2025-07-26 23:31:16 +0000";
layers = (
{
layerId = "4138F7D5-0763-4B33-9A38-359ACF56B4CB";
shapes = (
{
closed = 1;
nodes = (
(274,13,l),
(418,597,ls),
(432,659,o),
(401,700,o),
(339,700,cs),
(225,700,l),
(218,672,l),
(336,672,ls),
(382,672,o),
(400,645,o),
(387,593,cs),
(244,13,l)
);
},
{
closed = 1;
nodes = (
(468,0,l),
(475,28,l),
(51,28,l),
(44,0,l)
);
}
);
userData = {
RMXScaler = {
monoWidth = 600;
};
};
width = 600;
},
{
background = {
shapes = (
{
closed = 1;
nodes = (
(351,56,l),
(475,561,ls),
(495,644,o),
(453,700,o),
(368,700,cs),
(194,700,l),
(158,555,l),
(307,555,ls),
(315,555,o),
(318,552,o),
(316,544,cs),
(196,56,l)
);
},
{
closed = 1;
nodes = (
(481,0,l),
(517,145,l),
(70,145,l),
(34,0,l)
);
}
);
};
hints = (
{
horizontal = 1;
origin = (1,3);
target = (1,2);
type = Stem;
},
{
horizontal = 1;
origin = (0,5);
target = (0,7);
type = Stem;
}
);
layerId = "44520DEB-933F-4740-94E3-6BE30525566A";
shapes = (
{
closed = 1;
nodes = (
(351,56,l),
(475,561,ls),
(495,644,o),
(453,700,o),
(368,700,cs),
(194,700,l),
(163,575,l),
(312,575,ls),
(320,575,o),
(323,572,o),
(321,564,cs),
(196,56,l)
);
},
{
closed = 1;
nodes = (
(481,0,l),
(512,125,l),
(65,125,l),
(34,0,l)
);
}
);
userData = {
RMXScaler = {
source = one;
};
};
width = 600;
}
);
unicode = 49;
userData = {
RMXScaler = {
source = one;
};
};
},
{
glyphname = two;
lastChange = "2025-07-26 23:31:19 +0000";
layers = (
{
background = {
shapes = (
{
closed = 1;
nodes = (
(430,-24,l),
(436,4,l),
(39,53,l),
(41,47,l),
(357,274,ls),
(481,364,o),
(514,426,o),
(528,484,cs),
(558,605,o),
(504,693,o),
(379,708,cs),
(300,718,o),
(209,682,o),
(144,611,c),
(161,590,l),
(221,655,o),
(300,688,o),
(372,680,cs),
(475,667,o),
(525,596,o),
(499,487,cs),
(485,432,o),
(453,377,o),
(340,296,cs),
(3,52,l),
(-3,30,l)
);
}
);
};
layerId = "4138F7D5-0763-4B33-9A38-359ACF56B4CB";
shapes = (
{
closed = 1;
nodes = (
(453,0,l),
(460,28,l),
(70,28,l),
(71,18,l),
(387,278,ls),
(494,366,o),
(559,442,o),
(559,544,cs),
(559,646,o),
(490,710,o),
(386,710,cs),
(298,710,o),
(220,666,o),
(170,586,c),
(191,569,l),
(234,640,o),
(305,681,o),
(386,681,cs),
(473,681,o),
(529,627,o),
(529,542,cs),
(529,447,o),
(462,377,o),
(370,301,cs),
(33,23,l),
(28,0,l)
);
}
);
userData = {
RMXScaler = {
monoWidth = 600;
useSpacing = 80;
};
};
width = 600;
},
{
background = {
shapes = (
{
closed = 1;
nodes = (
(495,0,l),
(530,142,l),
(225,142,l),
(243,99,l),
(431,262,ls),
(521,340,o),
(590,421,o),
(590,524,cs),
(590,635,o),
(508,710,o),
(378,710,cs),
(282,710,o),
(199,666,o),
(127,593,c),
(213,483,l),
(265,535,o),
(309,561,o),
(356,561,cs),
(398,561,o),
(423,536,o),
(423,500,cs),
(423,448,o),
(367,387,o),
(325,352,cs),
(43,117,l),
(14,0,l)
);
}
);
};
hints = (
{
horizontal = 1;
origin = (0,25);
target = (0,2);
type = Stem;
},
{
horizontal = 1;
origin = (0,10);
target = (0,17);
type = Stem;
}
);
layerId = "44520DEB-933F-4740-94E3-6BE30525566A";
shapes = (
{
closed = 1;
nodes = (
(495,0,l),
(525,122,l),
(220,122,l),
(243,99,l),
(431,262,ls),
(521,340,o),
(590,421,o),
(590,524,cs),
(590,635,o),
(508,710,o),
(378,710,cs),
(282,710,o),
(199,666,o),
(127,593,c),
(208,490,l),
(262,546,o),
(307,572,o),
(356,572,cs),
(398,572,o),
(423,547,o),
(423,500,cs),
(423,448,o),
(367,387,o),
(325,352,cs),
(43,117,l),
(14,0,l)
);
}
);
userData = {
RMXScaler = {
monoWidth = 600;
};
};
width = 600;
}
);
unicode = 50;
userData = {
RMXScaler = {
source = two;
};
};
},
{
glyphname = three;
lastChange = "2025-07-26 23:31:23 +0000";
layers = (
{
background = {
shapes = (
{
closed = 1;
nodes = (
(327,-23,o),
(439,42,o),
(466,153,cs),
(492,258,o),
(428,345,o),
(275,364,c),
(271,349,l),
(409,332,o),
(508,405,o),
(533,508,cs),
(560,616,o),
(490,693,o),
(367,708,cs),
(277,720,o),
(205,692,o),
(165,665,c),
(176,641,l),
(210,665,o),
(276,691,o),
(360,681,cs),
(467,667,o),
(527,602,o),
(504,508,cs),
(483,421,o),
(396,355,o),
(274,370,cs),
(184,381,l),
(177,354,l),
(268,342,ls),
(399,326,o),
(462,252,o),
(439,158,cs),
(415,63,o),
(317,6,o),
(201,20,cs),
(103,32,o),
(53,77,o),
(25,118,c),
(1,98,l),
(34,51,o),
(90,7,o),
(194,-6,cs)
);
}
);
};
layerId = "4138F7D5-0763-4B33-9A38-359ACF56B4CB";
shapes = (
{
closed = 1;
nodes = (
(384,-10,o),
(489,74,o),
(489,197,cs),
(489,288,o),
(429,358,o),
(302,358,c),
(301,345,l),
(437,345,o),
(557,420,o),
(557,550,cs),
(557,648,o),
(488,710,o),
(377,710,cs),
(289,710,o),
(226,674,o),
(186,643,c),
(199,620,l),
(228,644,o),
(293,682,o),
(376,682,cs),
(473,682,o),
(529,628,o),
(529,549,cs),
(529,439,o),
(426,368,o),
(300,368,cs),
(211,368,l),
(205,340,l),
(295,340,ls),
(405,340,o),
(461,273,o),
(461,194,cs),
(461,87,o),
(370,17,o),
(236,17,cs),
(139,17,o),
(80,55,o),
(53,91,c),
(31,70,l),
(63,29,o),
(132,-10,o),
(235,-10,cs)
);
}
);
userData = {
RMXScaler = {
monoWidth = 600;
useSpacing = 68;
};
};
width = 600;
},
{
hints = (
{
horizontal = 1;
origin = (0,41);
target = (0,34);
type = Stem;
},
{
horizontal = 1;
origin = (0,28);
target = (0,26);
type = Stem;
},
{
horizontal = 1;
origin = (0,12);
target = (0,19);
type = Stem;
}
);
layerId = "44520DEB-933F-4740-94E3-6BE30525566A";
shapes = (
{
closed = 1;
nodes = (
(420,-10,o),
(531,79,o),
(531,216,cs),
(531,288,o),
(491,335,o),
(378,368,c),
(376,327,l),
(545,352,o),
(591,461,o),
(591,525,cs),
(591,637,o),
(506,710,o),
(374,710,cs),
(292,710,o),
(208,680,o),
(136,628,c),
(202,516,l),
(247,552,o),
(302,575,o),
(351,575,cs),
(400,575,o),
(434,550,o),
(434,503,cs),
(434,452,o),
(392,416,o),
(331,416,cs),
(239,416,l),
(206,281,l),
(293,281,ls),
(343,281,o),
(376,252,o),
(376,212,cs),
(376,167,o),
(336,122,o),
(266,122,cs),
(211,122,o),
(167,146,o),
(133,201,c),
(27,103,l),
(71,31,o),
(156,-10,o),
(261,-10,cs)
);
}
);
userData = {
RMXScaler = {
monoWidth = 600;
};
};
width = 600;
}
);
unicode = 51;
userData = {
RMXScaler = {
source = three;
};
};
},
{
glyphname = four;
lastChange = "2025-07-26 23:31:28 +0000";
layers = (
{
layerId = "4138F7D5-0763-4B33-9A38-359ACF56B4CB";
shapes = (
{
closed = 1;
nodes = (
(533,189,l),
(540,217,l),
(89,217,l),
(97,211,l),
(470,700,l),
(433,700,l),
(64,214,l),
(57,189,l)
);
},
{
closed = 1;
nodes = (
(363,0,l),
(467,422,l),
(439,422,l),
(335,0,l)
);
}
);
userData = {
RMXScaler = {
monoWidth = 600;
};
};
width = 600;
},
{
hints = (
{
horizontal = 1;
origin = (1,3);
target = up;
type = BottomGhost;
},
{
horizontal = 1;
origin = (0,7);
target = (0,2);
type = Stem;
},
{
horizontal = 1;
origin = (0,5);
target = down;
type = TopGhost;
}
);
layerId = "44520DEB-933F-4740-94E3-6BE30525566A";
shapes = (
{
closed = 1;
nodes = (
(544,145,l),
(578,280,l),
(153,280,l),
(192,237,l),
(466,700,l),
(294,700,l),
(40,275,l),
(8,145,l)
);
},
{
closed = 1;
nodes = (
(423,0,l),
(534,450,l),
(382,450,l),
(271,0,l)
);
}
);
userData = {
RMXScaler = {
monoWidth = 600;
};
};
width = 600;
}
);
unicode = 52;
userData = {
RMXScaler = {
source = four;
};
};
},
{
glyphname = five;
lastChange = "2025-07-26 23:31:33 +0000";
layers = (
{
layerId = "4138F7D5-0763-4B33-9A38-359ACF56B4CB";
shapes = (
{
closed = 1;
nodes = (
(396,-10,o),
(515,111,o),
(515,261,cs),
(515,371,o),
(453,436,o),
(348,436,cs),
(258,436,o),
(192,387,o),
(148,321,c),
(162,319,l),
(245,602,ls),
(257,643,o),
(299,672,o),
(344,672,cs),
(588,672,l),
(595,700,l),
(344,700,ls),
(284,700,o),
(234,662,o),
(219,611,cs),
(123,284,l),
(151,284,l),
(191,358,o),
(257,408,o),
(342,408,cs),
(432,408,o),
(485,353,o),
(485,260,cs),
(485,126,o),
(380,17,o),
(237,17,cs),
(162,17,o),
(93,45,o),
(59,91,c),
(37,70,l),
(72,22,o),
(152,-10,o),
(236,-10,cs)
);
}
);
userData = {
RMXScaler = {
monoWidth = 600;
useSpacing = 80;
};
};
width = 600;
},
{
hints = (
{
horizontal = 1;
origin = (0,37);
target = (0,30);
type = Stem;
},
{
horizontal = 1;
origin = (0,24);
target = (0,5);
type = Stem;
},
{
horizontal = 1;
origin = (0,16);
target = (0,14);
type = Stem;
}
);
layerId = "44520DEB-933F-4740-94E3-6BE30525566A";
shapes = (
{
closed = 1;
nodes = (
(419,-10,o),
(530,99,o),
(530,257,cs),
(530,373,o),
(465,437,o),
(380,437,cs),
(314,437,o),
(252,396,o),
(237,334,c),
(251,334,l),
(310,554,ls),
(312,560,o),
(317,565,o),
(324,565,cs),
(588,565,l),
(620,700,l),
(319,700,ls),
(245,700,o),
(190,658,o),
(171,583,cs),
(90,263,l),
(215,263,l),
(240,294,o),
(271,310,o),
(304,310,cs),
(347,310,o),
(371,283,o),
(371,238,cs),
(371,177,o),
(330,122,o),
(254,122,cs),
(201,122,o),
(157,148,o),
(122,201,c),
(15,102,l),
(64,29,o),
(145,-10,o),
(244,-10,cs)
);
}
);
userData = {
RMXScaler = {
monoWidth = 600;
};
};
width = 600;
}
);
unicode = 53;
userData = {
RMXScaler = {
source = five;
};
};
},
{
glyphname = six;
lastChange = "2025-07-26 23:31:39 +0000";
layers = (
{
background = {
shapes = (
{
closed = 1;
nodes = (
(353,-24,o),
(468,58,o),
(500,191,cs),
(533,324,o),
(465,429,o),
(338,445,cs),
(287,451,o),
(233,443,o),
(185,412,c),
(191,407,l),
(485,686,l),
(448,691,l),
(137,391,ls),
(99,354,o),
(68,306,o),
(54,247,cs),
(20,109,o),
(85,10,o),
(222,-7,cs)
);
},
{
closed = 1;
nodes = (
(109,35,o),
(52,122,o),
(82,243,cs),
(111,361,o),
(209,433,o),
(329,418,cs),
(442,404,o),
(501,312,o),
(472,195,cs),
(443,78,o),
(343,6,o),
(228,20,cs)
);
}
);
};
layerId = "4138F7D5-0763-4B33-9A38-359ACF56B4CB";
shapes = (
{
closed = 1;
nodes = (
(409,-10,o),
(525,111,o),
(525,254,cs),
(525,374,o),
(453,446,o),
(339,446,cs),
(299,446,o),
(255,437,o),
(208,401,c),
(218,399,l),
(509,700,l),
(472,700,l),
(174,391,ls),
(105,319,o),
(75,249,o),
(75,178,cs),
(75,64,o),
(156,-10,o),
(275,-10,cs)
);
},
{
closed = 1;
nodes = (
(175,18,o),
(105,83,o),
(105,183,cs),
(105,309,o),
(212,419,o),
(335,419,cs),
(432,419,o),
(495,355,o),
(495,252,cs),
(495,125,o),
(394,18,o),
(277,18,cs)
);
}
);
userData = {
RMXScaler = {
monoWidth = 600;
useSpacing = 80;
};
};
width = 600;
},
{
hints = (
{
horizontal = 1;
origin = (0,18);
target = (0,15);
type = Stem;
},
{
horizontal = 1;
origin = (1,8);
target = (0,5);
type = Stem;
},
{
horizontal = 1;
origin = (0,11);
target = down;
type = TopGhost;
}
);
layerId = "44520DEB-933F-4740-94E3-6BE30525566A";
shapes = (
{
closed = 1;
nodes = (
(439,-10,o),
(563,116,o),
(563,267,cs),
(563,383,o),
(487,459,o),
(391,459,cs),
(333,459,o),
(289,436,o),
(235,392,c),
(256,392,l),
(610,700,l),
(395,700,l),
(171,469,ls),
(87,382,o),
(34,305,o),
(34,207,cs),
(34,74,o),
(134,-10,o),
(275,-10,cs)
);
},
{
closed = 1;
nodes = (
(232,112,o),
(195,144,o),
(195,206,cs),
(195,286,o),
(249,346,o),
(315,346,cs),
(366,346,o),
(400,312,o),
(400,253,cs),
(400,173,o),
(347,112,o),
(284,112,cs)
);
}
);
userData = {
RMXScaler = {
monoWidth = 600;
};
};
width = 600;
},
{
associatedMasterId = "44520DEB-933F-4740-94E3-6BE30525566A";
hints = (
{
horizontal = 1;
origin = (0,18);
target = (0,15);
type = Stem;
},
{
horizontal = 1;
origin = (1,8);
target = (0,5);
type = Stem;
},
{
horizontal = 1;
origin = (0,11);
target = down;
type = TopGhost;
},
{
origin = (0,15);
target = (0,8);
type = Stem;
},
{
origin = (0,11);
target = (0,2);
type = Stem;
}
);
layerId = "104A2C36-3021-42FA-81D6-D41F99D1C2C3";
name = "30. Juni 25, 13:40";
shapes = (
{
closed = 1;
nodes = (
(434,-10,o),
(555,107,o),
(555,259,cs),
(555,377,o),
(479,463,o),
(372,463,cs),
(318,463,o),
(266,441,o),
(212,396,c),
(310,404,l),
(607,700,l),
(392,700,l),
(176,469,ls),
(95,382,o),
(41,304,o),
(41,205,cs),
(41,74,o),
(136,-10,o),
(274,-10,cs)
);
},
{
closed = 1;
nodes = (
(237,127,o),
(202,159,o),
(202,213,cs),
(202,280,o),
(249,333,o),
(309,333,cs),
(360,333,o),
(393,299,o),
(393,246,cs),
(393,179,o),
(346,127,o),
(286,127,cs)
);
}
);
userData = {
RMXScaler = {
monoWidth = 600;
};
};
width = 600;
},
{
associatedMasterId = "44520DEB-933F-4740-94E3-6BE30525566A";
layerId = "CC99F182-AED9-4CD3-AF47-E6927E3BBDAF";
name = "30. Juni 25, 13:41";
shapes = (
{
closed = 1;
nodes = (
(463,-10,o),
(571,81,o),
(571,229,cs),
(571,364,o),
(496,463,o),
(358,463,cs),
(303,463,o),
(253,441,o),
(209,396,c),
(236,404,l),
(477,700,l),
(288,700,l),
(125,460,ls),
(70,379,o),
(37,306,o),
(37,239,cs),
(37,86,o),
(140,-10,o),
(305,-10,cs)
);
},
{
closed = 1;
nodes = (
(240,112,o),
(198,158,o),
(198,228,cs),
(198,299,o),
(240,346,o),
(303,346,cs),
(367,346,o),
(409,299,o),
(409,228,cs),
(409,158,o),
(367,112,o),
(303,112,cs)
);
}
);
userData = {
RMXScaler = {
monoWidth = 600;
};
};
width = 600;
}
);
unicode = 54;
userData = {
RMXScaler = {
source = six;
};
};
},
{
glyphname = seven;
lastChange = "2025-06-30 11:42:33 +0000";
layers = (
{
layerId = "4138F7D5-0763-4B33-9A38-359ACF56B4CB";
shapes = (
{
closed = 1;
nodes = (
(130,0,l),
(636,680,l),
(641,700,l),
(186,700,l),
(179,672,l),
(610,672,l),
(604,682,l),
(92,0,l)
);
}
);
userData = {
RMXScaler = {
monoWidth = 600;
};
};
width = 600;
},
{
hints = (
{
horizontal = 1;
origin = (0,7);
target = up;
type = BottomGhost;
},
{
horizontal = 1;
origin = (0,3);
target = (0,5);
type = Stem;
}
);
layerId = "44520DEB-933F-4740-94E3-6BE30525566A";
shapes = (
{
closed = 1;
nodes = (
(229,0,l),
(630,590,l),
(657,700,l),
(171,700,l),
(137,565,l),
(501,565,l),
(462,597,l),
(37,0,l)
);
}
);
userData = {
RMXScaler = {
monoWidth = 600;
};
};
width = 600;
}
);
unicode = 55;
userData = {
RMXScaler = {
source = seven;
};
};
},
{
glyphname = eight;
lastChange = "2025-07-26 23:32:18 +0000";
layers = (
{
layerId = "4138F7D5-0763-4B33-9A38-359ACF56B4CB";
shapes = (
{
closed = 1;
nodes = (
(412,-10,o),
(519,82,o),
(519,205,cs),
(519,304,o),
(444,375,o),
(340,371,c),
(344,358,l),
(474,358,o),
(578,435,o),
(578,547,cs),
(578,645,o),
(503,710,o),
(391,710,cs),
(265,710,o),
(170,626,o),
(170,515,cs),
(170,427,o),
(237,366,o),
(335,366,c),
(323,379,l),
(173,379,o),
(57,303,o),
(57,171,cs),
(57,62,o),
(142,-10,o),
(269,-10,cs)
);
},
{
closed = 1;
nodes = (
(160,18,o),
(85,80,o),
(85,172,cs),
(85,278,o),
(182,355,o),
(309,355,cs),
(421,355,o),
(490,295,o),
(490,206,cs),
(490,99,o),
(397,18,o),
(273,18,cs)
);
},
{
closed = 1;
nodes = (
(265,382,o),
(200,437,o),
(200,518,cs),
(200,611,o),
(282,682,o),
(391,682,cs),
(485,682,o),
(547,627,o),
(547,545,cs),
(547,453,o),
(463,382,o),
(359,382,cs)
);
}
);
userData = {
RMXScaler = {
monoWidth = 600;
useSpacing = 80;
};
};
width = 600;
},
{
associatedMasterId = "44520DEB-933F-4740-94E3-6BE30525566A";
layerId = "E3DD4797-09D3-4CB0-8F69-FA2B19386C87";
name = "30. Juni 25, 13:42";
shapes = (
{
closed = 1;
nodes = (
(435,-9,o),
(553,78,o),
(553,215,cs),
(553,308,o),
(490,371,o),
(393,371,c),
(382,330,l),
(508,330,o),
(611,409,o),
(611,529,cs),
(611,647,o),
(507,709,o),
(380,709,cs),
(240,709,o),
(118,629,o),
(118,501,cs),
(118,419,o),
(171,344,o),
(262,344,c),
(274,381,l),
(148,401,o),
(22,315,o),
(22,179,cs),
(22,63,o),
(123,-9,o),
(274,-9,cs)
);
},
{
closed = 1;
nodes = (
(225,126,o),
(190,155,o),
(190,202,cs),
(190,258,o),
(237,298,o),
(299,298,cs),
(352,298,o),
(392,270,o),
(392,221,cs),
(392,163,o),
(340,126,o),
(283,126,cs)
);
},
{
closed = 1;
nodes = (
(305,417,o),
(271,446,o),
(271,487,cs),
(271,537,o),
(316,571,o),
(369,571,cs),
(419,571,o),
(450,543,o),
(450,502,cs),
(450,455,o),
(412,417,o),
(356,417,cs)
);
}
);
userData = {
RMXScaler = {
monoWidth = 600;
};
};
width = 600;
},
{
associatedMasterId = "44520DEB-933F-4740-94E3-6BE30525566A";
background = {
shapes = (
{
closed = 1;
nodes = (
(465,-10,o),
(571,69,o),
(571,197,cs),
(571,299,o),
(491,369,o),
(359,369,c),
(359,357,l),
(475,357,o),
(550,428,o),
(550,518,cs),
(550,634,o),
(452,710,o),
(300,710,cs),
(147,710,o),
(49,633,o),
(49,517,cs),
(49,427,o),
(125,357,o),
(241,357,c),
(241,369,l),
(109,369,o),
(29,299,o),
(29,196,cs),
(29,69,o),
(134,-10,o),
(300,-10,cs)
);
},
{
closed = 1;
nodes = (
(229,115,o),
(192,146,o),
(192,197,cs),
(192,260,o),
(233,307,o),
(304,307,cs),
(372,307,o),
(408,275,o),
(408,226,cs),
(408,161,o),
(368,115,o),
(297,115,cs)
);
},
{
closed = 1;
nodes = (
(238,406,o),
(204,434,o),
(204,480,cs),
(204,533,o),
(234,585,o),
(303,585,cs),
(363,585,o),
(397,557,o),
(397,511,cs),
(397,471,o),
(370,406,o),
(298,406,cs)
);
}
);
};
layerId = "86414E1E-66F6-4328-B2C7-B273FB2A7946";
name = "30. Juni 25, 13:46";
shapes = (
{
closed = 1;
nodes = (
(465,-10,o),
(571,69,o),
(571,197,cs),
(571,299,o),
(491,369,o),
(359,369,c),
(359,357,l),
(475,357,o),
(550,428,o),
(550,518,cs),
(550,634,o),
(452,710,o),
(300,710,cs),
(147,710,o),
(49,633,o),
(49,517,cs),
(49,427,o),
(125,357,o),
(241,357,c),
(241,369,l),
(109,369,o),
(29,299,o),
(29,196,cs),
(29,69,o),
(134,-10,o),
(300,-10,cs)
);
},
{
closed = 1;
nodes = (
(233,115,o),
(193,151,o),
(193,211,cs),
(193,271,o),
(233,307,o),
(301,307,cs),
(368,307,o),
(407,271,o),
(407,211,cs),
(407,151,o),
(367,115,o),
(300,115,cs)
);
},
{
closed = 1;
nodes = (
(241,406,o),
(205,439,o),
(205,495,cs),
(205,552,o),
(240,585,o),
(300,585,cs),
(360,585,o),
(395,552,o),
(395,495,cs),
(395,439,o),
(360,406,o),
(301,406,cs)
);
}
);
userData = {
RMXScaler = {
monoWidth = 600;
};
};
width = 600;
},
{
background = {
shapes = (
{
closed = 1;
nodes = (
(465,-10,o),
(571,69,o),
(571,197,cs),
(571,299,o),
(491,369,o),
(359,369,c),
(359,357,l),
(475,357,o),
(550,428,o),
(550,518,cs),
(550,634,o),
(452,710,o),
(300,710,cs),
(147,710,o),
(49,633,o),
(49,517,cs),
(49,427,o),
(125,357,o),
(241,357,c),
(241,369,l),
(109,369,o),
(29,299,o),
(29,196,cs),
(29,69,o),
(134,-10,o),
(300,-10,cs)
);
},
{
closed = 1;
nodes = (
(229,115,o),
(192,146,o),
(192,197,cs),
(192,260,o),
(233,307,o),
(304,307,cs),
(372,307,o),
(408,275,o),
(408,226,cs),
(408,161,o),
(368,115,o),
(297,115,cs)
);
},
{
closed = 1;
nodes = (
(238,406,o),
(204,434,o),
(204,480,cs),
(204,533,o),
(234,585,o),
(303,585,cs),
(363,585,o),
(397,557,o),
(397,511,cs),
(397,471,o),
(370,406,o),
(298,406,cs)
);
}
);
};
hints = (
{
horizontal = 1;
origin = (0,25);
target = (1,11);
type = Stem;
},
{
horizontal = 1;
origin = (1,5);
target = (2,11);
type = Stem;
},
{
horizontal = 1;
origin = (0,12);
target = (2,5);
type = Stem;
}
);
layerId = "44520DEB-933F-4740-94E3-6BE30525566A";
name = "ExtraBold Italic";
shapes = (
{
closed = 1;
nodes = (
(433,-9,o),
(553,83,o),
(553,205,cs),
(553,298,o),
(490,361,o),
(393,361,c),
(382,350,l),
(508,350,o),
(611,415,o),
(611,535,cs),
(611,653,o),
(507,709,o),
(380,709,cs),
(240,709,o),
(118,639,o),
(118,511,cs),
(118,429,o),
(171,364,o),
(262,364,c),
(274,371,l),
(148,391,o),
(22,305,o),
(22,179,cs),
(22,68,o),
(130,-9,o),
(274,-9,cs)
);
},
{
closed = 1;
nodes = (
(229,115,o),
(187,148,o),
(187,197,cs),
(187,260,o),
(235,305,o),
(304,305,cs),
(361,305,o),
(403,275,o),
(403,226,cs),
(403,163,o),
(355,115,o),
(289,115,cs)
);
},
{
closed = 1;
nodes = (
(296,410,o),
(262,439,o),
(262,483,cs),
(262,540,o),
(304,584,o),
(367,584,cs),
(417,584,o),
(453,552,o),
(453,508,cs),
(453,451,o),
(409,410,o),
(346,410,cs)
);
}
);
userData = {
RMXScaler = {
monoWidth = 600;
};
};
width = 600;
}
);
unicode = 56;
userData = {
RMXScaler = {
source = eight;
};
};
},
{
glyphname = nine;
lastChange = "2025-07-26 23:32:34 +0000";
layers = (
{
layerId = "4138F7D5-0763-4B33-9A38-359ACF56B4CB";
shapes = (
{
closed = 1;
nodes = (
(183,-10,l),
(481,299,ls),
(550,371,o),
(580,441,o),
(580,512,cs),
(580,626,o),
(503,700,o),
(384,700,cs),
(242,700,o),
(130,583,o),
(130,429,cs),
(130,309,o),
(202,244,o),
(316,244,cs),
(356,244,o),
(400,253,o),
(447,289,c),
(437,291,l),
(146,-10,l)
);
},
{
closed = 1;
nodes = (
(223,271,o),
(160,328,o),
(160,433,cs),
(160,568,o),
(258,672,o),
(383,672,cs),
(484,672,o),
(550,607,o),
(550,507,cs),
(550,380,o),
(443,271,o),
(318,271,cs)
);
}
);
userData = {
RMXScaler = {
monoWidth = 600;
useSpacing = 80;
};
};
width = 600;
},
{
hints = (
{
horizontal = 1;
origin = (0,18);
target = up;
type = BottomGhost;
},
{
horizontal = 1;
origin = (1,5);
target = (0,7);
type = Stem;
},
{
horizontal = 1;
origin = (0,13);
target = (1,11);
type = Stem;
}
);
layerId = "44520DEB-933F-4740-94E3-6BE30525566A";
shapes = (
{
closed = 1;
nodes = (
(260,0,l),
(484,231,ls),
(568,318,o),
(621,395,o),
(621,493,cs),
(621,626,o),
(522,710,o),
(380,710,cs),
(215,710,o),
(92,594,o),
(92,443,cs),
(92,328,o),
(167,241,o),
(264,241,cs),
(322,241,o),
(366,264,o),
(420,308,c),
(399,308,l),
(45,0,l)
);
},
{
closed = 1;
nodes = (
(289,354,o),
(255,388,o),
(255,447,cs),
(255,527,o),
(308,588,o),
(371,588,cs),
(424,588,o),
(460,556,o),
(460,494,cs),
(460,414,o),
(406,354,o),
(340,354,cs)
);
}
);
userData = {
RMXScaler = {
monoWidth = 600;
};
};
width = 600;
},
{
associatedMasterId = "44520DEB-933F-4740-94E3-6BE30525566A";
layerId = "AAC8E2FA-E05E-430F-B671-527A2160DE1B";
name = "30. Juni 25, 13:41";
shapes = (
{
closed = 1;
nodes = (
(260,0,l),
(475,231,ls),
(556,318,o),
(609,397,o),
(609,495,cs),
(609,626,o),
(514,710,o),
(376,710,cs),
(216,710,o),
(95,593,o),
(95,441,cs),
(95,323,o),
(170,237,o),
(278,237,cs),
(332,237,o),
(384,259,o),
(438,304,c),
(340,296,l),
(43,0,l)
);
},
{
closed = 1;
nodes = (
(290,367,o),
(257,401,o),
(257,454,cs),
(257,521,o),
(305,573,o),
(364,573,cs),
(413,573,o),
(448,541,o),
(448,487,cs),
(448,420,o),
(401,367,o),
(341,367,cs)
);
}
);
userData = {
RMXScaler = {
monoWidth = 600;
};
};
width = 600;
}
);
unicode = 57;
userData = {
RMXScaler = {
source = nine;
};
};
},
{
glyphname = zero.dnom;
kernLeft = zero.dnom;
kernRight = zero.dnom;
lastChange = "2025-07-26 23:32:41 +0000";
layers = (
{
layerId = "4138F7D5-0763-4B33-9A38-359ACF56B4CB";
shapes = (
{
closed = 1;
nodes = (
(335,-5,o),
(411,109,o),
(411,243,cs),
(411,314,o),
(377,355,o),
(323,355,cs),
(236,355,o),
(159,244,o),
(159,110,cs),
(159,37,o),
(193,-5,o),
(250,-5,cs)
);
},
{
closed = 1;
nodes = (
(209,17,o),
(183,51,o),
(183,111,cs),
(183,232,o),
(248,333,o),
(321,333,cs),
(362,333,o),
(387,299,o),
(387,241,cs),
(387,120,o),
(323,17,o),
(253,17,cs)
);
},
{
closed = 1;
nodes = (
(399,226,l),
(397,249,l),
(173,125,l),
(175,103,l)
);
}
);
userData = {
RMXScaler = {
adjustSpace = 9;
height = 50;
weight = 4;
width = 50;
};
};
width = 600;
},
{
hints = (
{
horizontal = 1;
origin = (1,5);
target = (0,5);
type = Stem;
},
{
horizontal = 1;
origin = (0,11);
target = (1,11);
type = Stem;
}
);
layerId = "44520DEB-933F-4740-94E3-6BE30525566A";
shapes = (
{
closed = 1;
nodes = (
(350,-4,o),
(429,103,o),
(429,234,cs),
(429,314,o),
(383,361,o),
(313,361,cs),
(216,361,o),
(137,253,o),
(137,124,cs),
(137,43,o),
(183,-4,o),
(249,-4,cs)
);
},
{
closed = 1;
nodes = (
(239,73,o),
(228,90,o),
(228,121,cs),
(228,209,o),
(265,283,o),
(306,283,cs),
(327,283,o),
(338,268,o),
(338,236,cs),
(338,148,o),
(301,73,o),
(261,73,cs)
);
},
{
closed = 1;
nodes = (
(372,189,l),
(369,257,l),
(201,170,l),
(204,101,l)
);
}
);
userData = {
RMXScaler = {
adjustSpace = 19;
height = 51;
weight = -317;
width = 51;
};
};
width = 600;
}
);
userData = {
RMXScaler = {
source = zero;
};
};
},
